<svg xmlns="http://www.w3.org/2000/svg" width="16" height="16" viewBox="0 0 16 16">
  <g id="vuesax_bulk_call" data-name="vuesax/bulk/call" transform="translate(-108 -188)">
    <g id="call" transform="translate(108 188)">
      <path id="Vector" d="M6.527,8.14l-2.18,2.18q-.36-.32-.7-.66a18.942,18.942,0,0,1-1.86-2.18A11.885,11.885,0,0,1,.48,5.207,5.615,5.615,0,0,1,0,3.027,3.449,3.449,0,0,1,.24,1.74,3.068,3.068,0,0,1,1.007.627,1.953,1.953,0,0,1,2.393,0a1.253,1.253,0,0,1,.54.12A1.087,1.087,0,0,1,3.38.493l1.547,2.18a2.282,2.282,0,0,1,.267.467,1.054,1.054,0,0,1,.093.407.9.9,0,0,1-.14.473,2.268,2.268,0,0,1-.373.473l-.507.527a.357.357,0,0,0-.107.267.605.605,0,0,0,.02.153c.02.053.04.093.053.133a5.532,5.532,0,0,0,.62.853c.3.347.62.7.967,1.053C6.06,7.713,6.293,7.94,6.527,8.14Z" transform="translate(1.333 1.333)" fill="#a6b2c4" opacity="0.4"/>
      <path id="Vector-2" data-name="Vector" d="M8.247,2.86a1.693,1.693,0,0,1-.1.567,1.628,1.628,0,0,1-.067.16,2.751,2.751,0,0,1-.453.68,3.006,3.006,0,0,1-1.093.787c-.007,0-.013.007-.02.007a3.368,3.368,0,0,1-1.28.247A5.556,5.556,0,0,1,3.06,4.82,11.709,11.709,0,0,1,.767,3.5C.507,3.307.247,3.113,0,2.907L2.18.727a3.746,3.746,0,0,0,.493.32c.033.013.073.033.12.053a.46.46,0,0,0,.167.027.367.367,0,0,0,.273-.113l.507-.5A2.045,2.045,0,0,1,4.22.14.888.888,0,0,1,4.693,0,1.064,1.064,0,0,1,5.1.087a2.578,2.578,0,0,1,.467.26L7.773,1.913a1.011,1.011,0,0,1,.367.427A1.368,1.368,0,0,1,8.247,2.86Z" transform="translate(6.4 9.36)" fill="#a6b2c4"/>
      <path id="Vector-3" data-name="Vector" d="M0,0H16V16H0Z" fill="none" opacity="0"/>
    </g>
  </g>
</svg>