<svg id="dashboard" xmlns="http://www.w3.org/2000/svg" width="18" height="18" viewBox="0 0 18 18">
  <rect id="Rectangle_4018" data-name="Rectangle 4018" width="1.125" height="2.813" transform="translate(13.5 11.813)" fill="#909fb4"/>
  <rect id="Rectangle_4019" data-name="Rectangle 4019" width="1.125" height="5.625" transform="translate(11.25 9)" fill="#909fb4"/>
  <path id="Path_11373" data-name="Path 11373" d="M8.813,21.625A2.816,2.816,0,0,1,6,18.813H7.125a1.688,1.688,0,1,0,1.688-1.687V16a2.813,2.813,0,0,1,0,5.625Z" transform="translate(-2.625 -7)" fill="#909fb4"/>
  <path id="Path_11374" data-name="Path 11374" d="M16.625,2H3.125A1.126,1.126,0,0,0,2,3.125v13.5A1.126,1.126,0,0,0,3.125,17.75h13.5a1.127,1.127,0,0,0,1.125-1.125V3.125A1.126,1.126,0,0,0,16.625,2Zm0,5.063H8.75V3.125h7.875Zm-9-3.937V7.063h-4.5V3.125Zm-4.5,13.5V8.188h13.5v8.438Z" transform="translate(-0.875 -0.875)" fill="#909fb4"/>
  <rect id="_Transparent_Rectangle_" data-name="&lt;Transparent Rectangle&gt;" width="18" height="18" fill="none"/>
</svg>
