<svg id="education" xmlns="http://www.w3.org/2000/svg" width="32" height="32" viewBox="0 0 32 32">
  <path id="Path_11429" data-name="Path 11429" d="M26,30H24V27a5.006,5.006,0,0,0-5-5H13a5.006,5.006,0,0,0-5,5v3H6V27a7.008,7.008,0,0,1,7-7h6a7.008,7.008,0,0,1,7,7Z" fill="#98939e"/>
  <path id="Path_11430" data-name="Path 11430" d="M5,6A1,1,0,0,0,4,7v9H6V7A1,1,0,0,0,5,6Z" fill="#98939e"/>
  <path id="Path_11431" data-name="Path 11431" d="M4,2V4H9v7a7,7,0,0,0,14,0V4h5V2Zm7,2H21V7H11Zm5,12a5,5,0,0,1-5-5V9H21v2A5,5,0,0,1,16,16Z" fill="#98939e"/>
  <rect id="_Transparent_Rectangle_" data-name="&lt;Transparent Rectangle&gt;" width="32" height="32" fill="none"/>
</svg>
