<svg xmlns="http://www.w3.org/2000/svg" width="32.963" height="19.943" viewBox="0 0 32.963 19.943">
  <g id="Group_2541" data-name="Group 2541" transform="translate(-13346.161 -2221.943)">
    <path id="Path_11121" data-name="Path 11121" d="M384,324.743h29.153a1.9,1.9,0,0,0,1.9-1.9V306.7a1.9,1.9,0,0,0-1.9-1.9H384a1.9,1.9,0,0,0-1.9,1.9v16.136A1.905,1.905,0,0,0,384,324.743Z" transform="translate(12964.063 1917.143)" fill="#ffbe55"/>
    <path id="Path_11122" data-name="Path 11122" d="M0,0H32.963V4.652H0Z" transform="translate(13379.124 2229.293) rotate(180)" fill="#0e538c"/>
    <path id="Path_11123" data-name="Path 11123" d="M0,0H23.192V1.155H0Z" transform="translate(13370.943 2233.146) rotate(180)" fill="#f7f7f7"/>
    <path id="Path_11124" data-name="Path 11124" d="M0,0H17.028V.873H0Z" transform="translate(13364.78 2234.984) rotate(180)" fill="#f7f7f7"/>
    <path id="Path_11125" data-name="Path 11125" d="M0,0H17.028V.873H0Z" transform="translate(13364.78 2236.823) rotate(180)" fill="#f7f7f7"/>
  </g>
</svg>
