<svg id="google" xmlns="http://www.w3.org/2000/svg" width="19.196" height="19.588" viewBox="0 0 19.196 19.588">
  <path id="Path_41" data-name="Path 41" d="M139.952,108.763a8.393,8.393,0,0,0-.207-2h-9.2V110.4h5.4a4.786,4.786,0,0,1-2,3.178l-.018.122,2.907,2.252.2.02a9.576,9.576,0,0,0,2.916-7.2" transform="translate(-120.756 -98.752)" fill="#4285f4"/>
  <path id="Path_42" data-name="Path 42" d="M22.674,164.227a9.335,9.335,0,0,0,6.486-2.372l-3.091-2.394a5.8,5.8,0,0,1-3.4.979,5.9,5.9,0,0,1-5.572-4.07l-.115.01-3.023,2.34-.04.11a9.787,9.787,0,0,0,8.749,5.4" transform="translate(-12.88 -144.639)" fill="#34a853"/>
  <path id="Path_43" data-name="Path 43" d="M4.222,77.693A6.03,6.03,0,0,1,3.9,75.756a6.336,6.336,0,0,1,.316-1.937l-.005-.13L1.145,71.312l-.1.048a9.773,9.773,0,0,0,0,8.793l3.178-2.459" transform="translate(0 -65.962)" fill="#fbbc05"/>
  <path id="Path_44" data-name="Path 44" d="M22.674,3.787a5.428,5.428,0,0,1,3.787,1.458l2.764-2.7A9.41,9.41,0,0,0,22.674,0a9.787,9.787,0,0,0-8.749,5.4l3.167,2.459a5.92,5.92,0,0,1,5.583-4.07" transform="translate(-12.88 0)" fill="#eb4335"/>
</svg>
