<svg id="Group_12293" data-name="Group 12293" xmlns="http://www.w3.org/2000/svg" xmlns:xlink="http://www.w3.org/1999/xlink" width="111.639" height="117.142" viewBox="0 0 111.639 117.142">
  <defs>
    <clipPath id="clip-path">
      <rect id="Rectangle_4317" data-name="Rectangle 4317" width="111.639" height="117.142" fill="none"/>
    </clipPath>
  </defs>
  <g id="Group_12292" data-name="Group 12292" clip-path="url(#clip-path)">
    <path id="Path_12305" data-name="Path 12305" d="M111.64,61.322A55.82,55.82,0,1,1,55.82,5.5a55.821,55.821,0,0,1,55.82,55.82" fill="#fce8e3"/>
    <path id="Path_12306" data-name="Path 12306" d="M72.305,74.188c0,1.306-7.458,2.365-16.659,2.365s-16.658-1.059-16.658-2.365,7.458-2.365,16.658-2.365,16.659,1.059,16.659,2.365" fill="#94a5e4"/>
    <rect id="Rectangle_4316" data-name="Rectangle 4316" width="29.533" height="33.358" transform="translate(41.053 53.97)" fill="#e2988f"/>
    <path id="Path_12307" data-name="Path 12307" d="M85.637,32.35c-1.679-4.016-5.111-2.044-5.111-2.044C82.508,12.05,73.225,0,55.82,0S29.132,12.05,31.114,30.306c0,0-3.432-1.972-5.111,2.044s1.387,13.434,3.285,16.428a21.088,21.088,0,0,0,5.257,5.256,24.149,24.149,0,0,0,1.1,5.7c.877,2.336,10.806,13.079,13.727,14.721,3.829,2.254,9.469,2.254,12.906,0C65.194,72.809,75.123,62.066,76,59.73a24.174,24.174,0,0,0,1.1-5.7,21.075,21.075,0,0,0,5.256-5.256c1.9-2.994,4.965-12.412,3.286-16.428" fill="#e2988f"/>
    <path id="Path_12308" data-name="Path 12308" d="M28.257,41.375c-.162-.591-1.527-5.816.354-7.243a1.626,1.626,0,0,1,1.446-.258A2.935,2.935,0,0,1,31.542,35.5l-.7.269c-.1-.271-.494-1.015-1.019-1.184a.893.893,0,0,0-.782.159c-1.093.83-.621,4.388-.061,6.432Z" fill="#c46966"/>
    <path id="Path_12309" data-name="Path 12309" d="M83.383,41.375l-.723-.2c.4-1.471,1.171-5.5-.084-6.448a.878.878,0,0,0-.76-.143c-.525.169-.913.913-1.019,1.184l-.7-.269a2.938,2.938,0,0,1,1.486-1.627,1.616,1.616,0,0,1,1.424.242c1.9,1.443.538,6.668.376,7.259" fill="#c46966"/>
    <path id="Path_12310" data-name="Path 12310" d="M55.82,0C38.414,0,29.132,12.05,31.113,30.306c2.3,1.5,2.829,5.568,2.467,9.6,0,0-.766,12.832,1.756,18.886s6.915,15.51,20.479,15.4h.005c13.563.115,17.957-9.342,20.478-15.4s1.756-18.886,1.756-18.886h0c-.358-3.854-.368-8.077,2.467-9.6l0,0C82.506,12.048,73.224,0,55.82,0M74.865,28.049S74.529,44.8,71.941,48.471,70.158,44,55.82,43.859,42.281,52.14,39.693,48.471s-2.922-20.347-2.924-20.419c.169-3.7.532-7.237,2.123-8.822,2.059-2.049,5.067-1.716,7.643-1.059,3,.766,6.1,1.8,9.273,1.884,3.354.088,6.535-1.141,9.751-1.92,2.5-.6,5.21-.872,7.186,1.095,1.593,1.586,1.955,5.123,2.123,8.83Z" fill="#4c224b"/>
    <path id="Path_12311" data-name="Path 12311" d="M106.331,85.088c-13.991-3.393-34.026-4.3-34.026-4.3-10.345,8.22-24.175,8.335-33.318,0,0,0-19.674,1.281-33.552,4.578a55.831,55.831,0,0,0,100.9-.281" fill="#94a5e4"/>
    <path id="Path_12312" data-name="Path 12312" d="M38.987,74.188v8.353c11.824,8.722,22.94,8.844,33.317,0V74.188c-5.882,3.812-29.552,3.294-33.317,0" fill="#94a5e4"/>
    <path id="Path_12313" data-name="Path 12313" d="M55.252,85.909c-1.615,0-3.229-.069-4.788-.206-3.091-.273-10.431-1.26-11.822-4.546l.691-.292c.855,2.019,5.041,3.548,11.2,4.091,8.538.748,19.167-.621,21.46-4.149l.629.408c-2.045,3.148-9.719,4.694-17.367,4.694" fill="#6c82bc"/>
    <path id="Path_12314" data-name="Path 12314" d="M55.309,78.961a82.185,82.185,0,0,1-8.388-.4c-4.237-.45-6.769-1.193-7.528-2.209l.6-.449c.284.382,1.537,1.332,7.005,1.913,8.683.923,21.891.18,24.352-1.971l.494.565c-2.057,1.8-9.512,2.547-16.537,2.547" fill="#6c82bc"/>
  </g>
</svg>
