<svg xmlns="http://www.w3.org/2000/svg" xmlns:xlink="http://www.w3.org/1999/xlink" width="273.1" height="189.331" viewBox="0 0 273.1 189.331">
  <defs>
    <clipPath id="clip-path">
      <rect id="Rectangle_4063" data-name="Rectangle 4063" width="250.266" height="150.793" fill="none"/>
    </clipPath>
    <clipPath id="clip-path-3">
      <rect id="Rectangle_4051" data-name="Rectangle 4051" width="21.637" height="7.098" fill="none"/>
    </clipPath>
    <clipPath id="clip-path-4">
      <rect id="Rectangle_4052" data-name="Rectangle 4052" width="7.661" height="28.963" fill="none"/>
    </clipPath>
    <clipPath id="clip-path-5">
      <rect id="Rectangle_4053" data-name="Rectangle 4053" width="7.608" height="24.865" fill="none"/>
    </clipPath>
    <clipPath id="clip-path-6">
      <rect id="Rectangle_4054" data-name="Rectangle 4054" width="5.424" height="5.647" fill="none"/>
    </clipPath>
    <clipPath id="clip-path-7">
      <rect id="Rectangle_4057" data-name="Rectangle 4057" width="12.602" height="82.087" fill="none"/>
    </clipPath>
    <clipPath id="clip-path-8">
      <rect id="Rectangle_4059" data-name="Rectangle 4059" width="1.001" height="2.523" fill="none"/>
    </clipPath>
    <clipPath id="clip-path-9">
      <rect id="Rectangle_4060" data-name="Rectangle 4060" width="2.497" height="2.497" fill="none"/>
    </clipPath>
    <clipPath id="clip-path-10">
      <rect id="Rectangle_4061" data-name="Rectangle 4061" width="2.168" height="5.459" fill="none"/>
    </clipPath>
  </defs>
  <g id="Group_2870" data-name="Group 2870" transform="translate(-331 -719.446)" opacity="0.77">
    <path id="Path_11636" data-name="Path 11636" d="M260.435,35.873a71.444,71.444,0,0,0-26.179-20.75C220.284,8.6,198.192-.264,181.774.007,155.88.433,97.6,29.659,67.156,35.219S-8.063,61.535,1.25,103.79s34.027,54.857,81.308,49.3S146.672,141.968,185,149.01s82.382,2.224,87.039-48.185c3.409-36.907-1.63-52.157-11.6-64.952" transform="translate(331 754.451)" fill="#7eb0f3" opacity="0.24"/>
    <g id="Group_2869" data-name="Group 2869" transform="translate(340.985 719.446)">
      <g id="Group_2868" data-name="Group 2868" clip-path="url(#clip-path)">
        <g id="Group_2867" data-name="Group 2867" transform="translate(0 0)">
          <g id="Group_2866" data-name="Group 2866" clip-path="url(#clip-path)">
            <path id="Path_11378" data-name="Path 11378" d="M364.065,520.772c12.124,21.7-5.42,64.263-116.684,34.68-55.786-14.833-97.456,18.581-106.043-4.742-20-54.327,61.682-117.171,107.105-73.3C289.962,517.518,342,481.285,364.065,520.772Z" transform="translate(-124.861 -417.889)" fill="none" stroke="#e4e4e4" stroke-width="4" stroke-dasharray="32.088 32.088"/>
            <path id="Path_11379" data-name="Path 11379" d="M347.76,688.271H120.895c7.1-52.456,55.173-93.031,113.432-93.031S340.66,635.815,347.76,688.271" transform="translate(-109.195 -537.631)" fill="#f6f5f5"/>
            <path id="Path_11380" data-name="Path 11380" d="M1295.939,275.144h-85.331a7.193,7.193,0,0,1-7.193-7.193V145.55a7.193,7.193,0,0,1,7.193-7.193h85.331a7.193,7.193,0,0,1,7.193,7.193v122.4a7.193,7.193,0,0,1-7.193,7.193" transform="translate(-1086.946 -124.966)" fill="#a9bae6"/>
            <rect id="Rectangle_4030" data-name="Rectangle 4030" width="82.075" height="119.224" transform="translate(125.481 18.903)" fill="#f6f5f5"/>
            <path id="Path_11381" data-name="Path 11381" d="M1378.6,195.323c.026,46.491,1.526,102.561-3.7,114.975-23,2.241-49.935,2.96-78.38,3.094l10.813-117.71Z" transform="translate(-1171.044 -176.419)" fill="#e4e4e4"/>
            <path id="Path_11382" data-name="Path 11382" d="M1328.826,306.592c-35.852,5.738-59.814,6.04-79.248,4.6,2.519-26.809,3.528-71.346,4.544-115.81l43.2.1,39.1,2.581c.57,46.15.632,88.78-7.6,108.536" transform="translate(-1128.641 -176.469)" fill="#fff"/>
            <rect id="Rectangle_4031" data-name="Rectangle 4031" width="6.578" height="43.188" transform="translate(144.185 36.475) rotate(-88.652)" fill="#708cd5"/>
            <rect id="Rectangle_4032" data-name="Rectangle 4032" width="3.011" height="38.956" transform="translate(156.824 49.102) rotate(-88.652)" fill="#708cd5"/>
            <rect id="Rectangle_4033" data-name="Rectangle 4033" width="3.011" height="26.479" transform="translate(156.67 55.666) rotate(-88.652)" fill="#d3dfff"/>
            <rect id="Rectangle_4034" data-name="Rectangle 4034" width="9.222" height="9.222" transform="translate(135.187 54.983) rotate(-88.652)" fill="#fff"/>
            <rect id="Rectangle_4035" data-name="Rectangle 4035" width="9.222" height="9.222" transform="translate(135.187 54.983) rotate(-88.652)" fill="none" stroke="#708cd5" stroke-width="6"/>
            <path id="Path_11383" data-name="Path 11383" d="M1414.416,446.986c.285,1.09.81,5.654,3.1,4.378a6.961,6.961,0,0,0,1.368-1.52l2.127-2.414,4.253-4.829c.363-.412-1.241-1.447-1.7-.929l-3.781,4.292-1.89,2.146c-.437.5-1.448,2.1-2.1,2.24l1.058.342c.249.2-.214-1.246-.224-1.285l-.527-2.02c-.145-.556-1.9-1.225-1.685-.4" transform="translate(-1277.509 -398.797)" fill="#ee6f57"/>
            <rect id="Rectangle_4036" data-name="Rectangle 4036" width="3.011" height="32.079" transform="translate(156.43 65.864) rotate(-88.652)" fill="#708cd5"/>
            <rect id="Rectangle_4037" data-name="Rectangle 4037" width="3.011" height="38.956" transform="translate(156.275 72.427) rotate(-88.652)" fill="#d3dfff"/>
            <rect id="Rectangle_4038" data-name="Rectangle 4038" width="9.222" height="9.222" transform="translate(134.792 71.745) rotate(-88.652)" fill="#fff"/>
            <rect id="Rectangle_4039" data-name="Rectangle 4039" width="9.222" height="9.222" transform="translate(134.792 71.745) rotate(-88.652)" fill="none" stroke="#708cd5" stroke-width="6"/>
            <path id="Path_11384" data-name="Path 11384" d="M1410.276,622.864c.285,1.09.81,5.654,3.1,4.378a6.97,6.97,0,0,0,1.368-1.52l2.126-2.414,4.253-4.829c.363-.413-1.241-1.447-1.7-.929l-3.78,4.292-1.891,2.146c-.437.5-1.448,2.1-2.1,2.24l1.058.342c.249.2-.214-1.245-.224-1.285l-.527-2.02c-.145-.556-1.9-1.225-1.685-.4" transform="translate(-1273.771 -557.654)" fill="#ee6f57"/>
            <rect id="Rectangle_4040" data-name="Rectangle 4040" width="3.011" height="38.956" transform="translate(156.035 82.626) rotate(-88.652)" fill="#708cd5"/>
            <rect id="Rectangle_4041" data-name="Rectangle 4041" width="3.011" height="17.422" transform="translate(155.881 89.189) rotate(-88.652)" fill="#d3dfff"/>
            <rect id="Rectangle_4042" data-name="Rectangle 4042" width="9.222" height="9.222" transform="translate(134.398 88.506) rotate(-88.652)" fill="#fff"/>
            <rect id="Rectangle_4043" data-name="Rectangle 4043" width="9.222" height="9.222" transform="translate(134.398 88.506) rotate(-88.652)" fill="none" stroke="#708cd5" stroke-width="6"/>
            <path id="Path_11385" data-name="Path 11385" d="M1407.492,797.286c.285,1.09.81,5.654,3.1,4.378a6.953,6.953,0,0,0,1.368-1.52l2.127-2.414,4.253-4.829c.363-.412-1.241-1.447-1.7-.929l-3.781,4.292-1.89,2.146c-.437.5-1.448,2.1-2.1,2.24l1.058.342c.249.2-.214-1.245-.224-1.285l-.527-2.02c-.145-.556-1.9-1.225-1.685-.4" transform="translate(-1271.256 -715.195)" fill="#ee6f57"/>
            <rect id="Rectangle_4044" data-name="Rectangle 4044" width="3.011" height="38.956" transform="translate(155.641 99.387) rotate(-88.652)" fill="#708cd5"/>
            <rect id="Rectangle_4045" data-name="Rectangle 4045" width="3.011" height="30.774" transform="translate(155.486 105.951) rotate(-88.652)" fill="#d3dfff"/>
            <rect id="Rectangle_4046" data-name="Rectangle 4046" width="9.222" height="9.222" transform="translate(134.003 105.268) rotate(-88.652)" fill="#fff"/>
            <rect id="Rectangle_4047" data-name="Rectangle 4047" width="9.222" height="9.222" transform="translate(134.003 105.268) rotate(-88.652)" fill="none" stroke="#708cd5" stroke-width="6"/>
            <path id="Path_11386" data-name="Path 11386" d="M1403.443,969.341c.285,1.09.81,5.655,3.1,4.378a6.953,6.953,0,0,0,1.368-1.52l2.127-2.414,4.253-4.829c.363-.413-1.241-1.447-1.7-.929l-3.781,4.292-1.89,2.146c-.437.5-1.448,2.1-2.1,2.24l1.058.342c.249.2-.214-1.245-.224-1.285l-.527-2.02c-.145-.556-1.9-1.225-1.685-.4" transform="translate(-1267.599 -870.598)" fill="#ee6f57"/>
            <rect id="Rectangle_4048" data-name="Rectangle 4048" width="3.011" height="15.442" transform="matrix(0.024, -1, 1, 0.024, 155.249, 116.022)" fill="#708cd5"/>
            <path id="Path_11387" data-name="Path 11387" d="M1641.532,1236.428l-38.945-.917-.071,3.01c15.067.354,34.252,1.059,38.167.459a3.381,3.381,0,0,0,.849-2.552" transform="translate(-1447.422 -1115.936)" fill="#d3dfff"/>
            <rect id="Rectangle_4049" data-name="Rectangle 4049" width="9.222" height="9.222" transform="translate(133.741 121.906) rotate(-88.652)" fill="#fff"/>
            <rect id="Rectangle_4050" data-name="Rectangle 4050" width="9.222" height="9.222" transform="translate(133.741 121.906) rotate(-88.652)" fill="none" stroke="#708cd5" stroke-width="6"/>
            <path id="Path_11388" data-name="Path 11388" d="M1399.429,1139.889c.285,1.09.81,5.654,3.1,4.378a6.968,6.968,0,0,0,1.368-1.52l2.126-2.414,4.253-4.829c.363-.412-1.241-1.447-1.7-.929l-3.781,4.292-1.89,2.146c-.437.5-1.448,2.1-2.1,2.24l1.058.342c.249.2-.214-1.245-.224-1.285l-.528-2.02c-.145-.556-1.9-1.225-1.685-.4" transform="translate(-1263.974 -1024.64)" fill="#ee6f57"/>
            <path id="Path_11389" data-name="Path 11389" d="M1564.545,14.215v9.2h-36.97v-9.2a5.311,5.311,0,0,1,1.556-3.759,4.383,4.383,0,0,1,.375-.337A5.277,5.277,0,0,1,1532.89,8.9a6.26,6.26,0,0,0,2.718-.619,6.512,6.512,0,0,0,1.022-.616,6.254,6.254,0,0,0,2.268-3.217A6.283,6.283,0,0,1,1544.906,0h2.307a6.283,6.283,0,0,1,6.008,4.452,6.259,6.259,0,0,0,2.269,3.217,6.519,6.519,0,0,0,1.022.616,6.259,6.259,0,0,0,2.718.619,5.322,5.322,0,0,1,5.315,5.315" transform="translate(-1379.733 0.004)" fill="#ee6f57"/>
            <path id="Path_11390" data-name="Path 11390" d="M1539.546,195.316v6.841h-42.971v-6.841h3v4.518h36.97v-4.518Z" transform="translate(-1351.734 -176.412)" fill="#e4e4e4"/>
            <path id="Path_11391" data-name="Path 11391" d="M1691.256,27.9a3.283,3.283,0,1,1-3.279-3.117,3.2,3.2,0,0,1,3.279,3.117" transform="translate(-1521.65 -22.387)" fill="#fff"/>
            <path id="Path_11392" data-name="Path 11392" d="M957.795,394.227c-1.311-.248-2.537-2.439-2.963-3.279a1.043,1.043,0,0,1-.094-.667l.522-2.766s1.2.2,1.111,1.808a1.181,1.181,0,0,0,.084.488l.461,1.206,1.363-1.055-.747-2.11a3.628,3.628,0,0,1-1.517.11c-1.06-.338.33-1.165.769-1.253s1.407-.44,1.846.308.7,1.187.7,1.187a16.548,16.548,0,0,0,.154-5.408c-.015-.168.406-.164.525-.044.354.36.918,1.457.948,4.792,0,0,.059-3.887.725-4.286.549-.33.827,1.573.44,4.8,0,0,.717-2.793,1.231-2.8.866-.008.011,7.46-2.166,9.686Z" transform="translate(-862.32 -345.63)" fill="#f9b384"/>
            <path id="Path_11393" data-name="Path 11393" d="M970.233,490.316q-.058.557-.128,1.08v0a31.4,31.4,0,0,1-.573,3.294c-.012.046-.019.089-.031.132-.662,2.714-.782,4.042-3.043,3.685l-2.327-2.648-.023-.027-.17-.194.472-1.394.062-.182.348-1.014.043-.132.6-1.746.24-.708Z" transform="translate(-870.646 -442.862)" fill="#f9b384"/>
            <path id="Path_11394" data-name="Path 11394" d="M515.417,1486.578l-.592,1.851c-4.061,1.334-6.429,2.862-6.581,4.646h11.743l.941-6.2a9.11,9.11,0,0,1-5.511-.3" transform="translate(-459.055 -1342.704)" fill="#1f3c88"/>
            <path id="Path_11395" data-name="Path 11395" d="M583.837,1439.036l-1.472,4.6a9.109,9.109,0,0,0,5.511.3l.607-4Z" transform="translate(-526.003 -1299.763)" fill="#f9b384"/>
            <path id="Path_11396" data-name="Path 11396" d="M753.936,1440.721l.345-4.686-5.517.29-.3,4.32a9.025,9.025,0,0,0,5.473.076" transform="translate(-676.025 -1297.052)" fill="#f9b384"/>
            <path id="Path_11397" data-name="Path 11397" d="M756.16,1490.451c-.152-1.783-2.226-4.226-6.775-4.807l.139-1.895a9.025,9.025,0,0,1-5.473-.076l-.473,6.777Z" transform="translate(-671.613 -1340.081)" fill="#1f3c88"/>
            <path id="Path_11398" data-name="Path 11398" d="M696.713,421.055l-6.655.047V411.036h6.453l0,.616.031,3.19.046,5.122Z" transform="translate(-623.273 -371.255)" fill="#f9b384"/>
            <path id="Path_11399" data-name="Path 11399" d="M704.531,425.586c-1.2,1.258-4.316-.163-5.633-1.549l5.6-1.641Z" transform="translate(-631.257 -381.515)" fill="#e28b6d"/>
            <path id="Path_11400" data-name="Path 11400" d="M674.78,324.461a14.4,14.4,0,0,1-.174,2.265c-.325,2.029-1.185,3.782-3.167,3.836-4.684.136-6.02-2.543-6.9-4.735s.55-7.472.55-7.472l6.062-.6,3.329,2.729a24.828,24.828,0,0,1,.3,3.976" transform="translate(-599.962 -287.003)" fill="#f9b384"/>
            <path id="Path_11401" data-name="Path 11401" d="M637.243,287.313s1.336-.062,1.565-3.511a4.723,4.723,0,0,0,5.519-1.521,3.2,3.2,0,0,0,5.6-1.145c.807-2.307-1.419-5.742-4.662-3.662-3.177-1.605-8-1.5-9.384,2.443,0,0-4.821,2.223.284,7.117a5.9,5.9,0,0,0,1.076.278" transform="translate(-572.48 -249.742)" fill="#102048"/>
            <path id="Path_11402" data-name="Path 11402" d="M744.569,888.336l-3.678,55.621h-8.646l2.161-53.972,1.323-.613Z" transform="translate(-661.377 -802.36)" fill="#102048"/>
            <path id="Path_11403" data-name="Path 11403" d="M570.309,771.165,564.244,834.4h9.42l8.968-52.52,10.194-3.1.452-11.227-22.711-.516Z" transform="translate(-509.635 -692.8)" fill="#1f3c88"/>
            <g id="Group_2844" data-name="Group 2844" transform="translate(60.113 72.104)" opacity="0.6">
              <g id="Group_2843" data-name="Group 2843">
                <g id="Group_2842" data-name="Group 2842" clip-path="url(#clip-path-3)">
                  <path id="Path_11404" data-name="Path 11404" d="M623.031,751.413c5.145,1.847,17.217-.264,19.724-2.837l-1.781-3.562-19.856,2.639Z" transform="translate(-621.118 -745.014)" fill="#102048"/>
                </g>
              </g>
            </g>
            <path id="Path_11405" data-name="Path 11405" d="M671.213,506.579c-.167.07-.337.143-.511.209a34.946,34.946,0,0,1-6.45,1.92,29.582,29.582,0,0,1-4.324.53,24.984,24.984,0,0,1-6.79-.55l2.884-26.89.352-3.279s3.774,4.646,7.936-.484Z" transform="translate(-589.926 -431.77)" fill="#fff"/>
            <g id="Group_2847" data-name="Group 2847" transform="translate(63.212 48.54)" opacity="0.3">
              <g id="Group_2846" data-name="Group 2846">
                <g id="Group_2845" data-name="Group 2845" clip-path="url(#clip-path-4)">
                  <path id="Path_11406" data-name="Path 11406" d="M659.928,530.464a24.989,24.989,0,0,1-6.79-.55l2.884-26.89,1.03-1.488c2.543,6.186,5.149,19.885,2.876,28.928" transform="translate(-653.138 -501.536)" fill="#1f3c88"/>
                </g>
              </g>
            </g>
            <path id="Path_11407" data-name="Path 11407" d="M391.264,472.036c2.867,12.175,4.048,24.7-.177,38.616a15.818,15.818,0,0,1-10.194.129l.9-25.292L360.535,500.1l-1.29-7.968c8.172-7.814,22.3-19.62,32.019-20.1" transform="translate(-324.477 -426.351)" fill="#708cd5"/>
            <g id="Group_2850" data-name="Group 2850" transform="translate(73.168 52.073)" opacity="0.3">
              <g id="Group_2849" data-name="Group 2849">
                <g id="Group_2848" data-name="Group 2848" clip-path="url(#clip-path-5)">
                  <path id="Path_11408" data-name="Path 11408" d="M763.617,560.981a34.944,34.944,0,0,1-6.45,1.92c-1.281-7.348-1.564-19.418-.523-24.865Z" transform="translate(-756.01 -538.036)" fill="#1f3c88"/>
                </g>
              </g>
            </g>
            <g id="Group_2853" data-name="Group 2853" transform="translate(93.462 50.06)" opacity="0.6">
              <g id="Group_2852" data-name="Group 2852">
                <g id="Group_2851" data-name="Group 2851" clip-path="url(#clip-path-6)">
                  <path id="Path_11409" data-name="Path 11409" d="M971.122,519.009c-.012.047-.019.089-.031.132-.662,2.714-.782,4.042-3.043,3.685l-2.327-2.648-.023-.027.3-1.587.062-.182.348-1.014.043-.132Z" transform="translate(-965.698 -517.236)" fill="#e28b6d"/>
                </g>
              </g>
            </g>
            <path id="Path_11410" data-name="Path 11410" d="M782.064,479.295s-5.71,12.1-9.1,12.388c-3.284.281-4.839-2.9-4.839-2.9l2.323,17.68a14.824,14.824,0,0,1-9.163,1.289c-3.07-9.969-4.23-22.858-4.459-37.213,2.485.155,7.408.367,9.17,1.5,3.162,2.032,7.065,9.291,7.065,9.291l4.549-6.194Z" transform="translate(-683.581 -424.996)" fill="#708cd5"/>
            <path id="Path_11411" data-name="Path 11411" d="M298.319,333.361s.346-5.787.935-5.514,1.77,5.305,1.77,5.305l-1.263,2.038Z" transform="translate(-269.447 -296.108)" fill="#6f3428"/>
            <path id="Path_11412" data-name="Path 11412" d="M359.668,1464.7l.171,1.9a6.113,6.113,0,0,1-5.541,6.635l-.49.044a6.113,6.113,0,0,1-6.635-5.541l-.171-1.9Z" transform="translate(-313.418 -1322.946)" fill="#ee6f57"/>
            <rect id="Rectangle_4055" data-name="Rectangle 4055" width="12.717" height="92.601" transform="translate(25.297 50.666) rotate(-5.134)" fill="#fbc343"/>
            <g id="Group_2856" data-name="Group 2856" transform="translate(28.794 47.625)" opacity="0.3">
              <g id="Group_2855" data-name="Group 2855">
                <g id="Group_2854" data-name="Group 2854" clip-path="url(#clip-path-7)">
                  <rect id="Rectangle_4056" data-name="Rectangle 4056" width="4.516" height="81.168" transform="matrix(0.996, -0.089, 0.089, 0.996, 0.42, 0.825)" fill="none" stroke="#6f3428" stroke-width="8"/>
                </g>
              </g>
            </g>
            <path id="Path_11413" data-name="Path 11413" d="M347.722,1331.87l-12.663,1.138-.333-3.716-.232-2.582-.716-7.936,12.667-1.138.712,7.936.232,2.582Z" transform="translate(-301.474 -1190.112)" fill="#102048"/>
            <rect id="Rectangle_4058" data-name="Rectangle 4058" width="12.714" height="2.593" transform="matrix(0.996, -0.09, 0.09, 0.996, 33.02, 136.598)" fill="#fbc343"/>
            <path id="Path_11414" data-name="Path 11414" d="M261.368,388.448l3.518-14.1a3.024,3.024,0,0,0,2.687-.371l6.461,13.333Z" transform="translate(-236.072 -337.782)" fill="#ee6f57"/>
            <path id="Path_11415" data-name="Path 11415" d="M647.941,376.244c-.057-.208-1-.494-1.21-.551a1.452,1.452,0,0,0-.987.009c-1.143.517-.99,2.153-.4,3.014a2.579,2.579,0,0,0,1.4,1.026c.208.059,2.174.083,2.088-.233l-.89-3.264" transform="translate(-582.476 -339.257)" fill="#f9b384"/>
            <path id="Path_11416" data-name="Path 11416" d="M256.827,710.553a1.721,1.721,0,0,0-2.2-1.136c-1.441.5-2.7,1.342-2.89,2.777-.177,1.308.477,5.484,3.4,6.021l-.238-2.146s1.788-.417,2.146-1.192a8.991,8.991,0,0,0-.216-4.323" transform="translate(-227.35 -640.673)" fill="#f9b384"/>
            <path id="Path_11417" data-name="Path 11417" d="M862.951,573.612c.154.914.284,1.831.41,2.748s.233,1.837.351,2.755l.3,2.761c.088.922.173,1.844.23,2.769l-.15.018c-.158-.914-.288-1.83-.415-2.747l-.345-2.756c-.1-.92-.209-1.839-.294-2.762s-.174-1.844-.235-2.768Z" transform="translate(-779.297 -518.096)" fill="#1f3c88"/>
            <path id="Path_11418" data-name="Path 11418" d="M588.527,572.006c0,1.026-.027,2.052-.058,3.077s-.079,2.049-.117,3.074l-.168,3.072c-.068,1.023-.139,2.047-.238,3.068l-.151-.007c0-1.027.024-2.052.052-3.077l.123-3.074c.059-1.024.1-2.048.173-3.072s.138-2.047.233-3.069Z" transform="translate(-530.907 -516.639)" fill="#1f3c88"/>
            <path id="Path_11419" data-name="Path 11419" d="M715.712,375.924a.608.608,0,0,1-.336.77c-.267.06-.55-.187-.632-.553a.608.608,0,0,1,.336-.77c.267-.06.55.188.632.553" transform="translate(-645.549 -339.034)" fill="#102048"/>
            <path id="Path_11420" data-name="Path 11420" d="M755.565,369.987c-.016.374-.251.668-.524.656s-.483-.324-.467-.7.251-.667.524-.656.483.324.467.7" transform="translate(-681.544 -333.548)" fill="#102048"/>
            <path id="Path_11421" data-name="Path 11421" d="M741.212,379.67a8.791,8.791,0,0,1,.2.927.725.725,0,0,0,.187.322,1.225,1.225,0,0,0,.363.179,1.011,1.011,0,0,1,.459.346.6.6,0,0,1,.047.633,1.2,1.2,0,0,1-.378.383c-.133.089-.261.185-.4.269l-.1-.114c.1-.125.213-.239.32-.359a1.129,1.129,0,0,0,.25-.326c.082-.179-.093-.375-.348-.476a1.35,1.35,0,0,1-.472-.268.943.943,0,0,1-.248-.512c-.064-.359.009-.665-.026-.964Z" transform="translate(-669.343 -342.924)" fill="#e28b6d"/>
            <path id="Path_11422" data-name="Path 11422" d="M705.87,362.933a1.126,1.126,0,0,1,.4-.6,1.2,1.2,0,0,1,.7-.263,1.3,1.3,0,0,1,1.221.686l-.119.094a1.662,1.662,0,0,0-1.083-.4,1.265,1.265,0,0,0-.978.545Z" transform="translate(-637.554 -327.023)" fill="#102048"/>
            <path id="Path_11423" data-name="Path 11423" d="M747.154,358.917a1.165,1.165,0,0,1,.3-.489,1.012,1.012,0,0,1,.55-.272.964.964,0,0,1,1.026.512l-.121.091a1.227,1.227,0,0,0-.849-.222,1.09,1.09,0,0,0-.4.148,2.67,2.67,0,0,0-.376.309Z" transform="translate(-674.843 -323.481)" fill="#102048"/>
            <path id="Path_11424" data-name="Path 11424" d="M725.027,418.409c.676,1.058,1.577,1.173,2.272.059Z" transform="translate(-654.857 -377.914)" fill="#fff"/>
            <g id="Group_2859" data-name="Group 2859" transform="translate(73.835 37.2)" opacity="0.4">
              <g id="Group_2858" data-name="Group 2858">
                <g id="Group_2857" data-name="Group 2857" clip-path="url(#clip-path-8)">
                  <path id="Path_11425" data-name="Path 11425" d="M763.9,384.369a17.855,17.855,0,0,1-.192,2.523,1.166,1.166,0,0,1-.809-1.111,1.49,1.49,0,0,1,1-1.412" transform="translate(-762.898 -384.369)" fill="#fc8879"/>
                </g>
              </g>
            </g>
            <g id="Group_2862" data-name="Group 2862" transform="translate(67.271 38.055)" opacity="0.4">
              <g id="Group_2861" data-name="Group 2861">
                <g id="Group_2860" data-name="Group 2860" clip-path="url(#clip-path-9)">
                  <path id="Path_11426" data-name="Path 11426" d="M697.575,394.451a1.248,1.248,0,1,1-1.248-1.248,1.248,1.248,0,0,1,1.248,1.248" transform="translate(-695.078 -393.203)" fill="#fc8879"/>
                </g>
              </g>
            </g>
            <path id="Path_11427" data-name="Path 11427" d="M654.376,386.6a6.234,6.234,0,0,0-.7-.459.609.609,0,0,0-.308-.08.69.69,0,0,0-.322.148l-.127-.082a.6.6,0,0,1,.368-.4.719.719,0,0,1,.56.065,1.451,1.451,0,0,1,.648.713Z" transform="translate(-589.73 -348.366)" fill="#e28b6d"/>
            <g id="Group_2865" data-name="Group 2865" transform="translate(27.526 74.204)" opacity="0.6">
              <g id="Group_2864" data-name="Group 2864">
                <g id="Group_2863" data-name="Group 2863" clip-path="url(#clip-path-10)">
                  <path id="Path_11428" data-name="Path 11428" d="M286.576,766.709l-1.8,5.459-.371-4.266a3.723,3.723,0,0,0,2.168-1.193" transform="translate(-284.408 -766.709)" fill="#6f3428"/>
                </g>
              </g>
            </g>
            <line id="Line_97" data-name="Line 97" x2="250.266" transform="translate(0 150.406)" fill="none" stroke="#102048" stroke-width="8"/>
          </g>
        </g>
      </g>
    </g>
  </g>
</svg>
