<svg xmlns="http://www.w3.org/2000/svg" xmlns:xlink="http://www.w3.org/1999/xlink" width="52" height="52" viewBox="0 0 52 52">
  <defs>
    <clipPath id="clip-path">
      <circle id="Ellipse_196" data-name="Ellipse 196" cx="26" cy="26" r="26" transform="translate(932 306)" fill="#7c8da6"/>
    </clipPath>
    <clipPath id="clip-path-2">
      <rect id="Rectangle_4292" data-name="Rectangle 4292" width="51.684" height="52" fill="none"/>
    </clipPath>
  </defs>
  <g id="Mask_Group_42" data-name="Mask Group 42" transform="translate(-932 -306)" clip-path="url(#clip-path)">
    <g id="Group_12287" data-name="Group 12287" transform="translate(932 306)">
      <g id="Group_12286" data-name="Group 12286" clip-path="url(#clip-path-2)">
        <path id="Path_12287" data-name="Path 12287" d="M51.685,26.523A25.842,25.842,0,1,1,25.842.681,25.843,25.843,0,0,1,51.685,26.523" transform="translate(0 -0.366)" fill="#6b96e9"/>
        <rect id="Rectangle_4289" data-name="Rectangle 4289" width="13.673" height="15.443" transform="translate(19.07 22.754)" fill="#e2988f"/>
        <path id="Path_12288" data-name="Path 12288" d="M52.423,80.38a65.944,65.944,0,0,0-15.25-4.409c-3.649,3.8-10.447,3.859-13.673,0A65.944,65.944,0,0,0,8.251,80.38a25.848,25.848,0,0,0,44.172,0" transform="translate(-4.431 -40.8)" fill="#fff"/>
        <path id="Path_12289" data-name="Path 12289" d="M73.934,76.523v15.2A25.921,25.921,0,0,0,87.7,80.677a65.042,65.042,0,0,0-13.764-4.154" transform="translate(-39.706 -41.096)" fill="#f4ba5d"/>
        <path id="Path_12290" data-name="Path 12290" d="M21.987,76.534A65.012,65.012,0,0,0,8.251,80.683a25.92,25.92,0,0,0,13.736,11.04Z" transform="translate(-4.431 -41.102)" fill="#f4ba5d"/>
        <path id="Path_12291" data-name="Path 12291" d="M45.907,80.787h-.129A9.438,9.438,0,0,1,37.6,76.515l.295-.183a9.1,9.1,0,0,0,7.883,4.107,9.969,9.969,0,0,0,8.5-4.111l.291.189a10.256,10.256,0,0,1-8.661,4.269" transform="translate(-20.194 -40.992)" fill="#eabfb9"/>
        <path id="Path_12292" data-name="Path 12292" d="M53.562,14.528a1.557,1.557,0,0,0-2.3-.918C52.157,5.412,47.988,0,40.172,0s-11.985,5.412-11.1,13.61a1.557,1.557,0,0,0-2.3.918c-.754,1.8.623,6.033,1.475,7.377a1.723,1.723,0,0,0,2.144.776,26.869,26.869,0,0,0,.708,4.143c.394,1.049,4.853,5.874,6.164,6.611a5.91,5.91,0,0,0,5.8,0c1.311-.737,5.77-5.562,6.164-6.611a27.076,27.076,0,0,0,.7-4.2,1.677,1.677,0,0,0,2.15-.721c.852-1.344,2.23-5.574,1.475-7.377" transform="translate(-14.265)" fill="#e2988f"/>
        <path id="Path_12293" data-name="Path 12293" d="M47.947,68.664a6.118,6.118,0,0,1-3.055-.778A25.885,25.885,0,0,1,40.913,64.1l.257-.232a25.968,25.968,0,0,0,3.894,3.713,5.748,5.748,0,0,0,5.617.006,25.9,25.9,0,0,0,3.9-3.719l.257.232a25.841,25.841,0,0,1-3.982,3.783,5.389,5.389,0,0,1-2.915.776" transform="translate(-21.972 -34.302)" fill="#c46966"/>
        <rect id="Rectangle_4290" data-name="Rectangle 4290" width="0.348" height="1.944" transform="translate(15.746 20.769) rotate(-6.401)" fill="#c46966"/>
        <rect id="Rectangle_4291" data-name="Rectangle 4291" width="1.888" height="0.347" transform="matrix(0.104, -0.995, 0.995, 0.104, 35.498, 22.608)" fill="#c46966"/>
        <path id="Path_12294" data-name="Path 12294" d="M28.882,36.184c-.073-.266-.687-2.616.161-3.258a.739.739,0,0,1,.654-.117,1.3,1.3,0,0,1,.67.734l-.324.125c-.048-.121-.221-.454-.454-.529a.4.4,0,0,0-.346.071c-.488.37-.276,1.966-.026,2.882Z" transform="translate(-15.359 -17.603)" fill="#c46966"/>
        <path id="Path_12295" data-name="Path 12295" d="M80.982,36.184l-.335-.092c.25-.917.462-2.512-.036-2.89a.385.385,0,0,0-.337-.063c-.279.09-.452.524-.453.528l-.325-.125a1.3,1.3,0,0,1,.67-.734.733.733,0,0,1,.644.11c.858.65.244,3,.171,3.265" transform="translate(-42.693 -17.602)" fill="#c46966"/>
        <path id="Path_12296" data-name="Path 12296" d="M32.963,17.921c2.32.012.566-7.474,2.385-9.285.925-.921,14.316-.884,15.2,0,1.82,1.812.066,9.3,2.385,9.285-.16-1.731-.165-3.627,1.108-4.312v0C54.934,5.41,50.766,0,42.95,0s-11.985,5.411-11.1,13.61c1.034.672,1.27,2.5,1.108,4.312" transform="translate(-17.044)" fill="#4c224b"/>
        <path id="Path_12297" data-name="Path 12297" d="M49.319,44.072s-5.494-.121-5.723,3.551H55.042c-.229-3.672-5.723-3.551-5.723-3.551" transform="translate(-23.413 -23.668)" fill="#4c224b"/>
      </g>
    </g>
  </g>
</svg>
