<svg xmlns="http://www.w3.org/2000/svg" width="18" height="15.652" viewBox="0 0 18 15.652">
  <path id="icons8-google-classroom" d="M3.565,5A1.566,1.566,0,0,0,2,6.565V19.087a1.566,1.566,0,0,0,1.565,1.565h14.87A1.566,1.566,0,0,0,20,19.087V6.565A1.566,1.566,0,0,0,18.435,5Zm.391,1.565H18.043a.391.391,0,0,1,.391.391V18.7a.39.39,0,0,1-.391.391H3.957a.391.391,0,0,1-.391-.391V6.957A.392.392,0,0,1,3.957,6.565Zm.391.783V18.3h8.217v-.783h3.522V18.3h1.565V7.348ZM11,10.087a1.174,1.174,0,1,1-1.174,1.174A1.174,1.174,0,0,1,11,10.087ZM7.87,11.652a.783.783,0,1,1-.783.783A.782.782,0,0,1,7.87,11.652Zm6.261,0a.783.783,0,1,1-.783.783A.782.782,0,0,1,14.13,11.652ZM11,13.609a3.752,3.752,0,0,1,1.957.611v1.345H9.043V14.22A3.752,3.752,0,0,1,11,13.609Zm-3.13.648a2.03,2.03,0,0,1,.391.049v1.259H6.3v-.709A2.638,2.638,0,0,1,7.87,14.257Zm6.261,0a2.638,2.638,0,0,1,1.565.6v.709H13.739V14.306A2.03,2.03,0,0,1,14.13,14.257Z" transform="translate(-2 -5)" fill="#7c8db5"/>
</svg>
