<svg xmlns="http://www.w3.org/2000/svg" width="422.016" height="418.2" viewBox="0 0 422.016 418.2">
  <g id="Group_202" data-name="Group 202" transform="translate(2457.417 -673)">
    <path id="Path_3244" data-name="Path 3244" d="M321.981,821.474c2.3-5.382,17.349-41.273,11.511-62.86-.812-3-2.074-7.667-6.114-11.5-8.071-7.652-16.732-2.028-23.173-7.634-8.495-7.393,2-21.149-6.8-41.9-2.111-4.977-5.4-12.727-13.121-16.85-8.624-4.6-13.9.051-22.447-3.566-10.652-4.509-9.118-14.572-18.909-25.047-10.315-11.035-30.909-20.075-46.648-12.243-13.724,6.829-18.553,23.9-18.351,35.706.3,17.448,11.731,32.123,24.007,39.154,17.646,10.107,36.114,3.893,38.27,10.825,2.007,6.454-13.92,12.115-13.544,24.076.263,8.352,8.381,16.8,16.9,19.223,11.814,3.355,19.1-6.379,26.075-2.312,7.312,4.265,2.688,16.945,7.594,28.778,4.046,9.76,15.157,20.347,44.743,26.149" transform="translate(-2594.682 181.627)" fill="#6b96e9"/>
    <path id="Path_3245" data-name="Path 3245" d="M320.238,820.318a.529.529,0,0,1-.1-.01c-24.668-4.838-39.848-13.74-45.121-26.458-2.165-5.223-2.5-10.585-2.8-15.315-.382-6.114-.684-10.942-4.581-13.215-3.15-1.837-6.478-.632-10.331.764-4.379,1.586-9.342,3.384-15.625,1.6-9.269-2.632-17.02-11.471-17.279-19.7-.213-6.768,4.655-11.619,8.567-15.518,3.121-3.11,5.816-5.8,5-8.421-.906-2.913-5.371-3.266-11.551-3.755-7.175-.567-17-1.344-26.482-6.775-10.988-6.294-23.937-20.44-24.266-39.593-.227-13.278,5.447-29.614,18.637-36.177,15.255-7.591,36.006.319,47.255,12.352a47.4,47.4,0,0,1,8.284,12.959c2.536,5.287,4.539,9.463,10.449,11.965,3.927,1.662,7.214,1.527,10.392,1.4,3.648-.15,7.42-.306,12.1,2.19,7.885,4.209,11.175,11.969,13.353,17.1,4.586,10.815,3.989,19.7,3.509,26.846-.447,6.65-.769,11.455,3.152,14.867,2.833,2.466,6.181,2.661,9.726,2.868,4.205.245,8.971.523,13.462,4.781,4.145,3.93,5.416,8.628,6.257,11.737,5.572,20.6-7.419,53.582-11.534,63.2a.516.516,0,0,1-.474.313M264.12,763.339a7.807,7.807,0,0,1,4.041,1.089c4.372,2.55,4.705,7.875,5.091,14.042.291,4.65.62,9.921,2.72,14.985,5.1,12.31,19.89,20.975,43.956,25.76,3.235-7.63,16.851-41.7,11.323-62.137-.811-3-2.037-7.528-5.971-11.259-4.218-4-8.587-4.253-12.813-4.5-3.726-.217-7.245-.422-10.344-3.119-4.307-3.748-3.953-9.029-3.5-15.715.473-7.033,1.061-15.786-3.429-26.374-2.121-5-5.326-12.559-12.889-16.6-4.428-2.364-7.9-2.222-11.568-2.069-3.293.135-6.7.276-10.836-1.477-6.269-2.654-8.451-7.2-10.977-12.469a46.54,46.54,0,0,0-8.108-12.7c-10.99-11.757-31.216-19.51-46.042-12.133-12.787,6.362-18.286,22.281-18.064,35.235.321,18.72,12.993,32.555,23.747,38.715,9.281,5.316,18.973,6.082,26.051,6.642,6.585.521,11.342.9,12.456,4.477,1,3.221-1.9,6.111-5.257,9.458-3.967,3.953-8.463,8.434-8.264,14.755.242,7.684,7.811,16.267,16.53,18.743,5.963,1.693,10.76-.044,14.992-1.577a21.987,21.987,0,0,1,7.162-1.774" transform="translate(-2592.939 183.299)"/>
    <path id="Path_3246" data-name="Path 3246" d="M442.467,945.337a.516.516,0,0,1-.508-.427c-8.481-48.807-37.479-84.572-60.312-105.981-24.76-23.216-47.813-35.029-48.043-35.145a.516.516,0,0,1,.466-.92c.231.117,23.394,11.983,48.259,35.291a219.07,219.07,0,0,1,36.656,44.3,175.064,175.064,0,0,1,23.991,62.276.515.515,0,0,1-.509.6" transform="translate(-2714.566 53.654)"/>
    <path id="Path_3247" data-name="Path 3247" d="M493.84,416.93c33.773-69.819,30.815-100.981,20.117-116.411-3.193-4.606-10.79-13.235-15.06-27.857-5.537-18.965-.1-29.576-.152-45.149-.111-30.461-21.191-60.377-45.245-75.3-16.8-10.424-49.427-22.447-70.3-7.16-8.827,6.464-17.93,19.552-14.5,29.359,4.912,14.034,32.227,7.432,44.456,26.509,6.673,10.409.5,15.332,7.682,26.325,11.312,17.322,31.9,13.158,35.515,25.288,3.5,11.748-15.1,18.716-13.041,33.706,2.349,17.1,27.272,20.321,27.741,36.733.279,9.772-8.5,10.642-9.4,21.948-1.1,13.757,11.3,19.98,22.237,40.889,6.133,11.724,8.464,22.7,9.951,31.118" transform="translate(-2741.288 566.694)" fill="#f4f7fe"/>
    <path id="Path_3248" data-name="Path 3248" d="M492.05,415.623a.528.528,0,0,1-.071,0,.517.517,0,0,1-.437-.421c-1.588-8.99-4.005-19.7-9.9-30.969a126.954,126.954,0,0,0-12.736-19.278c-5.942-7.779-10.235-13.4-9.558-21.891.465-5.818,3.014-9.018,5.264-11.841,2.291-2.877,4.271-5.361,4.137-10.052-.231-8.055-6.527-12.831-13.194-17.888-6.564-4.979-13.353-10.128-14.542-18.789-1.08-7.864,3.43-13.657,7.409-18.768,3.748-4.814,7.289-9.362,5.649-14.861-1.647-5.525-7.161-7.59-13.545-9.981-7.445-2.789-15.884-5.949-21.908-15.172-3.733-5.716-3.932-9.854-4.125-13.857-.185-3.847-.36-7.48-3.56-12.472-6.335-9.883-16.839-12.772-26.106-15.322-8.579-2.36-15.988-4.4-18.4-11.3-3.689-10.539,6.363-23.856,14.679-29.946,21.495-15.742,54.667-2.92,70.879,7.138a102.423,102.423,0,0,1,31.765,31.986c8.925,14.159,13.671,29.288,13.723,43.75a107.677,107.677,0,0,1-1.192,14.648c-1.191,9.2-2.315,17.9,1.323,30.358,3.583,12.27,9.608,20.4,13.208,25.259.687.928,1.281,1.729,1.78,2.449,6.332,9.134,8.589,21.974,6.707,38.164-2.376,20.438-11.388,46.939-26.783,78.766a.516.516,0,0,1-.464.291M405.841,136.452c-8.642,0-17.043,2.006-24.129,7.195-9.335,6.836-17.463,19.78-14.315,28.772,2.235,6.386,9.4,8.358,17.7,10.641,9.446,2.6,20.152,5.544,26.7,15.76,3.349,5.224,3.539,9.166,3.722,12.979.186,3.865.378,7.861,3.958,13.342,5.838,8.94,14.108,12.038,21.405,14.77,6.642,2.488,12.378,4.636,14.172,10.653s-1.908,10.76-5.824,15.79c-4.042,5.192-8.222,10.561-7.2,17.994,1.132,8.238,7.747,13.255,14.144,18.108,6.567,4.981,13.357,10.131,13.6,18.68.145,5.069-2.044,7.816-4.361,10.724-2.263,2.84-4.6,5.777-5.042,11.28-.646,8.1,3.547,13.586,9.349,21.183a127.846,127.846,0,0,1,12.831,19.426,102.137,102.137,0,0,1,9.719,29.7c14.924-31.086,23.669-56.987,26-77,1.853-15.933-.344-28.535-6.529-37.456-.49-.706-1.079-1.5-1.761-2.422-3.641-4.914-9.735-13.137-13.37-25.584-3.7-12.67-2.561-21.467-1.356-30.78a106.905,106.905,0,0,0,1.183-14.512c-.118-32.328-23.41-61.468-45-74.863-10.609-6.582-28.566-14.377-45.6-14.377" transform="translate(-2739.498 568.517)"/>
    <path id="Path_3249" data-name="Path 3249" d="M633.645,460.86a.522.522,0,0,1-.057,0,.516.516,0,0,1-.457-.569c6.6-60.389-.8-125.029-19.784-172.911-13.1-33.043-30.147-53.837-42.14-65.461-12.994-12.595-23.019-17.439-23.119-17.487a.516.516,0,0,1,.443-.932c.1.048,10.246,4.943,23.354,17.638,12.078,11.7,29.243,32.621,42.422,65.862,8.581,21.644,15.067,47.925,18.758,76a408.169,408.169,0,0,1,1.093,97.4.516.516,0,0,1-.512.46" transform="translate(-2880.026 516.046)"/>
    <path id="Path_3250" data-name="Path 3250" d="M423.759,1239.783H393.552v7.947l-115.08-17.113a23.108,23.108,0,0,0-11.314,1.147l-246.219,89.8v-6.782H2.259v17.488h.01A5.148,5.148,0,0,0,6.6,1337.2l167.21,29.709a31.7,31.7,0,0,0,18.62-2.333l228.362-103.429a4.935,4.935,0,0,0,2.893-5.406h.073Z" transform="translate(-2459.159 -276.196)" fill="#737f8b"/>
    <path id="Path_3251" data-name="Path 3251" d="M10.793,1266.823l166.5,29.709a31.441,31.441,0,0,0,18.541-2.333L423.23,1190.771a5.037,5.037,0,0,0-1.341-9.566l-140.376-20.963a22.917,22.917,0,0,0-11.267,1.146L9.911,1256.737a5.244,5.244,0,0,0,.882,10.086" transform="translate(-2462.408 -221.903)" fill="#f4f7fe"/>
    <path id="Path_3252" data-name="Path 3252" d="M181.1,1295.806a32.113,32.113,0,0,1-5.644-.5L8.958,1265.6a5.76,5.76,0,0,1-.969-11.078l260.335-95.349a23.5,23.5,0,0,1,11.52-1.173l140.376,20.964A5.552,5.552,0,0,1,421.7,1189.5L194.3,1292.933a31.823,31.823,0,0,1-13.2,2.872m95.292-137.034a22.465,22.465,0,0,0-7.716,1.365L8.343,1255.485a4.728,4.728,0,0,0,.8,9.094l166.5,29.709a30.8,30.8,0,0,0,18.236-2.294l227.394-103.429a4.521,4.521,0,0,0-1.2-8.586l-140.376-20.963a22.316,22.316,0,0,0-3.3-.244" transform="translate(-2460.662 -220.167)"/>
    <path id="Path_3253" data-name="Path 3253" d="M208.042,1309.964a26.086,26.086,0,0,1-4.567-.4L39.59,1280.317a.516.516,0,0,1-.087-.992l257.84-94.435a17.515,17.515,0,0,1,8.589-.874l137.282,20.5a.516.516,0,0,1,.137.98L218.8,1307.631a25.826,25.826,0,0,1-10.763,2.333m-166.39-30.327,162,28.907a25.059,25.059,0,0,0,4.385.388,24.8,24.8,0,0,0,10.336-2.24L441.337,1205.28,305.78,1185.036a16.473,16.473,0,0,0-8.082.823Z" transform="translate(-2487.631 -240.292)"/>
    <path id="Path_3254" data-name="Path 3254" d="M156.026,349.6c2.493-.137,5.426.528,11.292,1.856,5.285,1.2,6.748,2,7.4,3.386,1.066,2.265-.526,5.057-1,5.894-2.7,4.739-7.649,5.359-10.911,7.525-10.551,7-5.171,18.9-13.92,26.336-8.334,7.085-16.119-1.239-31.1,5.518-11.8,5.32-10.7,12.16-20.316,15.174-11.748,3.682-30.157-1.267-37.622-16.052-7.1-14.059-2.192-32.828,7.4-37.622,8.713-4.355,15.444,5.267,27.088.753,11.48-4.451,12.365-16.774,21.323-16.62,2.142.037,1.694.734,15.8,5.834,6.532,2.362,7.316,2.461,8.026,2.508,7.027.467,8.492-4.048,16.549-4.49" transform="translate(-2500.985 406.265)" fill="#99bbfd"/>
    <path id="Path_3255" data-name="Path 3255" d="M274.063,560.269c5.019,30.734,5.6,31.186,6.279,34.405a135.52,135.52,0,0,1,2.543,17.769c.479,7.566-.944,53-24.428,63.005-8.48,3.613-10.938-3.028-29-2.307-18.505.739-22.257,7.323-30.331,5.016-17.474-4.993-23.182-42.486-22.219-65.654.784-18.87,10.174-36.687,28.956-72.322,2.86-5.427,7.44-13.716,14.816-14.772,3.381-.484,4.733.035,18.31,3.762,14.768,4.054,18.516-.258,24.855,3.736,6.549,4.127,7.7,11.98,10.216,27.361" transform="translate(-2593.82 267.776)" fill="#f4f7fe"/>
    <path id="Path_3256" data-name="Path 3256" d="M200.739,677.408a12.6,12.6,0,0,1-3.505-.51c-10.068-2.877-15.552-15.929-18.379-26.372a139.077,139.077,0,0,1-4.214-39.8c.788-18.987,10.221-36.884,29.015-72.541,2.564-4.864,7.335-13.917,15.2-15.042,3.171-.455,4.518-.082,15.009,2.809l3.511.966a48.439,48.439,0,0,0,15.587,1.869c3.57-.073,6.15-.125,9.407,1.928,6.609,4.165,7.84,11.715,10.294,26.759l.156.956c4.177,25.58,5.267,30.12,5.919,32.832.13.542.242,1.007.356,1.55a137.136,137.136,0,0,1,2.553,17.843A123.975,123.975,0,0,1,278.4,641.4c-4.1,17.194-11.533,28.526-21.5,32.772-4.438,1.89-7.33,1.068-11.333-.071a50.363,50.363,0,0,0-17.845-2.2,60.747,60.747,0,0,0-19.235,3.727c-2.89.985-5.224,1.78-7.753,1.78m20.072-153.39a12.44,12.44,0,0,0-1.809.147c-7.343,1.051-11.955,9.8-14.433,14.5-18.721,35.52-28.118,53.349-28.9,72.1-1,24.168,5.11,60.355,21.846,65.137,3.786,1.082,6.513.152,10.642-1.255a62.43,62.43,0,0,1,19.527-3.781,51.864,51.864,0,0,1,18.169,2.233c3.941,1.122,6.544,1.862,10.646.115,12.2-5.2,18.1-20.3,20.9-32.062a122.762,122.762,0,0,0,3.215-30.436,136.013,136.013,0,0,0-2.532-17.691c-.113-.537-.223-.994-.351-1.526-.655-2.726-1.751-7.289-5.934-32.907l-.156-.956c-2.4-14.737-3.61-22.135-9.826-26.052-3-1.888-5.32-1.841-8.836-1.769a49.389,49.389,0,0,1-15.881-1.906l-3.512-.967c-8.062-2.222-10.628-2.929-12.779-2.929" transform="translate(-2592.065 269.532)"/>
    <path id="Path_3257" data-name="Path 3257" d="M455.542,1457.173v14.863l-7.151-.436-1.408-14.427Z" transform="translate(-2802.253 -451.173)" fill="#f4f7fe"/>
    <path id="Path_3258" data-name="Path 3258" d="M453.8,1470.809h-.031l-7.151-.435a.515.515,0,0,1-.482-.464l-1.407-14.427a.516.516,0,0,1,.513-.566H453.8a.516.516,0,0,1,.516.516v14.862a.516.516,0,0,1-.516.516m-6.68-1.439,6.164.375v-13.8h-7.474Z" transform="translate(-2800.512 -449.431)"/>
    <path id="Path_3259" data-name="Path 3259" d="M439.113,1522.69a48.608,48.608,0,0,0,13.231-.442,3.111,3.111,0,0,0,2.474-3.905c-1.393-4.953-4.143-14.184-6.334-18.606l-1.32,2.411-1.056-2.545a1.1,1.1,0,0,0-.844-.531l-2.742-.256a1.431,1.431,0,0,0-1.359,1.076l-1.806,2.256-1.042-2.68-1.951,19.829a3.1,3.1,0,0,0,2.75,3.394" transform="translate(-2794.049 -483.296)" fill="#6b96e9"/>
    <path id="Path_3260" data-name="Path 3260" d="M442.343,1521.726a47.3,47.3,0,0,1-5.026-.263,3.629,3.629,0,0,1-3.208-3.957l1.951-19.829a.516.516,0,0,1,.994-.136l.717,1.846,1.174-1.467a1.942,1.942,0,0,1,1.882-1.359l2.741.256a1.626,1.626,0,0,1,1.239.779.549.549,0,0,1,.034.068l.643,1.551.8-1.467a.528.528,0,0,1,.463-.268.516.516,0,0,1,.452.287c2.318,4.677,5.226,14.632,6.369,18.7a3.627,3.627,0,0,1-2.883,4.553,49.294,49.294,0,0,1-8.347.71m-5.468-21.8-1.74,17.678a2.594,2.594,0,0,0,2.291,2.83,47.993,47.993,0,0,0,13.088-.438,2.609,2.609,0,0,0,1.762-1.176,2.557,2.557,0,0,0,.3-2.081c-1.065-3.786-3.671-12.721-5.872-17.609l-.833,1.521a.516.516,0,0,1-.929-.05l-1.039-2.5a.591.591,0,0,0-.432-.256l-2.742-.256a.929.929,0,0,0-.8.652.518.518,0,0,1-.105.233l-1.807,2.256a.516.516,0,0,1-.884-.136Z" transform="translate(-2792.307 -481.555)"/>
    <path id="Path_3261" data-name="Path 3261" d="M451.865,1585.716a34,34,0,0,1-7.558-.833.516.516,0,0,1,.251-1,32.214,32.214,0,0,0,13.977,0,.516.516,0,1,1,.263,1,27.471,27.471,0,0,1-6.933.834" transform="translate(-2799.887 -548.913)"/>
    <path id="Path_3262" data-name="Path 3262" d="M465.676,1554.694H459.15a.516.516,0,1,1,0-1.032h6.526a.516.516,0,1,1,0,1.032" transform="translate(-2811.241 -525.612)"/>
    <path id="Path_3263" data-name="Path 3263" d="M224.488,1422.762l-2.114,17.919-6.7-.233v-17.686Z" transform="translate(-2623.802 -424.626)" fill="#f4f7fe"/>
    <path id="Path_3264" data-name="Path 3264" d="M220.633,1439.455h-.018l-6.7-.233a.516.516,0,0,1-.5-.516V1421.02a.516.516,0,0,1,.516-.516h8.817a.516.516,0,0,1,.512.576L221.145,1439a.516.516,0,0,1-.512.455m-6.187-1.247,5.73.2,1.99-16.871h-7.72Z" transform="translate(-2622.06 -422.884)"/>
    <path id="Path_3265" data-name="Path 3265" d="M188.124,1481.581s.862,7.958.6,11.159c-.19,2.291-3.334,9.209-5.106,12.959a4.324,4.324,0,0,1-3.661,2.6c-1.88.081-4.5.176-6.6.178-2.9,0-4.9-3.3-3.861-6.371a47.775,47.775,0,0,1,4.862-10.183c1.8-2.852,4.424-10.6,4.424-10.6h5.462l1.072,4.536Z" transform="translate(-2587.958 -469.802)" fill="#6b96e9"/>
    <path id="Path_3266" data-name="Path 3266" d="M171.6,1507.25a4.449,4.449,0,0,1-3.615-1.933,5.675,5.675,0,0,1-.731-5.118,48.186,48.186,0,0,1,4.915-10.293c1.745-2.768,4.346-10.416,4.372-10.493a.516.516,0,0,1,.489-.35h5.462a.516.516,0,0,1,.5.4l.8,3.372,2.159-3.276a.516.516,0,0,1,.944.228c.035.327.865,8.045.6,11.258-.186,2.239-2.906,8.379-5.154,13.136a4.857,4.857,0,0,1-4.1,2.894c-1.845.08-4.492.176-6.627.178Zm5.8-27.156c-.541,1.565-2.745,7.806-4.357,10.362a47.154,47.154,0,0,0-4.81,10.073,4.641,4.641,0,0,0,.59,4.186,3.43,3.43,0,0,0,2.778,1.5h0c2.116,0,4.748-.1,6.583-.177a3.83,3.83,0,0,0,3.217-2.3c3.082-6.52,4.926-11.179,5.059-12.781a74.384,74.384,0,0,0-.45-9.62l-2.018,3.061a.516.516,0,0,1-.933-.165l-.978-4.138Z" transform="translate(-2586.211 -468.06)"/>
    <path id="Path_3267" data-name="Path 3267" d="M182.792,1552.694h-.006l-6.22-.006a.516.516,0,0,1,0-1.032h0l6.22.006h.005a5.245,5.245,0,0,0,4.683-3c2.931-5.913,3.1-6.048,3.23-6.157a.516.516,0,0,1,.7.753c-.093.134-.574.951-3.008,5.862a6.271,6.271,0,0,1-5.607,3.574" transform="translate(-2593.235 -516.915)"/>
    <path id="Path_3268" data-name="Path 3268" d="M195.118,1555.664h-5.98a.516.516,0,1,1,0-1.032h5.98a.516.516,0,1,1,0,1.032" transform="translate(-2602.934 -526.36)"/>
    <path id="Path_3269" data-name="Path 3269" d="M282.2,779.254s-.712,54.688-3.01,90.29-6.831,62.824-6.831,62.824-7.8,2.8-12.92,1.335c0,0-4.24-31.231-5.2-41.787s1.594-15.794,1.81-24.434-3.724-46.785-3.724-46.785-29.4,86.236-32.765,105.283c0,0-7.121,1.207-12.14-1.536,0,0-.156-33.913.556-39.152,1.319-9.708,8.9-19.266,10.263-29.577s2.152-36.19,5.9-51.712,11.109-32.96,11.109-32.96Z" transform="translate(-2617.422 78.16)" fill="#99bbfd"/>
    <path id="Path_3270" data-name="Path 3270" d="M313.773,846.085a.516.516,0,0,1-.2-.994,22.662,22.662,0,0,0,12.393-13.339.516.516,0,1,1,.99.289,23.338,23.338,0,0,1-12.992,14,.514.514,0,0,1-.2.039" transform="translate(-2699.086 31.61)" fill="#fff"/>
    <path id="Path_3271" data-name="Path 3271" d="M274.913,857.26a.479.479,0,0,1-.067,0,.516.516,0,0,1-.445-.578c3.386-26.023,13.548-43.417,13.65-43.59a.516.516,0,0,1,.888.526c-.1.171-10.158,17.4-13.515,43.2a.516.516,0,0,1-.511.449" transform="translate(-2669.106 45.918)" fill="#fff"/>
    <path id="Path_3272" data-name="Path 3272" d="M846.563,556.9l-12.815,5.328-4.679,10.066A55.309,55.309,0,0,1,820.7,576.9c.506,1.079,1.006,2.16,1.48,3.25.77,1.772,1.51,3.557,2.246,5.343a36.981,36.981,0,0,0,7.756-10.791c7.906-.461,8.1-6.558,7.711-8.137s.329-3.374,3.963-5.761c3.975-2.612,2.706-3.905,2.706-3.905" transform="translate(-3090.567 243.369)" fill="#f4f7fe"/>
    <path id="Path_3273" data-name="Path 3273" d="M822.685,584.264a.511.511,0,0,1-.1-.01.517.517,0,0,1-.375-.309c-.668-1.621-1.447-3.5-2.242-5.334-.481-1.105-.992-2.209-1.474-3.237a.516.516,0,0,1,.259-.691,55.054,55.054,0,0,0,8.17-4.485l4.618-9.934a.515.515,0,0,1,.27-.259l12.815-5.328a.517.517,0,0,1,.567.115,1.431,1.431,0,0,1,.33,1.144c-.115,1.073-1.165,2.269-3.121,3.555-3.881,2.55-4,4.192-3.745,5.206a7.331,7.331,0,0,1-1.264,5.594c-1.372,1.863-3.592,2.925-6.6,3.161a38.346,38.346,0,0,1-7.739,10.663.516.516,0,0,1-.364.15m-3.036-8.852c.418.9.852,1.84,1.263,2.788.684,1.572,1.354,3.181,1.953,4.632a36.438,36.438,0,0,0,7.1-10.072.517.517,0,0,1,.447-.318c2.849-.166,4.917-1.1,6.147-2.764a6.332,6.332,0,0,0,1.093-4.734c-.518-2.1.81-4.1,4.18-6.317,2.242-1.473,2.609-2.418,2.659-2.778l-12.1,5.031-4.595,9.884a.513.513,0,0,1-.182.212,56.316,56.316,0,0,1-7.965,4.436m7.679-4.865h0Z" transform="translate(-3088.825 245.111)"/>
    <path id="Path_3274" data-name="Path 3274" d="M367.439,532.35s-17.547-2.511-34.819-3.013c0,0-21.664,56.51-21.662,60.323s9.251,8.692,21.662,5.58,28.181-3.421,37.048-1.349c13.287,3.1-2.228-61.542-2.228-61.542" transform="translate(-2697.312 264.63)" fill="#f4f7fe"/>
    <path id="Path_3275" data-name="Path 3275" d="M323.073,595.019c-5.561,0-9.785-1.608-12.1-3.414a5.008,5.008,0,0,1-2.272-3.685c0-3.864,20.811-58.2,21.7-60.509a.5.5,0,0,1,.5-.331c17.1.5,34.7,2.993,34.877,3.018a.516.516,0,0,1,.429.39c.524,2.183,12.741,53.541,5.09,61.238a3.5,3.5,0,0,1-3.48.926c-9.274-2.166-25.1-1.587-36.8,1.348a32.645,32.645,0,0,1-7.931,1.019m8.156-66.9c-6.109,15.944-21.5,56.769-21.5,59.8a4.053,4.053,0,0,0,1.875,2.872c3.384,2.639,10.617,4.346,19.146,2.208,11.845-2.969,27.877-3.55,37.29-1.351a2.491,2.491,0,0,0,2.514-.649c6.94-6.983-4.208-55.361-5.281-59.928-2.535-.349-18.447-2.469-34.048-2.948" transform="translate(-2695.571 266.372)"/>
    <path id="Path_3276" data-name="Path 3276" d="M618.156,556.477l8.091,5.13s-8.531,19.722-27.091,25.746S563.051,576.3,563.051,576.3l1.6,36.611s-8.967,5.314-8.967,4.844-3.921-81.669-3.921-81.669,7.239.116,10.467,4.711,15.444,23.579,29.488,23.809,26.441-8.132,26.441-8.132" transform="translate(-2883.086 259.42)" fill="#f4f7fe"/>
    <path id="Path_3277" data-name="Path 3277" d="M562.131,593.941a.516.516,0,0,1-.515-.494l-.823-18.863a.516.516,0,0,1,.875-.392c.173.168,17.542,16.784,35.587,10.928,16.667-5.41,25.259-22.249,26.593-25.061l-7.431-4.712c-1.951,1.237-13.581,8.243-26.452,8.036-13.468-.22-25.33-17.409-29.229-23.057-.255-.371-.481-.7-.674-.971-2.533-3.606-7.789-4.32-9.5-4.459.158,3.259.962,19.92,1.8,37.3a.517.517,0,0,1-.491.54.526.526,0,0,1-.54-.491c-.933-19.384-1.826-37.873-1.826-37.873a.516.516,0,0,1,.524-.541c.306.005,7.54.176,10.881,4.93.194.276.421.6.678.978,3.824,5.54,15.459,22.4,28.4,22.611,13.726.223,26.022-7.961,26.145-8.044a.515.515,0,0,1,.564-.008l8.091,5.13a.516.516,0,0,1,.2.641c-.086.2-8.838,20.006-27.406,26.032-16.212,5.263-31.8-6.95-35.7-10.333l.769,17.633a.516.516,0,0,1-.493.538h-.023" transform="translate(-2881.344 261.162)"/>
    <path id="Path_3278" data-name="Path 3278" d="M505.676,597.953l-31.895-3.288a2.412,2.412,0,0,0-2.263,2.006l-7.7,47.539a1.636,1.636,0,0,0,1.613,2.006l33.821-1.659c1.07,0,2.193.761,2.373-.347l7.7-47.539c.18-1.108-2.579,1.282-3.649,1.282" transform="translate(-2815.219 214.231)"/>
    <path id="Path_3279" data-name="Path 3279" d="M463.713,644.99a2.125,2.125,0,0,1-1.663-.735,2.3,2.3,0,0,1-.482-1.869l7.7-47.539a2.91,2.91,0,0,1,2.772-2.439l.053,0,31.863,3.285a6.538,6.538,0,0,0,1.721-.817c1.037-.6,1.663-.964,2.14-.636a.726.726,0,0,1,.277.77l-7.7,47.539a1.2,1.2,0,0,1-.483.845,1.928,1.928,0,0,1-1.526.065,4.285,4.285,0,0,0-.873-.13l-33.8,1.659Zm8.3-51.55a1.911,1.911,0,0,0-1.729,1.572l-7.7,47.539a1.257,1.257,0,0,0,.249,1.035,1.1,1.1,0,0,0,.855.373l33.8-1.659h0a5.131,5.131,0,0,1,1.113.153,2.205,2.205,0,0,0,.727.09.609.609,0,0,0,.043-.157L507,595.322c-.254.13-.565.31-.8.449a5.55,5.55,0,0,1-2.26.957l-.053,0Z" transform="translate(-2813.479 215.972)" fill="#737f8b"/>
    <path id="Path_3280" data-name="Path 3280" d="M512.335,594.665H478.4a2.413,2.413,0,0,0-2.263,2.006l-7.7,47.539a1.636,1.636,0,0,0,1.613,2.006h33.931a2.413,2.413,0,0,0,2.263-2.006l7.7-47.539a1.636,1.636,0,0,0-1.613-2.006" transform="translate(-2818.785 214.231)" fill="#f4f7fe"/>
    <path id="Path_3281" data-name="Path 3281" d="M502.244,644.991H468.313a2.113,2.113,0,0,1-1.641-.736,2.3,2.3,0,0,1-.482-1.869l7.7-47.539a2.911,2.911,0,0,1,2.772-2.439H510.6a2.112,2.112,0,0,1,1.641.736,2.3,2.3,0,0,1,.482,1.868l-7.7,47.539a2.911,2.911,0,0,1-2.772,2.439m-25.58-51.551a1.907,1.907,0,0,0-1.753,1.572l-7.7,47.539a1.255,1.255,0,0,0,.25,1.035,1.1,1.1,0,0,0,.855.373h33.931A1.907,1.907,0,0,0,504,642.386l7.7-47.539a1.256,1.256,0,0,0-.249-1.035,1.1,1.1,0,0,0-.855-.372Z" transform="translate(-2817.045 215.972)" fill="#737f8b"/>
    <path id="Path_3282" data-name="Path 3282" d="M468.056,688.719l.366,4.475,13.589-2.47a3.981,3.981,0,0,1,.5,1.174,4.4,4.4,0,0,1-.963,3.991c-.593.738-2.941.76-2.758,2.225.16,1.279-5.152,2.277-9.747,3.13-5.143.955-4.7-6.375-3.432-10.128.992-2.925,2.444-2.4,2.444-2.4" transform="translate(-2815.985 141.699)" fill="#fff"/>
    <path id="Path_3283" data-name="Path 3283" d="M466.463,700.106a3.352,3.352,0,0,1-2.643-1.149c-1.948-2.249-1.29-7.17-.417-9.743a4.182,4.182,0,0,1,1.859-2.6,1.681,1.681,0,0,1,1.25-.122.516.516,0,0,1,.338.443l.32,3.907,13.029-2.368a.514.514,0,0,1,.515.213,4.5,4.5,0,0,1,.578,1.34,4.9,4.9,0,0,1-1.061,4.443,3.136,3.136,0,0,1-1.36.786c-1,.386-1.344.6-1.288,1.053.2,1.6-3.1,2.39-10.165,3.7a5.222,5.222,0,0,1-.954.092m-.6-12.62c-.406.122-1,.638-1.479,2.059-.858,2.532-1.357,6.916.22,8.737a2.582,2.582,0,0,0,2.629.718c2.937-.546,9.047-1.68,9.331-2.58-.167-1.309,1.1-1.8,1.939-2.122a2.824,2.824,0,0,0,.927-.469,3.849,3.849,0,0,0,.6-4.269l-13.229,2.4a.516.516,0,0,1-.607-.465Z" transform="translate(-2814.263 143.437)"/>
    <path id="Path_3284" data-name="Path 3284" d="M319.9,575.508l-2.725-4.143s-13.516,2.741-19.754,0c-10.9-4.788-8.836-21.515-6.982-29.84a64.716,64.716,0,0,1,5.951-15.6,49.05,49.05,0,0,0-16.8,18.091c-6.789,12.436-9,40.265,13.706,45.294,14.854,3.29,26.6-13.8,26.6-13.8" transform="translate(-2669.529 267.262)" fill="#f4f7fe"/>
    <path id="Path_3285" data-name="Path 3285" d="M295.394,588.5a17.986,17.986,0,0,1-3.9-.427c-7.616-1.687-13.03-5.959-16.093-12.7-4.768-10.493-2.505-25.013,2.045-33.348a50.07,50.07,0,0,1,17-18.293.516.516,0,0,1,.508.9,48.994,48.994,0,0,0-16.6,17.889c-4.431,8.116-6.642,22.238-2.012,32.427,2.921,6.427,8.094,10.5,15.377,12.117a17.034,17.034,0,0,0,3.689.4c11.6,0,20.724-11.74,22.177-13.716l-2.339-3.557c-2.2.418-13.891,2.461-19.721-.1-3.778-1.66-6.372-4.841-7.711-9.455a.516.516,0,1,1,.991-.288c1.25,4.307,3.65,7.268,7.135,8.8,6.018,2.644,19.31-.006,19.444-.033a.516.516,0,0,1,.534.222l2.724,4.143a.516.516,0,0,1-.006.576c-.109.159-10.095,14.441-23.239,14.442" transform="translate(-2667.834 269.003)"/>
    <path id="Path_3286" data-name="Path 3286" d="M445.144,415.447a.633.633,0,0,0,.915-.306c.705-1.731,1.835-5.083,4.145-5.616,2.961-.683,7.754-1.566,8.166.775.361,2.052-.064,5.593,2.1,8.159.207.246.029.64-.227.833l-1.36,1.147a2.41,2.41,0,0,0-.567,1.309c-.108,1.114-.248,3.482-.633,3.788-.75.6-4.495.365-4.495.365l-3,10.326a.72.72,0,0,0,.51.9l3.574,1.215s-2.869,4.021-11.833,3.415a17.612,17.612,0,0,1-9.923-4.425s11.14-1.583,12.644-14.751a.823.823,0,0,0-.324-.75c-.889-.668-3.282-2.635-2.863-4.63.444-2.117,2.027-2.44,3.18-1.753" transform="translate(-2791.085 357.638)" fill="#fff"/>
    <path id="Path_3287" data-name="Path 3287" d="M442.5,440.609q-.878,0-1.844-.064a17.961,17.961,0,0,1-10.246-4.569.516.516,0,0,1,.285-.882c.439-.063,10.766-1.7,12.2-14.3a.306.306,0,0,0-.121-.279c-1.335-1-3.508-3.006-3.058-5.148a2.945,2.945,0,0,1,1.617-2.293,2.534,2.534,0,0,1,2.331.2.117.117,0,0,0,.174-.057l.192-.481c.773-1.949,1.941-4.9,4.314-5.443,2.593-.6,6.231-1.266,7.892-.166a1.987,1.987,0,0,1,.9,1.354,18.2,18.2,0,0,1,.183,1.841c.129,1.908.289,4.282,1.8,6.075a.919.919,0,0,1,.205.7,1.328,1.328,0,0,1-.516.874l-1.338,1.13a2.061,2.061,0,0,0-.386.965c-.017.171-.034.371-.053.589-.193,2.226-.343,3.211-.773,3.553-.74.588-3.222.553-4.434.5l-2.889,9.933a.207.207,0,0,0,.019.162.2.2,0,0,0,.122.094l3.613,1.227a.516.516,0,0,1,.254.788c-.115.162-2.731,3.694-10.445,3.694m-10.614-4.733a16.834,16.834,0,0,0,8.84,3.64c6.529.441,9.721-1.653,10.866-2.673l-2.807-.955a1.19,1.19,0,0,1-.725-.57,1.23,1.23,0,0,1-.114-.963l3-10.326a.511.511,0,0,1,.527-.371,12.364,12.364,0,0,0,4.113-.233,14.6,14.6,0,0,0,.416-2.854c.019-.222.037-.426.054-.6a2.826,2.826,0,0,1,.769-1.67l1.339-1.13a.41.41,0,0,0,.126-.154c-1.69-2.044-1.862-4.581-2-6.623-.043-.64-.084-1.244-.17-1.731a.966.966,0,0,0-.451-.673c-.984-.652-3.37-.547-7.091.311-1.845.426-2.893,3.069-3.587,4.818l-.2.49a1.149,1.149,0,0,1-1.657.555,1.517,1.517,0,0,0-1.389-.144,2.029,2.029,0,0,0-1.022,1.56c-.345,1.642,1.751,3.422,2.668,4.111a1.343,1.343,0,0,1,.526,1.221c-1.255,10.986-9.159,14.164-12.038,14.963" transform="translate(-2789.344 359.364)"/>
    <path id="Path_3288" data-name="Path 3288" d="M1538.243,539.812l30.621-10.653s11.955,4.487,10.834,20.011c7.785,1.929,14.651,6.543,15.832,20.148-15.392,5.233-33.775,12.753-33.775,12.753l-10.276-21.646Z" transform="translate(-3644.133 264.767)" fill="#99bbfd"/>
    <path id="Path_3289" data-name="Path 3289" d="M1560.013,580.845a.516.516,0,0,1-.466-.295l-10.261-21.616-13.218-20.584a.516.516,0,0,1,.264-.766l30.621-10.653a.514.514,0,0,1,.351,0c.122.045,12.08,4.717,11.195,20.1,6.285,1.636,14.514,5.638,15.8,20.5a.515.515,0,0,1-.348.533c-15.2,5.169-33.561,12.666-33.745,12.742a.518.518,0,0,1-.2.038m-22.723-42.5,12.882,20.061a.5.5,0,0,1,.032.058l10.066,21.206c2.9-1.177,19.151-7.732,32.967-12.449-1.354-14.038-8.932-17.686-15.405-19.29a.517.517,0,0,1-.39-.538c1.01-13.974-8.921-18.807-10.335-19.421Z" transform="translate(-3642.391 266.508)"/>
    <path id="Path_3290" data-name="Path 3290" d="M1533.032,575.776s.9,2.926-1.543,7.348a31.33,31.33,0,0,1,13.292,16.083c4.651,5.177,7.352,8.469,7,19.493a39.1,39.1,0,0,1,4.767-.666s3.931-13.369-9.08-22.141c-.328-9.769-11.282-18.295-14.432-20.117" transform="translate(-3638.922 228.803)" fill="#cfdfff"/>
    <path id="Path_3291" data-name="Path 3291" d="M1550.035,617.477a.516.516,0,0,1-.516-.532c.358-11.092-2.515-14.291-6.864-19.132a.514.514,0,0,1-.1-.175,30.773,30.773,0,0,0-13.063-15.806.516.516,0,0,1-.193-.7c2.3-4.146,1.51-6.92,1.5-6.948a.517.517,0,0,1,.752-.6c2.99,1.73,14.152,10.2,14.677,20.283a21.135,21.135,0,0,1,9.071,22.567.517.517,0,0,1-.454.369,38.78,38.78,0,0,0-4.683.652.526.526,0,0,1-.124.015m-6.544-20.277c4.783,5.329,7.308,8.7,7.078,19.117,1.354-.264,3.081-.437,3.826-.5.516-2.135,2.591-13.441-8.962-21.23a.516.516,0,0,1-.227-.41c-.294-8.763-9.527-16.572-13.246-19.1a12.012,12.012,0,0,1-1.525,6.119,31.919,31.919,0,0,1,13.057,16.007m11.311,19.1h0Z" transform="translate(-3637.18 230.542)"/>
    <path id="Path_3292" data-name="Path 3292" d="M1589.747,629.284a.516.516,0,0,1-.413-.825l2.264-3.028a.514.514,0,0,1,.222-.17l27.023-10.76a.516.516,0,1,1,.382.959l-26.888,10.706-2.176,2.911a.515.515,0,0,1-.414.207" transform="translate(-3683.469 198.956)"/>
    <path id="Path_3293" data-name="Path 3293" d="M1727.1,648.4a.516.516,0,0,1-.5-.4c-1.464-6.419-4.712-10.737-9.931-13.2a.516.516,0,0,1,.441-.933c5.524,2.609,8.957,7.158,10.5,13.906a.516.516,0,0,1-.389.618.524.524,0,0,1-.115.013" transform="translate(-3781.558 184.027)"/>
    <path id="Path_3294" data-name="Path 3294" d="M1708.382,655.125a.516.516,0,0,1-.5-.4c-1.464-6.419-4.712-10.738-9.931-13.2a.516.516,0,0,1,.441-.933c5.524,2.609,8.957,7.158,10.5,13.907a.516.516,0,0,1-.389.618.524.524,0,0,1-.115.013" transform="translate(-3767.114 178.84)"/>
    <path id="Path_3295" data-name="Path 3295" d="M1612.443,581.441a.516.516,0,0,1-.511-.451,18.185,18.185,0,0,0-8.083-13.239.516.516,0,1,1,.564-.864,19.206,19.206,0,0,1,8.542,13.973.516.516,0,0,1-.446.577.493.493,0,0,1-.066,0" transform="translate(-3694.566 235.725)"/>
    <path id="Path_3296" data-name="Path 3296" d="M1594,588.973a.516.516,0,0,1-.511-.451,18.187,18.187,0,0,0-8.083-13.239.516.516,0,0,1,.564-.864,19.207,19.207,0,0,1,8.542,13.973.516.516,0,0,1-.447.577.491.491,0,0,1-.066,0" transform="translate(-3680.337 229.914)"/>
    <path id="Path_3297" data-name="Path 3297" d="M1014.7,800.567l-157-19.792a8.05,8.05,0,0,1-6.89-7.759V733.068a5.945,5.945,0,0,1,6.89-6.022l157,19.792a8.05,8.05,0,0,1,6.891,7.759v39.948a5.945,5.945,0,0,1-6.891,6.022" transform="translate(-3113.797 112.145)" fill="#f4f7fe"/>
    <path id="Path_3298" data-name="Path 3298" d="M1013.84,799.4a7.56,7.56,0,0,1-.943-.06l-157-19.792a8.59,8.59,0,0,1-7.342-8.271V731.324a6.532,6.532,0,0,1,2.173-4.988,6.629,6.629,0,0,1,5.3-1.546l157,19.792a8.59,8.59,0,0,1,7.342,8.271V792.8a6.427,6.427,0,0,1-6.528,6.594m-.814-1.084a5.611,5.611,0,0,0,4.486-1.3,5.514,5.514,0,0,0,1.824-4.214V752.854a7.529,7.529,0,0,0-6.439-7.247l-157-19.792a5.6,5.6,0,0,0-4.486,1.3,5.514,5.514,0,0,0-1.824,4.214v39.948a7.53,7.53,0,0,0,6.439,7.247Z" transform="translate(-3112.055 113.888)"/>
    <path id="Path_3299" data-name="Path 3299" d="M1014.7,1115.42l-157-19.792a8.051,8.051,0,0,1-6.89-7.76v-39.948a5.945,5.945,0,0,1,6.89-6.022l157,19.792a8.05,8.05,0,0,1,6.891,7.759V1109.4a5.945,5.945,0,0,1-6.891,6.022" transform="translate(-3113.797 -130.757)" fill="#f4f7fe"/>
    <path id="Path_3300" data-name="Path 3300" d="M1013.841,1114.249a7.571,7.571,0,0,1-.943-.06l-157-19.792a8.591,8.591,0,0,1-7.342-8.271v-39.948a6.531,6.531,0,0,1,2.174-4.988,6.624,6.624,0,0,1,5.3-1.546l157,19.792a8.59,8.59,0,0,1,7.342,8.271v39.948a6.426,6.426,0,0,1-6.528,6.594m-158.755-73.633a5.4,5.4,0,0,0-5.5,5.562v39.948a7.53,7.53,0,0,0,6.439,7.248l157,19.792a5.609,5.609,0,0,0,4.486-1.3,5.514,5.514,0,0,0,1.824-4.214v-39.948a7.53,7.53,0,0,0-6.439-7.247l-157-19.792a6.466,6.466,0,0,0-.81-.052" transform="translate(-3112.055 -129.013)"/>
    <path id="Path_3301" data-name="Path 3301" d="M1041.054,87.552c0,42.637-34.564,72.843-77.2,67.468s-77.2-44.3-77.2-86.932S921.218-4.755,963.854.619s77.2,44.3,77.2,86.932" transform="translate(-3141.448 673)" fill="#99bbfd"/>
    <path id="Path_3302" data-name="Path 3302" d="M1419.563,858.24c0,10.1-8.187,17.254-18.286,15.981s-18.286-10.492-18.286-20.591,8.187-17.254,18.286-15.981,18.286,10.492,18.286,20.592" transform="translate(-3524.359 26.888)" fill="#cfdfff"/>
    <path id="Path_3303" data-name="Path 3303" d="M1438.938,893.778a.516.516,0,0,1-.509-.431l-2.987-17.857a.516.516,0,0,1,.736-.549l16.717,8.177a.516.516,0,0,1,.071.885l-13.73,9.68a.516.516,0,0,1-.3.094m-2.313-17.469,2.686,16.059,12.347-8.705Z" transform="translate(-3564.819 -1.955)" fill="#fff"/>
    <path id="Path_3304" data-name="Path 3304" d="M1430.6,867.356a2.577,2.577,0,0,1-2.987,2.61,3.49,3.49,0,0,1-2.987-3.364,2.577,2.577,0,0,1,2.987-2.61,3.49,3.49,0,0,1,2.987,3.364" transform="translate(-3556.477 6.47)" fill="#fff"/>
    <path id="Path_3305" data-name="Path 3305" d="M1426.25,868.766a3.559,3.559,0,0,1-.447-.028,4.023,4.023,0,0,1-3.438-3.875,3.119,3.119,0,0,1,1.041-2.382,3.164,3.164,0,0,1,2.526-.741,4.024,4.024,0,0,1,3.439,3.875,3.078,3.078,0,0,1-3.121,3.151m-.76-6.022a2.047,2.047,0,0,0-2.093,2.119,2.963,2.963,0,0,0,2.536,2.851,2.143,2.143,0,0,0,1.715-.491,2.1,2.1,0,0,0,.692-1.608,2.964,2.964,0,0,0-2.536-2.851,2.514,2.514,0,0,0-.314-.02" transform="translate(-3554.736 8.211)"/>
    <path id="Path_3306" data-name="Path 3306" d="M1441.488,942.493a3.369,3.369,0,0,1-3.9,3.412,4.561,4.561,0,0,1-3.9-4.4,3.369,3.369,0,0,1,3.9-3.412,4.561,4.561,0,0,1,3.9,4.4" transform="translate(-3563.464 -50.694)" fill="#fff"/>
    <path id="Path_3307" data-name="Path 3307" d="M1436.341,944.711a4.479,4.479,0,0,1-.563-.036,5.1,5.1,0,0,1-4.356-4.908,3.921,3.921,0,0,1,1.307-2.994,3.979,3.979,0,0,1,3.177-.93,5.1,5.1,0,0,1,4.356,4.908,3.866,3.866,0,0,1-3.922,3.96m-.994-7.872a2.834,2.834,0,0,0-2.894,2.928,4.037,4.037,0,0,0,3.453,3.885,2.955,2.955,0,0,0,2.366-.68,2.9,2.9,0,0,0,.958-2.22,4.037,4.037,0,0,0-3.453-3.885,3.439,3.439,0,0,0-.43-.027" transform="translate(-3561.723 -48.952)"/>
    <path id="Path_3308" data-name="Path 3308" d="M1503.748,903.138a2.577,2.577,0,0,1-2.987,2.611,3.49,3.49,0,0,1-2.987-3.364,2.577,2.577,0,0,1,2.987-2.611,3.49,3.49,0,0,1,2.987,3.364" transform="translate(-3612.912 -21.135)" fill="#fff"/>
    <path id="Path_3309" data-name="Path 3309" d="M1499.4,904.546a3.558,3.558,0,0,1-.446-.028,4.024,4.024,0,0,1-3.439-3.876,3.121,3.121,0,0,1,1.041-2.381,3.163,3.163,0,0,1,2.526-.741,4.024,4.024,0,0,1,3.439,3.876,3.078,3.078,0,0,1-3.121,3.15m-.76-6.022a2.047,2.047,0,0,0-2.094,2.119,2.965,2.965,0,0,0,2.536,2.852A2.139,2.139,0,0,0,1500.8,903a2.1,2.1,0,0,0,.692-1.607,2.964,2.964,0,0,0-2.536-2.852,2.518,2.518,0,0,0-.313-.02" transform="translate(-3611.17 -19.392)"/>
    <path id="Path_3310" data-name="Path 3310" d="M1014.207,822.335a.487.487,0,0,1-.065,0l-87.017-10.969a.516.516,0,0,1,.129-1.024l87.017,10.969a.516.516,0,0,1-.063,1.028" transform="translate(-3172.322 47.848)"/>
    <path id="Path_3311" data-name="Path 3311" d="M1216.377,886.068a.484.484,0,0,1-.065,0l-11.694-1.474a.516.516,0,1,1,.129-1.023l11.694,1.474a.516.516,0,0,1-.064,1.028" transform="translate(-3386.401 -8.646)"/>
    <path id="Path_3312" data-name="Path 3312" d="M969.15,854.9a.482.482,0,0,1-.065,0l-41.961-5.289a.516.516,0,1,1,.129-1.024l41.961,5.29a.516.516,0,0,1-.064,1.028" transform="translate(-3172.321 18.342)"/>
    <path id="Path_3313" data-name="Path 3313" d="M1126.541,912.99a.514.514,0,0,1-.065,0L1110.741,911a.516.516,0,0,1,.129-1.024l15.735,1.984a.516.516,0,0,1-.064,1.028" transform="translate(-3313.977 -29.023)"/>
    <path id="Path_3314" data-name="Path 3314" d="M951.265,890.894a.535.535,0,0,1-.065,0l-24.076-3.035a.516.516,0,1,1,.129-1.024l24.076,3.035a.516.516,0,0,1-.064,1.028" transform="translate(-3172.321 -11.165)"/>
    <path id="Path_3315" data-name="Path 3315" d="M1014.207,1137.187a.508.508,0,0,1-.065,0l-87.017-10.969a.516.516,0,0,1,.129-1.024l87.017,10.97a.516.516,0,0,1-.063,1.028" transform="translate(-3172.322 -195.053)"/>
    <path id="Path_3316" data-name="Path 3316" d="M1257.643,1206.122a.487.487,0,0,1-.065,0l-6.492-.818a.516.516,0,0,1,.129-1.024l6.492.819a.516.516,0,0,1-.064,1.028" transform="translate(-3422.25 -256.066)"/>
    <path id="Path_3317" data-name="Path 3317" d="M1115.773,1188.238a.472.472,0,0,1-.065,0l-31.683-3.994a.516.516,0,1,1,.129-1.024l31.683,3.994a.516.516,0,0,1-.064,1.028" transform="translate(-3293.366 -239.819)"/>
    <path id="Path_3318" data-name="Path 3318" d="M939.228,1165.983a.473.473,0,0,1-.065,0l-12.038-1.517a.516.516,0,0,1,.129-1.024l12.038,1.518a.516.516,0,0,1-.064,1.028" transform="translate(-3172.322 -224.561)"/>
    <path id="Path_3319" data-name="Path 3319" d="M1164.665,1232.648a.538.538,0,0,1-.065,0l-19.433-2.45a.516.516,0,0,1,.129-1.024l19.433,2.449a.516.516,0,0,1-.064,1.028" transform="translate(-3340.536 -275.271)"/>
    <path id="Path_3320" data-name="Path 3320" d="M954.7,1206.18a.492.492,0,0,1-.065,0l-27.515-3.469a.516.516,0,1,1,.129-1.024l27.515,3.469a.516.516,0,0,1-.064,1.028" transform="translate(-3172.322 -254.066)"/>
    <path id="Path_3321" data-name="Path 3321" d="M1419.563,1173.093c0,10.1-8.187,17.254-18.286,15.981s-18.286-10.492-18.286-20.592,8.187-17.254,18.286-15.981,18.286,10.492,18.286,20.592" transform="translate(-3524.359 -216.013)" fill="#cfdfff"/>
    <path id="Path_3322" data-name="Path 3322" d="M1437.71,1195.386v-7.162l-6.431-.811v7.162a7.23,7.23,0,0,0-5.231,7.152,9.868,9.868,0,0,0,8.447,9.511,7.288,7.288,0,0,0,8.447-7.382,9.861,9.861,0,0,0-5.231-8.471" transform="translate(-3557.577 -243.06)" fill="#fff"/>
    <path id="Path_3323" data-name="Path 3323" d="M1433.829,1210.081a9.126,9.126,0,0,1-1.141-.072,10.411,10.411,0,0,1-8.9-10.024,7.722,7.722,0,0,1,5.231-7.531v-6.783a.516.516,0,0,1,.58-.512l6.431.811a.516.516,0,0,1,.451.512v6.859a10.334,10.334,0,0,1,5.231,8.774,7.761,7.761,0,0,1-7.886,7.966m-3.776-23.825v6.577a.516.516,0,0,1-.374.5,6.706,6.706,0,0,0-4.857,6.656,9.35,9.35,0,0,0,8,9,6.993,6.993,0,0,0,5.591-1.617,6.874,6.874,0,0,0,2.275-5.253,9.305,9.305,0,0,0-4.96-8.017.516.516,0,0,1-.271-.454v-6.707Z" transform="translate(-3555.835 -241.318)"/>
    <path id="Path_3324" data-name="Path 3324" d="M1449.416,1182.821l-7.981-1.006a1.423,1.423,0,0,1-1.218-1.372v-.827a1.051,1.051,0,0,1,1.218-1.065l7.981,1.006a1.423,1.423,0,0,1,1.218,1.372v.827a1.051,1.051,0,0,1-1.218,1.065" transform="translate(-3568.507 -236.215)" fill="#fff"/>
    <path id="Path_3325" data-name="Path 3325" d="M1447.832,1181.607a1.766,1.766,0,0,1-.221-.014l-7.982-1.006a1.93,1.93,0,0,1-1.669-1.884v-.827a1.575,1.575,0,0,1,.528-1.2,1.593,1.593,0,0,1,1.27-.376l7.981,1.006a1.93,1.93,0,0,1,1.669,1.884v.827a1.561,1.561,0,0,1-1.577,1.591m-.093-1.038a.573.573,0,0,0,.459-.126.558.558,0,0,0,.178-.427v-.827a.906.906,0,0,0-.766-.86l-7.982-1.006a.577.577,0,0,0-.459.126.556.556,0,0,0-.179.426v.827a.907.907,0,0,0,.767.86Z" transform="translate(-3566.766 -234.475)"/>
    <path id="Path_3326" data-name="Path 3326" d="M1434.276,1246.313l13,1.64Z" transform="translate(-3563.925 -288.5)" fill="#fff"/>
    <path id="Path_3327" data-name="Path 3327" d="M1445.54,1246.727a.487.487,0,0,1-.065,0l-13-1.639a.516.516,0,0,1,.129-1.024l13,1.639a.516.516,0,0,1-.064,1.028" transform="translate(-3562.183 -286.758)"/>
    <path id="Path_3328" data-name="Path 3328" d="M926.087,295.023v40.243c0,12.115,20.206,21.936,45.132,21.936s45.132-9.821,45.132-21.936V295.023Z" transform="translate(-3171.87 445.397)" fill="#6b96e9"/>
    <path id="Path_3329" data-name="Path 3329" d="M969.478,355.977c-25.17,0-45.648-10.072-45.648-22.452V293.282a.516.516,0,0,1,.516-.516h90.264a.516.516,0,0,1,.516.516v40.243c0,12.38-20.478,22.452-45.648,22.452M924.862,293.8v39.727c0,11.811,20.015,21.42,44.616,21.42s44.616-9.609,44.616-21.42V293.8Z" transform="translate(-3170.128 447.138)"/>
    <path id="Path_3330" data-name="Path 3330" d="M948.157,188.8l-46.3-19.589a4.018,4.018,0,0,0-2.7,0l-46.3,19.589h-18.43v4.472a1.394,1.394,0,0,0,.942,1.335l63.787,22.726a4.018,4.018,0,0,0,2.7,0L965.645,194.6a1.393,1.393,0,0,0,.942-1.335V188.8Z" transform="translate(-3101.16 542.641)" fill="#737f8b"/>
    <path id="Path_3331" data-name="Path 3331" d="M898.767,216.345a4.538,4.538,0,0,1-1.522-.262l-63.786-22.726a1.913,1.913,0,0,1-1.285-1.821v-4.472a.516.516,0,0,1,.516-.516h18.325L897.218,167a4.564,4.564,0,0,1,3.071-.011l46.23,19.559h18.325a.516.516,0,0,1,.516.516v4.472a1.913,1.913,0,0,1-1.285,1.821l-63.787,22.726a4.539,4.539,0,0,1-1.521.262m-65.561-28.766v3.956a.883.883,0,0,0,.6.849l63.787,22.726a3.517,3.517,0,0,0,2.351,0l63.787-22.726a.883.883,0,0,0,.6-.849v-3.956H946.415a.515.515,0,0,1-.2-.041l-46.3-19.589a3.5,3.5,0,0,0-2.323.011l-46.271,19.578a.516.516,0,0,1-.2.041Z" transform="translate(-3099.418 544.374)"/>
    <path id="Path_3332" data-name="Path 3332" d="M965.645,172.363l-63.787-22.726a4.021,4.021,0,0,0-2.7,0l-63.787,22.726a1.418,1.418,0,0,0,0,2.671l63.787,22.726a4.018,4.018,0,0,0,2.7,0l63.787-22.726a1.417,1.417,0,0,0,0-2.671" transform="translate(-3101.16 557.739)" fill="#6b96e9"/>
    <path id="Path_3333" data-name="Path 3333" d="M898.767,196.768a4.534,4.534,0,0,1-1.522-.262L833.459,173.78a1.933,1.933,0,0,1,0-3.642l63.787-22.726a4.543,4.543,0,0,1,3.043,0l63.787,22.726a1.933,1.933,0,0,1,0,3.642l-63.787,22.726a4.534,4.534,0,0,1-1.522.262m0-48.588a3.5,3.5,0,0,0-1.176.2L833.8,171.109a.9.9,0,0,0,0,1.7l63.787,22.726a3.512,3.512,0,0,0,2.351,0l63.787-22.726a.9.9,0,0,0,0-1.7l-63.787-22.726a3.5,3.5,0,0,0-1.175-.2" transform="translate(-3099.418 559.478)"/>
    <path id="Path_3334" data-name="Path 3334" d="M1265.66,398.669a2.4,2.4,0,0,0-2.4,2.238l-2.449,35.5h9.693l-2.449-35.5a2.4,2.4,0,0,0-2.4-2.238" transform="translate(-3430.103 365.437)" fill="#737f8b"/>
    <path id="Path_3335" data-name="Path 3335" d="M1268.765,435.186h-9.693a.516.516,0,0,1-.515-.551l2.449-35.505a2.919,2.919,0,0,1,5.824,0l2.45,35.505a.516.516,0,0,1-.515.551m-9.141-1.032h8.588L1265.8,399.2a1.887,1.887,0,0,0-3.765,0Z" transform="translate(-3428.361 367.178)"/>
    <path id="Path_3336" data-name="Path 3336" d="M1158.045,286.711a.516.516,0,0,1-.516-.516v-18.41l-35.872-13.33a.516.516,0,1,1,.359-.967l36.208,13.455a.516.516,0,0,1,.336.484V286.2a.516.516,0,0,1-.516.516" transform="translate(-3322.488 477.465)"/>
    <path id="Path_3337" data-name="Path 3337" d="M1622.082,152.261a.516.516,0,0,1-.177-1l27.222-9.97a.516.516,0,1,1,.355.969l-27.222,9.97a.514.514,0,0,1-.177.032" transform="translate(-3708.415 564.023)"/>
    <path id="Path_3338" data-name="Path 3338" d="M1522.427,124.556a.516.516,0,0,1-.177-1l11.116-4.071a.516.516,0,1,1,.355.969l-11.116,4.071a.514.514,0,0,1-.177.032" transform="translate(-3631.533 580.845)"/>
    <path id="Path_3339" data-name="Path 3339" d="M1623.58,50.52a.516.516,0,0,1-.177-1l41.03-15.028a.516.516,0,0,1,.355.969l-41.03,15.028a.513.513,0,0,1-.177.032" transform="translate(-3709.57 646.415)"/>
    <path id="Path_3340" data-name="Path 3340" d="M53.8,1444.262a.516.516,0,0,1-.177-1l11.278-4.13a.516.516,0,1,1,.355.969l-11.278,4.13a.514.514,0,0,1-.177.032" transform="translate(-2498.525 -437.23)"/>
    <path id="Path_3341" data-name="Path 3341" d="M140.637,1412.7a.516.516,0,0,1-.177-1l11.084-4.06a.516.516,0,0,1,.355.969l-11.084,4.06a.514.514,0,0,1-.177.032" transform="translate(-2565.516 -412.934)"/>
    <path id="Path_3342" data-name="Path 3342" d="M550.017,1257.792a.516.516,0,0,1-.177-1l15.1-5.531a.516.516,0,0,1,.355.969l-15.1,5.531a.513.513,0,0,1-.177.032" transform="translate(-2881.343 -292.291)"/>
    <path id="Path_3343" data-name="Path 3343" d="M639.092,1216.429a.516.516,0,0,1-.177-1l22.169-8.12a.516.516,0,0,1,.355.969l-22.169,8.119a.513.513,0,0,1-.177.032" transform="translate(-2950.062 -258.385)"/>
    <path id="Path_3344" data-name="Path 3344" d="M.516,1380.881a.516.516,0,0,1-.177-1l20.942-7.67a.516.516,0,1,1,.355.969L.693,1380.849a.516.516,0,0,1-.177.032" transform="translate(-2457.416 -385.601)"/>
    <path id="Path_3345" data-name="Path 3345" d="M549.509,1169.49a.516.516,0,0,1-.177-1l29.287-10.726a.516.516,0,0,1,.355.969l-29.287,10.726a.513.513,0,0,1-.177.032" transform="translate(-2880.951 -220.161)"/>
    <path id="Path_3346" data-name="Path 3346" d="M701,1129.977a.516.516,0,0,1-.177-1l16.369-6a.516.516,0,0,1,.355.969l-16.369,6a.513.513,0,0,1-.177.032" transform="translate(-2997.825 -193.328)"/>
    <path id="Path_3347" data-name="Path 3347" d="M1706.41,1096.2a.516.516,0,0,1-.177-1l22.169-8.12a.516.516,0,0,1,.355.969l-22.169,8.12a.514.514,0,0,1-.177.032" transform="translate(-3773.471 -165.63)"/>
    <path id="Path_3348" data-name="Path 3348" d="M1616.827,1049.259a.516.516,0,0,1-.177-1l29.287-10.727a.516.516,0,0,1,.354.969L1617,1049.228a.514.514,0,0,1-.177.032" transform="translate(-3704.36 -127.406)"/>
    <path id="Path_3349" data-name="Path 3349" d="M1768.322,1009.746a.516.516,0,0,1-.177-1l16.369-6a.516.516,0,0,1,.355.969l-16.369,6a.514.514,0,0,1-.177.032" transform="translate(-3821.235 -100.572)"/>
    <path id="Path_3350" data-name="Path 3350" d="M1716.023,860.968a.516.516,0,0,1-.177-1l11.278-4.131a.516.516,0,1,1,.355.969l-11.278,4.131a.514.514,0,0,1-.177.032" transform="translate(-3780.887 12.767)"/>
    <path id="Path_3351" data-name="Path 3351" d="M1662.737,797.587a.516.516,0,0,1-.177-1l20.943-7.67a.516.516,0,1,1,.354.969l-20.942,7.67a.513.513,0,0,1-.177.032" transform="translate(-3739.779 64.395)"/>
    <path id="Path_3352" data-name="Path 3352" d="M807.947,1515.155a.516.516,0,0,1-.177-1l17.238-6.314a.516.516,0,0,1,.355.969l-17.239,6.314a.513.513,0,0,1-.177.032" transform="translate(-3080.329 -490.237)"/>
    <path id="Path_3353" data-name="Path 3353" d="M909.624,1467.939a.516.516,0,0,1-.177-1l25.306-9.268a.516.516,0,1,1,.355.969l-25.306,9.268a.514.514,0,0,1-.177.032" transform="translate(-3158.771 -451.532)"/>
    <path id="Path_3354" data-name="Path 3354" d="M807.366,1414.36a.516.516,0,0,1-.177-1l33.431-12.244a.516.516,0,1,1,.355.969l-33.431,12.244a.514.514,0,0,1-.177.032" transform="translate(-3079.881 -407.901)"/>
    <path id="Path_3355" data-name="Path 3355" d="M980.295,1369.257a.516.516,0,0,1-.177-1l18.685-6.843a.516.516,0,1,1,.355.969l-18.685,6.843a.513.513,0,0,1-.177.032" transform="translate(-3213.292 -377.272)"/>
    <path id="Path_3356" data-name="Path 3356" d="M1083.419,1193.315c4.366,1.5,7.5,11.738,9.551,15.7q.069.133.137.261a1.3,1.3,0,0,0,2.411-.327c1.088-4.852,1.547-9.734-2.957-13.583-7.5-6.415-8.868-12.284-8.459-19.108a16.7,16.7,0,0,0-2.615-9.8,47.3,47.3,0,0,1-3.47-6.7c-18.052-42.516,10.874-30.443,13.453-20.216,1.842,7.3-.955,11.738,5.412,16.833,8.077,6.464,8.732,13.376,8.55,16.56s-3,7.916,3.275,14.1,6.458,13.285,4.093,20.473,2.092,12.83,4.548,15.741l.012.015a.927.927,0,0,0,1.6-.263,8.638,8.638,0,0,1,5.032-5.029c2.092-.91,4.366-5,6.094-10.737s13.1-10.919,17.555-8.462,7.095,13.1,3.456,18.471-21.921,10.373-21.011,18.2-12.552,12.466-12.552,12.466a4.776,4.776,0,0,1-2.249-1.134c-3.538,2.117-8.818,4.19-11.8.178-.444-.6-.889-1.266-1.33-2-1.236-.073-3.1-.763-5.9-2.507-10.505-6.552-7.777-12.011-9.414-16.652s-8.732-11.738-8.732-11.738c-9.278-14.6.955-22.247,5.321-20.746" transform="translate(-3284.53 -198.572)" fill="#cfdfff"/>
    <path id="Path_3357" data-name="Path 3357" d="M1106.392,1248a5.988,5.988,0,0,1-5.044-2.473c-.4-.537-.811-1.147-1.221-1.815a15.663,15.663,0,0,1-5.87-2.56c-8.054-5.023-8.537-9.442-8.964-13.34a15.857,15.857,0,0,0-.664-3.577c-1.58-4.479-8.54-11.475-8.61-11.545a.52.52,0,0,1-.071-.088c-6.449-10.151-3.217-16.226-1.528-18.367,2.019-2.558,5.222-3.911,7.452-3.144,3.532,1.215,6.114,7.329,8.188,12.241.628,1.486,1.169,2.77,1.653,3.706l.134.256a.779.779,0,0,0,1.452-.2c.973-4.342,1.641-9.292-2.788-13.078-8.2-7.011-9-13.531-8.639-19.531a16.076,16.076,0,0,0-2.537-9.492,48.039,48.039,0,0,1-3.508-6.775c-7.787-18.34-6.489-25.692-4.028-28.629,1.561-1.864,4.073-2.513,7.072-1.826,5.111,1.17,10.324,5.709,11.384,9.912a31.644,31.644,0,0,1,.819,6.521c.185,3.781.331,6.767,4.415,10.036,8.082,6.468,8.947,13.422,8.743,16.992a15.838,15.838,0,0,1-.338,2.151c-.612,3.026-1.372,6.793,3.459,11.556,5.655,5.575,7.036,12.445,4.221,21-2.359,7.172,2.414,12.831,4.452,15.248a.437.437,0,0,0,.42.172.4.4,0,0,0,.309-.264,9.1,9.1,0,0,1,5.312-5.326c1.893-.824,4.118-4.813,5.806-10.413,1.112-3.688,5.62-6.674,9.143-8.11,3.724-1.518,7.146-1.763,9.155-.656,2.158,1.189,3.986,4.149,4.892,7.918,1.048,4.365.578,8.587-1.257,11.295-1.477,2.179-5.141,4.237-9.02,6.416-5.823,3.271-12.424,6.979-11.907,11.434.947,8.143-12.331,12.818-12.9,13.013a.521.521,0,0,1-.237.023,5.164,5.164,0,0,1-2.227-1.019,14.724,14.724,0,0,1-7.127,2.333m-29.6-36c.639.644,7.2,7.326,8.813,11.891a16.606,16.606,0,0,1,.717,3.808c.4,3.665.855,7.819,8.484,12.577,2.463,1.536,4.366,2.353,5.658,2.429a.517.517,0,0,1,.411.248c.439.728.878,1.386,1.3,1.956,2.7,3.628,7.541,1.832,11.126-.313a.515.515,0,0,1,.6.053,4.514,4.514,0,0,0,1.87.99c1.352-.5,12.886-4.944,12.081-11.873-.6-5.138,6.322-9.024,12.426-12.452,3.77-2.118,7.331-4.118,8.671-6.095,1.65-2.435,2.075-6.449,1.108-10.475-.826-3.439-2.507-6.219-4.387-7.255-1.713-.944-4.881-.673-8.268.707-4.294,1.751-7.728,4.745-8.544,7.452-1.827,6.06-4.153,10.091-6.382,11.061a8.135,8.135,0,0,0-4.753,4.732,1.423,1.423,0,0,1-1.1.928,1.452,1.452,0,0,1-1.376-.511c-2.159-2.56-7.193-8.528-4.654-16.247,2.718-8.261,1.458-14.6-3.965-19.945-5.229-5.155-4.372-9.4-3.747-12.495a15.137,15.137,0,0,0,.319-2.005c.193-3.371-.637-9.95-8.358-16.128-4.447-3.559-4.611-6.91-4.8-10.791a30.8,30.8,0,0,0-.789-6.319c-.96-3.8-5.92-8.084-10.615-9.159-1.841-.421-4.385-.506-6.051,1.483-1.863,2.224-3.8,8.763,4.187,27.564a46.967,46.967,0,0,0,3.432,6.629,17.1,17.1,0,0,1,2.693,10.1c-.4,6.627.858,12.341,8.28,18.685,4.865,4.158,4.164,9.452,3.125,14.088a1.811,1.811,0,0,1-3.369.456l-.139-.266c-.5-.971-1.052-2.272-1.687-3.778-1.889-4.475-4.476-10.6-7.573-11.667-1.56-.537-4.3.265-6.307,2.807-1.55,1.965-4.5,7.562,1.559,17.127" transform="translate(-3282.817 -196.84)"/>
    <path id="Path_3358" data-name="Path 3358" d="M1140.786,1281.142h-.008a.516.516,0,0,1-.508-.524c.841-52.332-26.509-99.476-26.785-99.946a.516.516,0,1,1,.889-.523c.278.472,27.773,47.856,26.928,100.485a.516.516,0,0,1-.516.508" transform="translate(-3316.387 -237.259)"/>
    <path id="Path_3359" data-name="Path 3359" d="M1278.088,1494.343a.544.544,0,0,1-.089-.008.516.516,0,0,1-.42-.6c4.042-23.2,27.7-38.365,27.942-38.515a.516.516,0,1,1,.551.873c-.235.148-23.514,15.078-27.476,37.82a.516.516,0,0,1-.508.427" transform="translate(-3443.031 -449.608)"/>
    <path id="Path_3360" data-name="Path 3360" d="M1148.7,1503.648a.516.516,0,0,1-.5-.379c-4.4-15.926-16.847-33.138-16.972-33.31a.516.516,0,0,1,.834-.607c.126.174,12.682,17.534,17.132,33.643a.517.517,0,0,1-.5.653" transform="translate(-3330.059 -460.405)"/>
    <path id="Path_3361" data-name="Path 3361" d="M1197.217,1441.4a.514.514,0,0,1-.375-.161,37.575,37.575,0,0,1-6.595-10.812.516.516,0,0,1,.963-.37,37.247,37.247,0,0,0,6.381,10.473.516.516,0,0,1-.375.87" transform="translate(-3375.636 -429.995)"/>
    <path id="Path_3362" data-name="Path 3362" d="M1199.311,1477.192a.513.513,0,0,1-.28-.083,19.647,19.647,0,0,1-7.179-9.147.516.516,0,0,1,.975-.339,18.946,18.946,0,0,0,6.765,8.621.516.516,0,0,1-.281.949" transform="translate(-3376.878 -458.967)"/>
    <path id="Path_3363" data-name="Path 3363" d="M1158.28,1543.7a.517.517,0,0,1-.177-.032c-3.989-1.46-9.911-9.775-10.161-10.128a.516.516,0,0,1,.842-.6c.059.084,5.985,8.406,9.674,9.756a.516.516,0,0,1-.177,1" transform="translate(-3342.951 -509.462)"/>
    <path id="Path_3364" data-name="Path 3364" d="M1352.379,1458.752a.516.516,0,0,1-.511-.453,14.514,14.514,0,0,1,3.187-10.7.516.516,0,0,1,.773.684,13.715,13.715,0,0,0-2.936,9.888.516.516,0,0,1-.449.575.51.51,0,0,1-.064,0" transform="translate(-3500.271 -443.655)"/>
    <path id="Path_3365" data-name="Path 3365" d="M1302.649,1529.9a.516.516,0,0,1-.2-.993c6.387-2.65,13.2-8.335,13.263-8.392a.516.516,0,0,1,.664.79c-.069.058-7,5.845-13.532,8.555a.516.516,0,0,1-.2.04" transform="translate(-3461.979 -499.943)"/>
    <path id="Path_3366" data-name="Path 3366" d="M1182.708,1292.245a.516.516,0,0,1-.476-.715c2.234-5.341.718-12.406.7-12.477a.516.516,0,1,1,1.008-.222c.066.3,1.6,7.458-.758,13.1a.515.515,0,0,1-.476.317" transform="translate(-3369.448 -313.273)"/>
    <path id="Path_3367" data-name="Path 3367" d="M1164.161,1656.082a22,22,0,0,0,22-22v-12.053h-44v12.053a22,22,0,0,0,22,22" transform="translate(-3338.565 -578.355)" fill="#6b96e9"/>
    <path id="Path_3368" data-name="Path 3368" d="M1162.419,1654.856a22.542,22.542,0,0,1-22.517-22.516v-12.053a.516.516,0,0,1,.516-.516h44a.516.516,0,0,1,.516.516v12.053a22.542,22.542,0,0,1-22.516,22.516m-21.485-34.053v11.537a21.485,21.485,0,0,0,42.969,0V1620.8Z" transform="translate(-3336.823 -576.613)"/>
  </g>
</svg>
