<svg xmlns="http://www.w3.org/2000/svg" width="19" height="19" viewBox="0 0 19 19">
  <g id="vuesax_bulk_location" data-name="vuesax/bulk/location" transform="translate(-428 -188)">
    <g id="location" transform="translate(428 188)">
      <path id="Vector" d="M13.854,5.3A6.829,6.829,0,0,0,7.03,0H7.022A6.827,6.827,0,0,0,.2,5.3c-.926,4.085,1.575,7.545,3.84,9.722a4.292,4.292,0,0,0,5.977,0C12.279,12.841,14.78,9.389,13.854,5.3Z" transform="translate(2.47 1.385)" fill="#0084ff" opacity="0.4"/>
      <path id="Vector-2" data-name="Vector" d="M4.987,2.494A2.494,2.494,0,1,1,2.494,0,2.494,2.494,0,0,1,4.987,2.494Z" transform="translate(7.006 5.668)" fill="#0084ff"/>
      <path id="Vector-3" data-name="Vector" d="M0,0H19V19H0Z" fill="none" opacity="0"/>
    </g>
  </g>
</svg>