<svg id="machine-learning-model" xmlns="http://www.w3.org/2000/svg" width="18" height="18" viewBox="0 0 18 18">
  <path id="Path_11637" data-name="Path 11637" d="M22.84,22.151a1.592,1.592,0,0,0-.691.162L19.836,20H18v1.076h1.391l2,2a1.6,1.6,0,0,0-.162.691,1.613,1.613,0,1,0,1.613-1.613Zm0,2.151a.538.538,0,1,1,.538-.538.538.538,0,0,1-.538.538Z" transform="translate(-8.32 -9.244)" fill="#7c8da6"/>
  <path id="Path_11638" data-name="Path 11638" d="M22.84,13a1.611,1.611,0,0,0-1.514,1.076H18v1.076h3.326A1.611,1.611,0,1,0,22.84,13Zm0,2.151a.538.538,0,1,1,.538-.538.538.538,0,0,1-.538.538Z" transform="translate(-8.32 -6.009)" fill="#7c8da6"/>
  <path id="Path_11639" data-name="Path 11639" d="M22.84,2a1.615,1.615,0,0,0-1.613,1.613,1.6,1.6,0,0,0,.187.738L19.4,6.3H18V7.378h1.831L22.2,5.091A1.613,1.613,0,1,0,22.84,2Zm0,2.151a.538.538,0,1,1,.538-.538A.538.538,0,0,1,22.84,4.151Z" transform="translate(-8.32 -0.924)" fill="#7c8da6"/>
  <path id="Path_11640" data-name="Path 11640" d="M10.6,5.076H11.68V4H10.6a2.138,2.138,0,0,0-1.613.743A2.138,2.138,0,0,0,7.378,4H6.84A4.845,4.845,0,0,0,2,8.84v3.227a4.845,4.845,0,0,0,4.84,4.84h.538a2.138,2.138,0,0,0,1.613-.743,2.138,2.138,0,0,0,1.613.743H11.68V15.831H10.6a1.077,1.077,0,0,1-1.076-1.076v-8.6A1.077,1.077,0,0,1,10.6,5.076ZM7.378,15.831H6.84A3.767,3.767,0,0,1,3.119,12.6H4.151V11.529H3.076V9.378H4.689A1.615,1.615,0,0,0,6.3,7.765V6.689H5.227V7.765a.538.538,0,0,1-.538.538H3.119A3.767,3.767,0,0,1,6.84,5.076h.538A1.077,1.077,0,0,1,8.453,6.151V8.3H7.378V9.378H8.453v2.151H7.378a1.615,1.615,0,0,0-1.613,1.613v1.076H6.84V13.142a.538.538,0,0,1,.538-.538H8.453v2.151A1.077,1.077,0,0,1,7.378,15.831Z" transform="translate(-0.924 -1.849)" fill="#7c8da6"/>
  <rect id="_Transparent_Rectangle_" data-name="&lt;Transparent Rectangle&gt;" width="18" height="18" fill="none"/>
</svg>
