<svg xmlns="http://www.w3.org/2000/svg" width="25" height="25" viewBox="0 0 25 25">
  <g id="money" transform="translate(0.14 0.141)">
    <rect id="Rectangle_4066" data-name="Rectangle 4066" width="21.393" height="1.528" transform="translate(1.528 16.809)" fill="#347ae2"/>
    <rect id="Rectangle_4067" data-name="Rectangle 4067" width="21.393" height="1.528" transform="translate(1.528 19.865)" fill="#347ae2"/>
    <path id="Path_11641" data-name="Path 11641" d="M23.528,10a1.528,1.528,0,1,0,1.528,1.528A1.528,1.528,0,0,0,23.528,10Z" transform="translate(-5.191 -2.36)" fill="#347ae2"/>
    <path id="Path_11642" data-name="Path 11642" d="M15.056,14.112a3.056,3.056,0,1,1,3.056-3.056,3.056,3.056,0,0,1-3.056,3.056Zm0-4.584a1.528,1.528,0,1,0,1.528,1.528A1.528,1.528,0,0,0,15.056,9.528Z" transform="translate(-2.832 -1.888)" fill="#347ae2"/>
    <path id="Path_11643" data-name="Path 11643" d="M7.528,10a1.528,1.528,0,1,0,1.528,1.528A1.528,1.528,0,0,0,7.528,10Z" transform="translate(-1.416 -2.36)" fill="#347ae2"/>
    <path id="Path_11644" data-name="Path 11644" d="M21.865,16.224H3.528A1.532,1.532,0,0,1,2,14.7V5.528A1.532,1.532,0,0,1,3.528,4H21.865a1.532,1.532,0,0,1,1.528,1.528V14.7a1.53,1.53,0,0,1-1.528,1.528Zm0-10.7H3.528V14.7H21.865Z" transform="translate(-0.472 -0.944)" fill="#347ae2"/>
    <rect id="_Transparent_Rectangle_" data-name="&lt;Transparent Rectangle&gt;" width="25" height="25" transform="translate(-0.14 -0.141)" fill="none"/>
  </g>
</svg>