<svg xmlns="http://www.w3.org/2000/svg" width="112.68" height="41.508" viewBox="0 0 112.68 41.508">
  <g id="Group_2062" data-name="Group 2062" transform="translate(0)">
    <g id="Group_2063" data-name="Group 2063">
      <path id="Path_3519" data-name="Path 3519" d="M13.126,0a10.152,10.152,0,0,1,0,14.357l-1.354,1.354a4.509,4.509,0,0,0,6.376,6.376l-1.84,1.84a9.583,9.583,0,0,1-13.647-.092A9.724,9.724,0,0,1,2.9,10.222Z" transform="translate(0)" fill="#0f54ef"/>
      <path id="Path_3520" data-name="Path 3520" d="M53.931,81.493a10.152,10.152,0,0,1,0-14.357l1.354-1.354a4.509,4.509,0,0,0-6.376-6.376l1.84-1.84a9.583,9.583,0,0,1,13.647.092,9.724,9.724,0,0,1-.242,13.613Z" transform="translate(-35.714 -39.985)" fill="#0f54ef"/>
      <path id="Path_3521" data-name="Path 3521" d="M147.665,56.213H151.7c.143,1.787,1.859,3,4.254,3s4-.929,4-2.323c0-.858-1.072-1.465-4.4-2.109-5.183-1.18-6.827-2.359-6.827-5.326,0-3.324,2.9-5.541,7.221-5.541a7.771,7.771,0,0,1,7.471,4.647l-3.932.965a3.825,3.825,0,0,0-3.539-2.037c-1.752,0-2.931.715-2.931,1.751,0,.751.823,1.215,3.36,1.787,5.969,1.251,7.864,2.61,7.864,5.862,0,3.539-3.325,5.9-8.293,5.9-4.826,0-8.15-2.645-8.293-6.577" transform="translate(-107.828 -32.068)" fill="#081849"/>
      <rect id="Rectangle_2991" data-name="Rectangle 2991" width="4.29" height="13.826" transform="translate(58.28 16.395)" fill="#081849"/>
      <rect id="Rectangle_2992" data-name="Rectangle 2992" width="4.29" height="13.826" transform="translate(66.214 16.395)" fill="#081849"/>
      <path id="Path_3522" data-name="Path 3522" d="M273.521,44.687h4.29V45.74a7.485,7.485,0,0,1,4.861-1.823c4.9,0,8.15,2.9,8.15,7.256V62.29h-4.29V51.674c0-2.395-1.751-3.968-4.361-3.968s-4.361,1.573-4.361,3.968V62.29h-4.29Z" transform="translate(-199.73 -32.069)" fill="#081849"/>
      <path id="Path_3523" data-name="Path 3523" d="M345.857,53.353c0-5.648,3.861-9.437,9.687-9.437s9.687,3.789,9.687,9.437v.822l-.358.357H350.218a5.222,5.222,0,0,0,5.326,4.683,5.418,5.418,0,0,0,4.9-3H364.8a9.46,9.46,0,0,1-9.258,6.577c-5.826,0-9.687-3.789-9.687-9.437m14.727-2.395a5.4,5.4,0,0,0-10.08,0Z" transform="translate(-252.551 -32.068)" fill="#081849"/>
      <path id="Path_3524" data-name="Path 3524" d="M216.759,43.917v3.292h4.088v-.733a2.559,2.559,0,0,0-2.559-2.559Z" transform="translate(-158.282 -32.069)" fill="#081849"/>
      <path id="Path_3525" data-name="Path 3525" d="M245.81,43.917v3.292H249.9v-.733a2.559,2.559,0,0,0-2.559-2.559Z" transform="translate(-179.495 -32.069)" fill="#081849"/>
    </g>
  </g>
</svg>
