<svg id="Group_12104" data-name="Group 12104" xmlns="http://www.w3.org/2000/svg" xmlns:xlink="http://www.w3.org/1999/xlink" width="366.174" height="473.121" viewBox="0 0 366.174 473.121">
  <defs>
    <clipPath id="clip-path">
      <rect id="Rectangle_4186" data-name="Rectangle 4186" width="366.174" height="473.121" fill="none"/>
    </clipPath>
    <clipPath id="clip-path-3">
      <rect id="Rectangle_4184" data-name="Rectangle 4184" width="366.174" height="17.264" fill="none"/>
    </clipPath>
  </defs>
  <g id="Group_12103" data-name="Group 12103" clip-path="url(#clip-path)">
    <g id="Group_12102" data-name="Group 12102">
      <g id="Group_12101" data-name="Group 12101" clip-path="url(#clip-path)">
        <g id="Group_12100" data-name="Group 12100" transform="translate(0 455.857)" opacity="0.5">
          <g id="Group_12099" data-name="Group 12099">
            <g id="Group_12098" data-name="Group 12098" clip-path="url(#clip-path-3)">
              <path id="Path_11975" data-name="Path 11975" d="M366.174,179.424c0,4.767-81.97,8.632-183.088,8.632S0,184.191,0,179.424s81.97-8.632,183.085-8.632,183.088,3.865,183.088,8.632" transform="translate(0 -170.792)" fill="#b4c4db"/>
            </g>
          </g>
        </g>
        <path id="Path_11976" data-name="Path 11976" d="M89.784,80.766c-33.855,4.954-41.91,1.364-50.432,38.162S25.726,185.369,28.793,188.1,52.3,198.659,70.361,199,100,195.934,100,195.934s3.747-117.213-10.22-115.168" transform="translate(46.561 134.76)" fill="#2f60bf"/>
        <path id="Path_11977" data-name="Path 11977" d="M44.5,168.105c-4.089,1.108-7.412,3.833-7.412,7.751s-.766,4.6,4.858,4.6,11.242-.171,11.584-.937-.256-9.457-1.874-11.245-7.156-.171-7.156-.171" transform="translate(61.852 279.462)" fill="#7e56b2"/>
        <path id="Path_11978" data-name="Path 11978" d="M37.091,171.442c-.035,3.641-.609,4.308,4.86,4.308,5.621,0,11.245-.168,11.584-.937a18.328,18.328,0,0,0-.125-4.559,94.305,94.305,0,0,1-16.319,1.188" transform="translate(61.852 284.167)" fill="#2b183f"/>
        <path id="Path_11979" data-name="Path 11979" d="M54.054,111.007c-11.549.924-20.1,4.77-20.33,35.21S44.058,264.111,44.058,264.111s7.951,2.5,14.312-1.818,5.226-86.774,7.041-97-5.677-54.743-11.357-54.289" transform="translate(56.281 185.274)" fill="#452962"/>
        <path id="Path_11980" data-name="Path 11980" d="M46.588,113.057c-.8,13.228-2.517,26.365-3.675,39.6-1.4,16.044-.737,32.114-1.641,48.177-1.134,20.1-.614,40.242-.582,60.364a14.715,14.715,0,0,0,6.288-2.335c6.36-4.316,5.226-86.774,7.044-96.994,1.415-7.956-2.813-36.676-7.433-48.815" transform="translate(67.669 188.701)" fill="#2b183f"/>
        <path id="Path_11981" data-name="Path 11981" d="M40.767,171.061c-1.281,6.958,28.167,15.446,28.167,5.792s-25.781-18.74-28.167-5.792" transform="translate(67.976 274.8)" fill="#2b183f"/>
        <path id="Path_11982" data-name="Path 11982" d="M43.721,187.741,46.9,158.779l10.788-.8,1.7,32.371Z" transform="translate(72.973 263.687)" fill="#fef6f0"/>
        <path id="Path_11983" data-name="Path 11983" d="M61.641,112.417C82.879,114.8,88.217,122.64,84.131,144.9s-8.4,56.563-9.769,67.013-5.453,52.245-5.453,52.245-5.338-11.584-16.58-9.2-11.586,3.408-11.586,3.408,1.706-33.051,3.408-58.947-.342-77.006-.342-77.006,7.724-11.133,17.832-10" transform="translate(68.002 187.497)" fill="#452962"/>
        <path id="Path_11984" data-name="Path 11984" d="M78.15,169.951c1.3-8.8,2.693-17.6,4.06-25.052,4.089-22.26-1.249-30.1-22.487-32.483-10.11-1.134-17.832,10-17.832,10s.28,7.014.547,17.154c14.074,6.2,26.117,17.829,35.712,30.385" transform="translate(69.919 187.497)" fill="#2b183f"/>
        <path id="Path_11985" data-name="Path 11985" d="M69.518,86.686C79.791,93.444,80.7,117.3,80.7,117.3s7.041-13.628,10-16.129,12.264-3.633,11.357,4.545-7.495,29.074-15.219,34.3-21.806-2.728-26.579-15.219,9.264-38.106,9.264-38.106" transform="translate(98.917 144.686)" fill="#fef6f0"/>
        <path id="Path_11986" data-name="Path 11986" d="M65.069,80.622C62.088,83.6,45.307,99.362,44.456,102.6S33.1,184.887,32.642,188.976s21.353-.683,39.753,2.952,28.621,3.635,29.3,2.5.91-24.078,5.68-51.791,11.357-42.676,6.587-45.828S98.633,88.573,97.042,86.585a9.367,9.367,0,0,1-1.874-4.2Z" transform="translate(54.471 134.564)" fill="#fef6f0"/>
        <path id="Path_11987" data-name="Path 11987" d="M59.708,121.321a17.137,17.137,0,0,1,1.66,1.433c.163.163.3.334.448.5.128-.761.243-1.511.374-2.279,1.788-10.391,3.833-18.988,5.437-25.842-1.695-.563-3.379-1.065-5.058-1.532a55.746,55.746,0,0,1-2.119,25.831c-.195.614-.47,1.252-.742,1.89" transform="translate(99.657 156.226)" fill="#e6e0eb"/>
        <path id="Path_11988" data-name="Path 11988" d="M62.336,135.953c2.888-13.562,18.158-25.709,11.755-40.378-.171-.39-4.695-1.922-4.847-2.317a99.629,99.629,0,0,0-10.118,2.616c-6.742,2.119-12.334.51-16.316-2.981-3.195,22.495-9.809,72.375-10.167,75.6-.408,3.67,17.141.216,34.052,2.1-5.613-11.077-7.1-21.78-4.359-34.645" transform="translate(54.471 155.046)" fill="#e6e0eb"/>
        <path id="Path_11989" data-name="Path 11989" d="M50.694,88.285c-.729,2.327,15.163,11.925,15.5,21.977s-9.371,36.8-32.371,54.858a53.486,53.486,0,0,0-.681,5.963c0,1.874,18.569-7.324,31.175-31.858s10.735-31.348,4.431-41.058A43.241,43.241,0,0,0,54.27,84.2a7.7,7.7,0,0,0-3.577,4.089" transform="translate(55.325 140.53)" fill="#2f60bf"/>
        <path id="Path_11990" data-name="Path 11990" d="M58.756,113.822h0a12.054,12.054,0,0,0,12.054-12.054V80.9a12.054,12.054,0,0,0-24.107,0v20.87a12.054,12.054,0,0,0,12.054,12.054" transform="translate(77.949 114.908)" fill="#febdaa"/>
        <path id="Path_11991" data-name="Path 11991" d="M70.809,94.516V80.9a12.054,12.054,0,0,0-24.107,0v3.782c8.119,3.195,16.073,6.606,24.107,9.836" transform="translate(77.949 114.908)" fill="#c86c8e"/>
        <path id="Path_11992" data-name="Path 11992" d="M48.558,79.473S67.07,92.535,68.888,92.194s6.7-8.632,6.7-8.632,2.84,6.7-.456,11.018a29.071,29.071,0,0,1-6.7,6.473S44.127,88.785,44.127,83.108c0-1.364,4.431-3.635,4.431-3.635" transform="translate(73.651 132.647)" fill="#fff"/>
        <path id="Path_11993" data-name="Path 11993" d="M45.784,121.518c3.862-1.364,5.792,1.591,7.61,4.431s1.364,2.5,1.93,5.565,2.159,4.316,1.706,5.111-3.067.793-3.067.793.8,5.111.339,6.817a4.165,4.165,0,0,1-3.064,3.067c-1.137.112-4.316.793-6.248-.456s-3.067-.566-4.089-8.29-1.818-12.948-1.818-13.97,6.7-3.067,6.7-3.067" transform="translate(65.231 202.25)" fill="#febdaa"/>
        <path id="Path_11994" data-name="Path 11994" d="M44.325,88.843c-6.763,7.73-4.77,12.267-9.086,33.393s-2.271,24.078,5.45,41.568,7.724,18.4,7.724,18.4,10.676-2.725,13.175-4.089S54.321,147.9,54.094,140.18s8.175-33.163,7.722-37.482S47.5,85.208,44.325,88.843" transform="translate(55.106 147.24)" fill="#fef6f0"/>
        <path id="Path_11995" data-name="Path 11995" d="M49.246,167.781c3.7,0,8.434,0,11.669,4.26s4.089,6.643,3.75,8.432-4.345,3.238-14.739,3.238-6.558-8.6-6.216-10.647,1.361-5.282,5.536-5.282" transform="translate(71.338 280.04)" fill="#7e56b2"/>
        <path id="Path_11996" data-name="Path 11996" d="M63.04,171.821A80.573,80.573,0,0,1,51.2,172.968a60.149,60.149,0,0,1-8.458-.806c.045,2.7,1.439,5.322,7.18,5.322,10.391,0,14.394-1.447,14.736-3.235a5.223,5.223,0,0,0-.331-2.738,8.606,8.606,0,0,1-1.289.31" transform="translate(71.343 286.265)" fill="#2b183f"/>
        <path id="Path_11997" data-name="Path 11997" d="M57.739,83.558s6.475,2.952,7.041,3.862.342,48.951.115,55.992a52.721,52.721,0,0,1-2.5,13.631s-5.111-41.285-4.658-54.233,0-19.252,0-19.252" transform="translate(96.323 139.465)" fill="#2f60bf"/>
        <path id="Path_11998" data-name="Path 11998" d="M48.543,65.87c15.152-10.911,30.438,0,32.936,3.862s2.271,5.792,2.84,7.383,6.36,5.907,6.36,10.562,2.386,12.04,1.022,13.062-19.989,3.406-25.1,1.591S45.364,87.791,42.182,82,45.7,67.915,48.543,65.87" transform="translate(69.009 102.068)" fill="#febdaa"/>
        <path id="Path_11999" data-name="Path 11999" d="M54.927,94.659c2.693-.224,5.389-.387,8.085-.5.112-.326.181-.651.307-.974.283-.8.536-1.6.742-2.413a23.052,23.052,0,0,0-.147-3.083l.144,1.062a19.994,19.994,0,0,1,2.25-11.408c2.282-4.321,6.643-7.124,11.165-8.586a14.178,14.178,0,0,1,2.69-.544C75.551,63.7,62.006,56.176,48.543,65.87,45.705,67.915,39,76.208,42.182,82c1.724,3.136,7.239,8.3,12.745,12.659" transform="translate(69.009 102.065)" fill="#c86c8e"/>
        <path id="Path_12000" data-name="Path 12000" d="M90.048,73.533s.342-8.52-9.029-12.1S54.272,62.459,47.967,67.57s-5.45,8.517-5.45,8.517-2.045-4.6-3.579-4.428,1.535,4.6,1.535,4.6-3.408-.339-3.408,1.706,3.238,1.19,3.238,1.19a10.016,10.016,0,0,0-.851,6.475C40.131,89.548,42,90.911,42,90.911s-.51,5.279,2.386,8.859a14.345,14.345,0,0,0,6.3,4.6s1.364,4.77,3.921,6.475a6.563,6.563,0,0,0,4.428,1.361s6.814-4.428,4.6-9.2-1.532-10.735.342-10.223,6.3,1.361,6.814,1.193-2.383-9.542-2.383-9.542,3.235-3.747,3.747-6.3a29.756,29.756,0,0,0,.51-5.111s2.9.854,3.579-3.747l.681-4.6s6.134,4.94,7.668,5.282a11.618,11.618,0,0,0,2.045.339Z" transform="translate(61.863 100.424)" fill="#f0b384"/>
        <path id="Path_12001" data-name="Path 12001" d="M71.541,60.978a16.368,16.368,0,0,0-1.719-.536A17.64,17.64,0,0,1,61,65.2C47.01,68.447,47.787,76.166,46.455,89.129a83.6,83.6,0,0,1-3.713,18.4,8.274,8.274,0,0,0,2.391,2.853,6.571,6.571,0,0,0,4.431,1.361s6.814-4.428,4.6-9.2-1.532-10.732.342-10.22,6.3,1.361,6.814,1.19-2.383-9.539-2.383-9.539,3.235-3.747,3.747-6.3a29.756,29.756,0,0,0,.51-5.111s2.9.854,3.579-3.747l.681-4.6s6.134,4.94,7.666,5.279a11.576,11.576,0,0,0,2.045.342l3.408,3.238s.342-8.52-9.029-12.1" transform="translate(71.34 100.882)" fill="#e28c7c"/>
        <path id="Path_12002" data-name="Path 12002" d="M45.211,80.883a6.365,6.365,0,0,0,8.482,1.567A5.529,5.529,0,0,0,54.8,74.387a6.365,6.365,0,0,0-8.482-1.564,5.528,5.528,0,0,0-1.108,8.061" transform="translate(73.368 119.887)" fill="#febdaa"/>
        <path id="Path_12003" data-name="Path 12003" d="M45,73.55s4.145-1.535,6.077,1.193" transform="translate(75.109 122.043)" fill="none" stroke="#c86c8e" stroke-width="0.25"/>
        <path id="Path_12004" data-name="Path 12004" d="M76.048,167.861c-2.045,4.884-2.5,13.062-.454,14.765s16.922.8,16.922.8l-.112,3.747a60.406,60.406,0,0,0,12.038,2.044c5.111.115,11.925-2.271,11.925-2.271l-9.424-13.516s-22.6-8.859-24.534-8.973-6.36,3.408-6.36,3.408" transform="translate(123.962 274.48)" fill="#2b183f"/>
        <path id="Path_12005" data-name="Path 12005" d="M115.712,179.617s-.227,8.178-.454,10.676,0,7.61,0,7.61l-7.271-.681-.454-4.2s-3.067.683-4.089-1.022-2.044-5.223-8.517-8.859S85.5,177.119,80.843,177s-5.907,1.818-5.907,1.818.342-3.294,1.591-3.974,6.019-1.022,7.271-1.591,6.7-14.312,9.993-15.334,21.921,17.947,21.921,21.694" transform="translate(125.074 263.519)" fill="#452962"/>
        <path id="Path_12006" data-name="Path 12006" d="M107.4,162.013c-11.373.969-12.494,9.312-13.628,14.992l-1.137,5.68s5.907,2.725,7.271,2.84,1.476-1.479,1.476-1.479.681,2.613,1.361,3.067,15.9,3.294,21.809,3.182,5.223-.683,5.109-4.543-1.476-5.453-3.974-7.724-3.974-7.041-3.635-10.335-9.312-6.134-14.651-5.68" transform="translate(154.62 270.332)" fill="#452962"/>
        <path id="Path_12007" data-name="Path 12007" d="M97.674,58.5c33.761-6.753,48.385,33.732,50.088,48.043s-.342,67.805-4.431,88.589-7.495,64.4-10.9,87.228-7.156,62.013-7.156,62.013-8.007-4.6-15.331-3.406-14.482,6.814-14.482,6.814-1.874-43.274.512-89.273,2.725-64.739-1.364-106.648S89.157,60.2,97.674,58.5" transform="translate(152.539 96.379)" fill="#7e56b2"/>
        <path id="Path_12008" data-name="Path 12008" d="M97.97,96.681c-1.62-3.3-3.9-6.134-5.851-9.1.382,4.871.809,9.723,1.273,14.472,4.086,41.913,3.747,60.652,1.361,106.651l-.008.171c2.271-7.233,4.084-62.649,5.965-70.021,8.015-31.439,3.747-28.962-2.741-42.174" transform="translate(153.754 146.181)" fill="#66459b"/>
        <path id="Path_12009" data-name="Path 12009" d="M112.455,59.365c-26.077-2.154-35.776,31.007-37.14,61.672s8.52,92.339,9.2,99.154S76,254.947,84.173,337.062c0,0,5.453-4.77,10.676-2.725s14.88,11.925,18.059,14.653l3.182,2.725s-1.022-21.921,0-45.43.454-81.663,2.045-96.882,11.584-53.382,13.628-63.831,6.814-84.049-19.308-86.206" transform="translate(125.491 98.919)" fill="#7e56b2"/>
        <path id="Path_12010" data-name="Path 12010" d="M147.761,106.54c-1.7-14.312-16.327-54.8-50.088-48.043-6.072,1.214-7.121,26.846-5.744,56.643a169.711,169.711,0,0,1,17.982,4.391c14.362,4.508,20.56,16.022,25.615,29.595,5.461,14.659,7.74,31.2,7.489,47.734.107-.571.211-1.188.315-1.73,4.089-20.784,6.134-74.278,4.431-88.589" transform="translate(152.54 96.379)" fill="#66459b"/>
        <path id="Path_12011" data-name="Path 12011" d="M77.138,103.021c17.869,6.753,36.847,7.866,55.055,12.985-.224-24.625-4.281-55.261-21-56.641-20.859-1.724-31.234,19.153-35.251,43.268.4.125.79.235,1.2.387" transform="translate(126.753 98.919)" fill="#66459b"/>
        <path id="Path_12012" data-name="Path 12012" d="M123.931,18.828c16.578-2.925,12.04-.681,24.532,2.725s39.98,12.494,40.207,14.765-12.264,86.094-11.584,93.135,6.36,38.389,5,39.98-16.353,4.77-16.353,4.77a123.38,123.38,0,0,1-18.174,4.316c-8.4,1.134-25.442,2.044-25.442,2.044s-18.171-3.182-25.9-5.907a49.706,49.706,0,0,1-12.494-6.36s7.951-39.753,7.951-42.478S70.1,46.995,70.776,45.634s49.293-26.125,53.155-26.806" transform="translate(118.104 29.17)" fill="#6ba9ed"/>
        <path id="Path_12013" data-name="Path 12013" d="M114.886,17.043c-2.952-5.394-15.048-2.669-23.4,1.762S85.7,37.2,87.742,39.076s25.554-6.814,27.94-11.413-.8-10.62-.8-10.62" transform="translate(143.048 23.46)" fill="#2f60bf"/>
        <path id="Path_12014" data-name="Path 12014" d="M118.463,50.919h0A14.311,14.311,0,0,0,120.7,30.8L109,16.168A14.312,14.312,0,0,0,86.645,34.045l11.7,14.635a14.311,14.311,0,0,0,20.114,2.239" transform="translate(139.383 18.018)" fill="#c86c8e"/>
        <path id="Path_12015" data-name="Path 12015" d="M104.983,15.175s2.952,12.948-2.952,20.216A68.978,68.978,0,0,1,91.638,46.067l17.888,10.223s3.862-27.486,3.182-30.665-7.724-10.449-7.724-10.449" transform="translate(152.951 25.328)" fill="#fff"/>
        <path id="Path_12016" data-name="Path 12016" d="M91.916,19.26,105.09,39.249s-10.449,6.59-12.038,9.315c0,0-10.223-19.765-9.315-23.624s8.178-5.68,8.178-5.68" transform="translate(139.67 32.146)" fill="#fff"/>
        <path id="Path_12017" data-name="Path 12017" d="M124.551,100.56c-2.434,6.045-22.943-8.859-18.854-19.877s22.148,11.7,18.854,19.877" transform="translate(175.52 129.73)" fill="#2f60bf"/>
        <path id="Path_12018" data-name="Path 12018" d="M128.554,80.519c-3.67-4.036-8.859.171-13.858-.512s-5.338-.454-8.4,2.274-2.613,3.179-4.772,7.495.342,4.543,2.5,5,8.973-5.565,10-4.316-.907,9.315-5.907,12.494S97.889,111.808,98,113.626s3.521,5.338,5.453,6.134,18.171-5.68,21.806-11.811,6.929-18.627,7.383-20.33-2.386-5.226-4.089-7.1" transform="translate(163.569 131.43)" fill="#efaa9a"/>
        <path id="Path_12019" data-name="Path 12019" d="M124.215,189.468s-.342-8.063-8.747-13.97-10.108-5.907-10.108-5.907,10.564-39.751,12.379-52.245,4.089-52.247,5.68-59.288,2.725-36.345,7.5-33.393,16.127,55.2,17.944,85.411-24.646,79.392-24.646,79.392" transform="translate(175.856 40.822)" fill="#76b8f4"/>
        <path id="Path_12020" data-name="Path 12020" d="M78.215,79.473c-6.134,1.818-12.04,4.543-10.791,18.966s7.383,22.831,7.61,23.739,7.156,2.271,8.293,1.476,5.565-2.84,5-4.428c0,0,2.725-1.479,2.613-3.635,0,0,3.294-2.613,3.635-5.226s1.022-9.312.227-10.562S83.9,85.265,83.9,85.265Z" transform="translate(112.255 132.647)" fill="#efaa9a"/>
        <path id="Path_12021" data-name="Path 12021" d="M71.192,82.345c6.12-9.179,13.487,5.706,16.442,8.093s6.216,5.933,4.855,10.137-.256,5.45-2.215,4.6a7.15,7.15,0,0,1-3.662-5.282c-.256-1.959-.085-5.026-3.494-5.536S70.511,91.63,70.511,91.63s.51-9.029.681-9.286" transform="translate(117.688 132.5)" fill="#efaa9a"/>
        <path id="Path_12022" data-name="Path 12022" d="M86.185,90.544c.254-1.874.342-4.684-3.835-5.111s-6.814-.937-7.495.512-.427,1.7-.427,1.7-2.9-.256-3.494.681.512,2.472,1.537,2.642c0,0-1.281,1.874.168,2.725a7.676,7.676,0,0,0,3.747.681,1.945,1.945,0,0,0,1.281,2.386c1.786.681,6.558,3.152,6.558,3.152s2.127-.683,1.788-2.386.766-2.811.339-4.513a4.925,4.925,0,0,1-.168-2.472" transform="translate(118.115 141.85)" fill="#febdaa"/>
        <path id="Path_12023" data-name="Path 12023" d="M79.72,28.026c-3.179,1.7-3.067,20.9-5.565,34.869s-5.453,42.478-6.929,53.382-4.2,4.77,2.442,69.679c0,0,11.245-8.007,18.4-8.346l7.156-.342a323.058,323.058,0,0,1-.512-33.732c.681-18.913,4.26-40.207,4.77-43.1S79.72,28.026,79.72,28.026" transform="translate(109.16 46.778)" fill="#76b8f4"/>
        <path id="Path_12024" data-name="Path 12024" d="M88.354,6.723C75.6,18.315,73.875,24.953,75.577,32.789s2.554,9.2,3.918,11.584,3.577,2.045,3.577,4.6,6.3,9.2,11.586,12.948,2.9,10.052,10.391,8.688,18.4-13.457,18.913-20.1S115.1,25.463,110.673,19.5,95.852-.091,88.354,6.723" transform="translate(125.228 8.112)" fill="#efaa9a"/>
        <path id="Path_12025" data-name="Path 12025" d="M94.816,29.723c14.992,9.2,19.236,9.358,25.42,7.441A103.59,103.59,0,0,0,110.667,19.5C106.237,13.537,95.846-.091,88.349,6.723c-10.522,9.563-13.53,15.758-13.305,22.033,1.321.173,12.942-3.227,19.773.966" transform="translate(125.234 8.112)" fill="#c86c8e"/>
        <path id="Path_12026" data-name="Path 12026" d="M120.668,49.079c-4.412-.3-5.282-4.6-8.349-6.475s-6.473-1.7-7.836-5.963-2.384-3.577-7.495-2.725S95.8,29.827,95.8,29.827a12.416,12.416,0,0,1-9.2,5.282c-6.473.681-5.621-3.918-5.621-3.918s-5.282,5.282-7.5,3.067,6.646-17.037,7.668-18.74-6.817,2.383-4.6-2.386S90.684,5.976,90.684,5.976A10.033,10.033,0,0,1,97.5.694c4.77-.851,17.72,4.772,17.72,4.772s-4.26-6.646-1.364-5.282,3.067,5.282,3.067,5.282,3.747-2.557,5.111-.854-4.089,3.067-4.089,3.067,8.346,2.9,9.539,5.963S128,17.56,128,17.56s3.238,4.431,3.238,7.156a15.671,15.671,0,0,1-1.193,5.453s.851,5.963.851,8.349-5.282,10.9-10.223,10.562" transform="translate(122.047 0)" fill="#f0b384"/>
        <path id="Path_12027" data-name="Path 12027" d="M110.9,8.24c-9.4-1.663-18.539,4.626-28.767,2.7A42.67,42.67,0,0,1,77.016,9.6c-2.445,4.706-4.807,10.105-3.539,11.373,2.215,2.215,7.5-3.067,7.5-3.067s-.854,4.6,5.621,3.918a12.6,12.6,0,0,0,8.795-4.716c-.849,1.268-2.437,4.2,1.6,3.523,5.111-.851,6.134-1.532,7.495,2.728s4.77,4.089,7.836,5.963,3.937,6.168,8.349,6.473c4.94.342,10.223-8.178,10.223-10.562,0-1.068-.171-2.84-.36-4.484C124.584,14.56,118.045,9.5,110.9,8.24" transform="translate(122.047 13.281)" fill="#e28c7c"/>
        <path id="Path_12028" data-name="Path 12028" d="M91.233,22.257c.9,4.049,3.747,6.542,6.347,5.565s3.969-5.053,3.059-9.1-3.747-6.542-6.347-5.565-3.969,5.053-3.059,9.1" transform="translate(151.805 21.604)" fill="#efaa9a"/>
        <path id="Path_12029" data-name="Path 12029" d="M94.8,14.175s-2.554,1.193-2.386,7.5" transform="translate(154.225 23.659)" fill="none" stroke="#c86c8e" stroke-width="0.25"/>
      </g>
    </g>
  </g>
</svg>
