<svg id="ibm-security" xmlns="http://www.w3.org/2000/svg" width="32" height="32.044" viewBox="0 0 32 32.044">
  <path id="IBM_Security_Shield" data-name="IBM Security Shield" d="M16,0,4,5.978V20.044a12,12,0,1,0,24,0V5.978Zm6.83,27.314L16,23.912V26.14l5.036,2.509A10,10,0,0,1,6,20.044V7.21L16,2.228,26,7.21v3.75L16,5.978V8.206l10,4.982v3.75L16,11.956v2.228l10,4.982v.879a9.9,9.9,0,0,1-.37,2.687L16,17.934v2.228l8.9,4.431a10.025,10.025,0,0,1-2.065,2.721Z" fill="#7c8da6"/>
  <rect id="_Transparent_Rectangle_" data-name="&lt;Transparent Rectangle&gt;" width="32" height="32" fill="none"/>
</svg>
