<svg xmlns="http://www.w3.org/2000/svg" width="13.545" height="13.546" viewBox="0 0 13.545 13.546">
  <path id="Path_12104" data-name="Path 12104" d="M907.471,279.8a1.034,1.034,0,0,0,.3-.735v-.126a1.034,1.034,0,0,0-1.036-1.036h-5.662l9.578-9.578a1.036,1.036,0,0,0-1.466-1.465l-9.578,9.577v-5.661a1.036,1.036,0,0,0-1.036-1.037h-.126a1.035,1.035,0,0,0-1.036,1.037v8.289a1.036,1.036,0,0,0,1.036,1.037h8.29A1.034,1.034,0,0,0,907.471,279.8Z" transform="translate(-897.411 -266.553)" fill="#ff3b30"/>
</svg>