<svg xmlns="http://www.w3.org/2000/svg" width="18" height="19.7" viewBox="0 0 18 19.7">
  <path id="Path_12039" data-name="Path 12039" d="M59.7,816c0-2.009,0-3.546.056-4.738a8.856,8.856,0,0,1,.345-2.446,1.113,1.113,0,0,1,.645-.743,4.98,4.98,0,0,1,1.831-.223,8.606,8.606,0,0,1,1.944.167,1.358,1.358,0,0,1,.7.334.845.845,0,0,1,.183.476A8.422,8.422,0,0,1,65.46,810a.78.78,0,1,0,1.553,0v-.043h0a9.651,9.651,0,0,0-.068-1.409,2.59,2.59,0,0,0-.617-1.4,2.808,2.808,0,0,0-1.466-.791,9.883,9.883,0,0,0-2.281-.208,6.22,6.22,0,0,0-2.394.339,2.737,2.737,0,0,0-1.525,1.7,10.488,10.488,0,0,0-.454,2.991c-.058,1.241-.058,2.821-.058,4.8h0v.048h0c0,1.98,0,3.56.058,4.8a10.488,10.488,0,0,0,.454,2.991,2.737,2.737,0,0,0,1.525,1.7,6.22,6.22,0,0,0,2.394.339,9.883,9.883,0,0,0,2.281-.208,2.808,2.808,0,0,0,1.466-.791,2.59,2.59,0,0,0,.617-1.4,9.651,9.651,0,0,0,.068-1.409h0V822a.78.78,0,1,0-1.553,0,8.422,8.422,0,0,1-.047,1.173.845.845,0,0,1-.183.476,1.358,1.358,0,0,1-.7.334,8.606,8.606,0,0,1-1.944.167,4.98,4.98,0,0,1-1.831-.223,1.113,1.113,0,0,1-.645-.743,8.856,8.856,0,0,1-.345-2.446C59.7,819.546,59.7,818.009,59.7,816Zm12.564-4.6a.73.73,0,0,0-1.1,0,.908.908,0,0,0,0,1.2L73.5,815.15H66.236a.853.853,0,0,0,0,1.7H73.5L71.169,819.4a.908.908,0,0,0,0,1.2.73.73,0,0,0,1.1,0l3.655-4a.908.908,0,0,0,0-1.2Z" transform="translate(-58.15 -806.15)" fill="#ff3b30" fill-rule="evenodd"/>
</svg>
