<svg xmlns="http://www.w3.org/2000/svg" width="18" height="18" viewBox="0 0 18 18">
  <path id="Path_12043" data-name="Path 12043" d="M64.99,220.172a1.261,1.261,0,0,1,.417-.861,4.557,4.557,0,0,1,2.743-.525,4.557,4.557,0,0,1,2.743.525,1.263,1.263,0,0,1,.418.863,30.061,30.061,0,0,0-3.16-.137A30.872,30.872,0,0,0,64.99,220.172Zm-1.763.3a3.1,3.1,0,0,1,1.055-2.4,6.112,6.112,0,0,1,3.868-.919,6.112,6.112,0,0,1,3.868.919,3.1,3.1,0,0,1,1.056,2.415,5.45,5.45,0,0,1,2.277,1.14c1.2,1.063,1.635,2.658,1.758,4.756a.777.777,0,0,1,.041.251c0,.152,0,.305-.011.459q.012.436.011.9c0,2.344-.323,4.267-1.814,5.527-1.451,1.227-3.792,1.633-7.186,1.633a23.95,23.95,0,0,1-4.3-.3,6.136,6.136,0,0,1-2.885-1.224c-1.5-1.269-1.815-3.317-1.815-6.033q0-.318.006-.624c0-.114-.006-.226-.006-.339a.768.768,0,0,1,.023-.187c.094-2.15.508-3.8,1.792-4.884A5.6,5.6,0,0,1,63.227,220.474Zm-2.341,6.486c.055-2.331.43-3.5,1.229-4.177a4.392,4.392,0,0,1,2.073-.841,22.154,22.154,0,0,1,3.962-.268,21.555,21.555,0,0,1,3.957.272,4.222,4.222,0,0,1,2.063.873c.785.694,1.164,1.9,1.238,4.254a2.77,2.77,0,0,1-.178.877,1.646,1.646,0,0,1-.748.813c-.9.527-2.7.9-6.326.9s-5.431-.373-6.333-.9a1.657,1.657,0,0,1-.752-.815A2.915,2.915,0,0,1,60.886,226.96Zm14.365,3.275a3.356,3.356,0,0,1-1.067,2.063c-.922.78-2.649,1.217-6.034,1.217a22.154,22.154,0,0,1-3.962-.268,4.392,4.392,0,0,1-2.073-.841,3.424,3.424,0,0,1-1.057-2.17c1.372.739,3.6,1.065,7.1,1.065S73.881,230.973,75.251,230.234Zm-10-2.64a.843.843,0,0,1,.864-.818h4.068a.819.819,0,1,1,0,1.636H66.116A.843.843,0,0,1,65.252,227.594Z" transform="translate(-59.15 -217.15)" fill="#7c8db5" fill-rule="evenodd"/>
</svg>