<svg xmlns="http://www.w3.org/2000/svg" width="22.012" height="23.256" viewBox="0 0 22.012 23.256">
  <path id="Path_12097" data-name="Path 12097" d="M793.292,200.555a1.662,1.662,0,0,1,.51-1.113c.417-.357,1.318-.678,3.354-.678s2.936.321,3.354.678a1.661,1.661,0,0,1,.51,1.116,34.786,34.786,0,0,0-3.864-.177A35.741,35.741,0,0,0,793.292,200.555Zm-2.156.389a4.108,4.108,0,0,1,1.291-3.107c1.033-.887,2.62-1.188,4.729-1.188s3.7.3,4.729,1.188a4.117,4.117,0,0,1,1.292,3.12,6.54,6.54,0,0,1,2.783,1.472c1.469,1.373,2,3.434,2.15,6.145a1.038,1.038,0,0,1,.051.325c0,.2,0,.394-.014.593q.013.563.014,1.163c0,3.028-.4,5.513-2.219,7.141-1.775,1.586-4.638,2.109-8.787,2.109a27.754,27.754,0,0,1-5.259-.386,7.3,7.3,0,0,1-3.527-1.582c-1.841-1.639-2.22-4.286-2.22-7.8q0-.41.007-.806c-.005-.147-.007-.292-.007-.438a1.1,1.1,0,0,1,.027-.241c.114-2.778.622-4.911,2.193-6.31A6.692,6.692,0,0,1,791.136,200.944Zm-2.863,8.38c.067-3.012.526-4.526,1.5-5.4a5.226,5.226,0,0,1,2.536-1.087,25.663,25.663,0,0,1,4.845-.346,24.978,24.978,0,0,1,4.839.352,5.028,5.028,0,0,1,2.522,1.128c.961.9,1.425,2.456,1.515,5.5a3.759,3.759,0,0,1-.219,1.133,2.088,2.088,0,0,1-.914,1.051c-1.1.682-3.3,1.163-7.735,1.163s-6.642-.481-7.744-1.163a2.1,2.1,0,0,1-.919-1.053A3.937,3.937,0,0,1,788.273,209.324Zm17.567,4.231a4.422,4.422,0,0,1-1.3,2.665c-1.128,1.007-3.24,1.572-7.38,1.572a25.663,25.663,0,0,1-4.845-.346,5.226,5.226,0,0,1-2.536-1.087,4.522,4.522,0,0,1-1.292-2.8c1.679.955,4.4,1.375,8.681,1.375S804.165,214.51,805.84,213.555Zm-12.229-3.411a1.057,1.057,0,0,1,1.057-1.057h4.975a1.057,1.057,0,0,1,0,2.114h-4.975A1.057,1.057,0,0,1,793.612,210.143Z" transform="translate(-786.15 -196.65)" fill="#347ae2" fill-rule="evenodd"/>
</svg>