<svg xmlns="http://www.w3.org/2000/svg" width="32" height="32" viewBox="0 0 32 32">
  <path id="Path_12153" data-name="Path 12153" d="M83.652,171.709c0-1.029,0-1.77.046-2.348a2.491,2.491,0,0,1,.164-.879c.01-.018.014-.022.019-.025v0a.594.594,0,0,1,.168-.08,7.2,7.2,0,0,1,2.942,0,.592.592,0,0,1,.168.08v0c.005,0,.009.007.019.025a2.491,2.491,0,0,1,.164.879c.044.578.046,1.32.046,2.348v18.882a15.253,15.253,0,0,1-.164,2.6,1.726,1.726,0,0,1-.242.743.112.112,0,0,1-.035.027.9.9,0,0,1-.206.061,7.283,7.283,0,0,1-1.221.056,7.45,7.45,0,0,1-1.236-.056.843.843,0,0,1-.2-.061.08.08,0,0,1-.03-.023,1.723,1.723,0,0,1-.237-.741,15.589,15.589,0,0,1-.16-2.6Zm1.868-6.559c-1.57,0-3.182.184-4.027,1.75a5.508,5.508,0,0,0-.547,2.2c-.056.725-.056,1.6-.056,2.553h0v18.94a18.758,18.758,0,0,0,.214,3.2,4.708,4.708,0,0,0,.928,2.24,2.971,2.971,0,0,0,1.785,1.014,8.962,8.962,0,0,0,1.637.1h.13a8.859,8.859,0,0,0,1.625-.1,2.979,2.979,0,0,0,1.782-1.009,4.71,4.71,0,0,0,.939-2.238,18.412,18.412,0,0,0,.22-3.211v-18.94c0-.956,0-1.828-.056-2.553a5.512,5.512,0,0,0-.547-2.2C88.7,165.334,87.09,165.15,85.52,165.15ZM72.329,176.63c-.041.407-.042.882-.042,1.506V191.4c0,.014,0,.029,0,.043-.04,1.555.214,2.079.365,2.26.13.155.459.378,1.5.378,1.017,0,1.355-.221,1.494-.383.154-.183.414-.709.37-2.249,0-.016,0-.033,0-.049V178.136c0-.624,0-1.1-.042-1.506a1.993,1.993,0,0,0-.167-.718l0,0c-.038-.071-.241-.454-1.652-.454s-1.613.383-1.651.454l0,0A1.986,1.986,0,0,0,72.329,176.63Zm-2.2-2.3c.778-1.446,2.216-1.953,4.022-1.953s3.245.506,4.023,1.953a5.19,5.19,0,0,1,.543,1.958c.059.593.059,1.231.059,1.8V191.37a6.461,6.461,0,0,1-1.122,4.431,5.233,5.233,0,0,1-7.02-.005,6.522,6.522,0,0,1-1.107-4.422V178.093c0-.57,0-1.208.059-1.8A5.184,5.184,0,0,1,70.127,174.334Zm-9.172,11.372c-.043.475-.044,1.052-.044,1.822v5c0,.87.189,1.106.28,1.193a3.7,3.7,0,0,0,3.167,0c.1-.092.289-.336.289-1.19v-4.974l-.011-.365h0c-.018-.6-.032-1.061-.072-1.472a2.476,2.476,0,0,0-.177-.835v0c-.015-.036-.155-.387-1.606-.387s-1.627.354-1.651.4l0,0A2.232,2.232,0,0,0,60.955,185.706Zm-2.209-2.363c.8-1.508,2.287-1.922,4.033-1.922s3.226.418,4.006,1.94a5.617,5.617,0,0,1,.524,2.027c.052.535.07,1.141.088,1.737,0,.116.007.233.011.347v5.057a4.669,4.669,0,0,1-1.276,3.543,4.738,4.738,0,0,1-3.354,1.078,4.741,4.741,0,0,1-3.371-1.081,4.684,4.684,0,0,1-1.258-3.54v-5.051h0c0-.707,0-1.432.058-2.077A5.421,5.421,0,0,1,58.746,183.343Z" transform="translate(-58.15 -165.15)" fill="#7c8db5" fill-rule="evenodd"/>
</svg>