<svg xmlns="http://www.w3.org/2000/svg" width="23.256" height="22.012" viewBox="0 0 23.256 22.012">
  <path id="Path_12091" data-name="Path 12091" d="M516.751,202.682a3.917,3.917,0,1,1,3.917,3.917A3.917,3.917,0,0,1,516.751,202.682Zm3.917-6.032a6.032,6.032,0,1,0,6.032,6.032A6.031,6.031,0,0,0,520.669,196.65Zm-6.4,18.365c0-.5.409-1.143,1.7-1.714a12.166,12.166,0,0,1,4.7-.857,11.606,11.606,0,0,1,4.686.939,4.391,4.391,0,0,1,1.362.912,1.086,1.086,0,0,1,.357.709.7.7,0,0,1-.233.25,4.577,4.577,0,0,1-1.366.644,18.971,18.971,0,0,1-9.83.006,3.586,3.586,0,0,1-1.185-.609c-.2-.174-.2-.265-.2-.28Zm12.812-.02a.02.02,0,0,1,0,.007A.044.044,0,0,1,527.076,214.995Zm-6.407-4.665a14.232,14.232,0,0,0-5.557,1.037c-1.506.664-2.962,1.837-2.962,3.648a2.474,2.474,0,0,0,.912,1.865,5.6,5.6,0,0,0,1.9,1.025,18.444,18.444,0,0,0,5.7.757,18.652,18.652,0,0,0,5.453-.751,6.657,6.657,0,0,0,2.016-.989,2.443,2.443,0,0,0,1.05-1.908,3.168,3.168,0,0,0-.925-2.163,6.47,6.47,0,0,0-2.02-1.388A13.716,13.716,0,0,0,520.669,210.33Zm7.653-2.776a1.056,1.056,0,0,1,1.153-.95,10,10,0,0,1,3.97,1.15,3.426,3.426,0,0,1,1.961,2.853,2.452,2.452,0,0,1-.765,1.791,4.339,4.339,0,0,1-1.869.984,1.057,1.057,0,1,1-.577-2.033,2.312,2.312,0,0,0,.971-.465.345.345,0,0,0,.126-.276c0-.194-.146-.585-.905-1.023a7.937,7.937,0,0,0-3.114-.876A1.057,1.057,0,0,1,528.322,207.554Zm2.3-10.9a1.057,1.057,0,0,0,0,2.114,2.052,2.052,0,1,1,0,4.1,1.057,1.057,0,0,0,0,2.114,4.166,4.166,0,0,0,0-8.332Z" transform="translate(-512.15 -196.65)" fill="#347ae2" fill-rule="evenodd"/>
</svg>