<svg xmlns="http://www.w3.org/2000/svg" width="24.499" height="24.499" viewBox="0 0 24.499 24.499">
  <path id="Path_12103" data-name="Path 12103" d="M1061.264,207.9a10.146,10.146,0,0,1,13.307-9.631,1.057,1.057,0,0,0,.659-2.008,12.252,12.252,0,1,0,8.419,11.639,1.057,1.057,0,1,0-2.114,0,10.136,10.136,0,0,1-20.271,0Zm19.587-5.472a1.055,1.055,0,1,0-1.492-1.492l-7.9,7.929-3.022-3.231a1.056,1.056,0,0,0-1.542,1.444l3.768,4.031a1.071,1.071,0,0,0,.759.336,1.038,1.038,0,0,0,.759-.311Z" transform="translate(-1059.15 -195.65)" fill="#347ae2" fill-rule="evenodd"/>
</svg>