<svg width="611" height="89" viewBox="0 0 611 89" fill="none" xmlns="http://www.w3.org/2000/svg">
<g clip-path="url(#clip0_8_2)" filter="url(#filter0_d_8_2)">
<g filter="url(#filter1_d_8_2)">
<path d="M593.52 0H17.2509C9.80613 0 3.77094 11.6048 3.77094 25.92V71.28C3.77094 85.5952 9.80613 97.2 17.2509 97.2H593.52C600.965 97.2 607 85.5952 607 71.28V25.92C607 11.6048 600.965 0 593.52 0Z" fill="url(#paint0_linear_8_2)"/>
</g>
<g filter="url(#filter2_d_8_2)">
<path d="M593.52 40.5H17.2509C9.80613 40.5 3.77094 65.3213 3.77094 95.94V192.96C3.77094 223.579 9.80613 248.4 17.2509 248.4H593.52C600.965 248.4 607 223.579 607 192.96V95.94C607 65.3213 600.965 40.5 593.52 40.5Z" fill="url(#paint1_linear_8_2)"/>
</g>
</g>
<defs>
<filter id="filter0_d_8_2" x="0" y="0" width="611" height="89" filterUnits="userSpaceOnUse" color-interpolation-filters="sRGB">
<feFlood flood-opacity="0" result="BackgroundImageFix"/>
<feColorMatrix in="SourceAlpha" type="matrix" values="0 0 0 0 0 0 0 0 0 0 0 0 0 0 0 0 0 0 127 0" result="hardAlpha"/>
<feOffset dy="4"/>
<feGaussianBlur stdDeviation="2"/>
<feComposite in2="hardAlpha" operator="out"/>
<feColorMatrix type="matrix" values="0 0 0 0 0 0 0 0 0 0 0 0 0 0 0 0 0 0 0.25 0"/>
<feBlend mode="normal" in2="BackgroundImageFix" result="effect1_dropShadow_8_2"/>
<feBlend mode="normal" in="SourceGraphic" in2="effect1_dropShadow_8_2" result="shape"/>
</filter>
<filter id="filter1_d_8_2" x="-2.22906" y="0" width="615.229" height="109.2" filterUnits="userSpaceOnUse" color-interpolation-filters="sRGB">
<feFlood flood-opacity="0" result="BackgroundImageFix"/>
<feColorMatrix in="SourceAlpha" type="matrix" values="0 0 0 0 0 0 0 0 0 0 0 0 0 0 0 0 0 0 127 0" result="hardAlpha"/>
<feOffset dy="6"/>
<feGaussianBlur stdDeviation="3"/>
<feColorMatrix type="matrix" values="0 0 0 0 0.647059 0 0 0 0 0.705882 0 0 0 0 0.796078 0 0 0 0.251 0"/>
<feBlend mode="normal" in2="BackgroundImageFix" result="effect1_dropShadow_8_2"/>
<feBlend mode="normal" in="SourceGraphic" in2="effect1_dropShadow_8_2" result="shape"/>
</filter>
<filter id="filter2_d_8_2" x="-2.22906" y="40.5" width="615.229" height="219.9" filterUnits="userSpaceOnUse" color-interpolation-filters="sRGB">
<feFlood flood-opacity="0" result="BackgroundImageFix"/>
<feColorMatrix in="SourceAlpha" type="matrix" values="0 0 0 0 0 0 0 0 0 0 0 0 0 0 0 0 0 0 127 0" result="hardAlpha"/>
<feOffset dy="6"/>
<feGaussianBlur stdDeviation="3"/>
<feColorMatrix type="matrix" values="0 0 0 0 0.647059 0 0 0 0 0.705882 0 0 0 0 0.796078 0 0 0 0.251 0"/>
<feBlend mode="normal" in2="BackgroundImageFix" result="effect1_dropShadow_8_2"/>
<feBlend mode="normal" in="SourceGraphic" in2="effect1_dropShadow_8_2" result="shape"/>
</filter>
<linearGradient id="paint0_linear_8_2" x1="6.78708" y1="17.1072" x2="41.3975" y2="200.517" gradientUnits="userSpaceOnUse">
<stop stop-color="#0F54EF"/>
<stop offset="1" stop-color="#6B96E9"/>
</linearGradient>
<linearGradient id="paint1_linear_8_2" x1="6.78708" y1="77.0904" x2="147.792" y2="426.441" gradientUnits="userSpaceOnUse">
<stop stop-color="white"/>
<stop offset="0.9999" stop-color="white"/>
<stop offset="1" stop-color="#6B96E9"/>
</linearGradient>
<clipPath id="clip0_8_2">
<rect width="603" height="81" fill="white" transform="translate(4)"/>
</clipPath>
</defs>
</svg>
