<svg xmlns="http://www.w3.org/2000/svg" xmlns:xlink="http://www.w3.org/1999/xlink" width="39.263" height="45.303" viewBox="0 0 39.263 45.303">
  <defs>
    <linearGradient id="linear-gradient" x1="0.015" y1="0.036" x2="0.967" y2="1" gradientUnits="objectBoundingBox">
      <stop offset="0" stop-color="#0f54ef"/>
      <stop offset="1" stop-color="#6b96e9"/>
    </linearGradient>
  </defs>
  <g id="language" transform="translate(-6 -2)">
    <path id="Path_3586" data-name="Path 3586" d="M43,5.02H28.651V4.265A2.265,2.265,0,0,0,26.386,2h-1.51a2.265,2.265,0,0,0-2.265,2.265V5.02H8.265A2.265,2.265,0,0,0,6,7.285V26.917a2.265,2.265,0,0,0,2.265,2.265h1.51v.755A2.265,2.265,0,0,0,12.04,32.2h7.49L8.431,46.08A.767.767,0,0,0,9.02,47.3h4.53a.755.755,0,0,0,.589-.287L22.611,36.43v5.587a2.265,2.265,0,0,0,2.265,2.265h1.51a2.265,2.265,0,0,0,2.265-2.265V36.43L37.123,47a.755.755,0,0,0,.589.3h4.53a.733.733,0,0,0,.589-1.185L31.732,32.2h7.49a2.265,2.265,0,0,0,2.265-2.265v-.755H43a2.265,2.265,0,0,0,2.265-2.265V7.285A2.265,2.265,0,0,0,43,5.02ZM13.188,45.793h-2.6L21.463,32.2h2.6Zm27.484,0h-2.6L27.2,32.2h2.6Zm3.081-18.876a.755.755,0,0,1-.755.755H8.265a.755.755,0,0,1-.755-.755V7.285a.755.755,0,0,1,.755-.755H43a.755.755,0,0,1,.755.755Z" transform="translate(0)" fill="url(#linear-gradient)"/>
    <path id="Path_3587" data-name="Path 3587" d="M29.514,25.032l-4.53-10.571a.755.755,0,0,0-1.389,0l-4.53,10.571a.755.755,0,0,0,1.389.589l1.744-4.07H26.38l1.744,4.07a.754.754,0,0,0,1.389-.589Zm-6.667-4.991,1.442-3.368,1.442,3.368Zm15.033-1.51a.755.755,0,0,0-.755.755h0a3.715,3.715,0,0,0-2.265-.755,3.775,3.775,0,1,0,0,7.55,3.715,3.715,0,0,0,2.265-.755h0a.755.755,0,1,0,1.51,0v-6.04A.755.755,0,0,0,37.88,18.531Zm-3.02,6.04a2.265,2.265,0,1,1,2.265-2.265,2.265,2.265,0,0,1-2.265,2.265Z" transform="translate(-3.188 -2.94)" fill="url(#linear-gradient)"/>
  </g>
</svg>
