<svg xmlns="http://www.w3.org/2000/svg" width="422.016" height="420.174" viewBox="0 0 422.016 420.174">
  <g id="Group_203" data-name="Group 203" transform="translate(-407.984 -1261)">
    <path id="Path_3369" data-name="Path 3369" d="M376.416,512.4H19.984a16.32,16.32,0,0,1-16.32-16.32V240.9a16.32,16.32,0,0,1,16.32-16.32H376.416a16.32,16.32,0,0,1,16.32,16.32V496.075a16.32,16.32,0,0,1-16.32,16.32" transform="translate(405.161 1087.981)" fill="#f4f7fe"/>
    <path id="Path_3370" data-name="Path 3370" d="M193.627,511.2H16.828A16.847,16.847,0,0,1,0,494.37V239.2a16.847,16.847,0,0,1,16.828-16.828H121.609a.508.508,0,0,1,0,1.016H16.828A15.83,15.83,0,0,0,1.016,239.2V494.37a15.83,15.83,0,0,0,15.812,15.812h176.8a.508.508,0,0,1,0,1.016" transform="translate(407.984 1089.686)"/>
    <path id="Path_3371" data-name="Path 3371" d="M1695.049,951.918a.508.508,0,0,1-.508-.508v-88.9a.508.508,0,1,1,1.016,0v88.9a.508.508,0,0,1-.508.508" transform="translate(-897.484 596.917)"/>
    <path id="Path_3372" data-name="Path 3372" d="M1119.713,303.452a.508.508,0,0,1-.508-.508V239.2a15.83,15.83,0,0,0-15.813-15.812H948.244a.508.508,0,1,1,0-1.016h155.148a16.847,16.847,0,0,1,16.828,16.828v63.744a.508.508,0,0,1-.508.508" transform="translate(-322.149 1089.685)"/>
    <path id="Path_3373" data-name="Path 3373" d="M879.622,299.862H770.311a.508.508,0,0,1,0-1.016H879.622a.508.508,0,0,1,0,1.016" transform="translate(-185.07 1030.77)"/>
    <path id="Path_3374" data-name="Path 3374" d="M91.782,362.553a.508.508,0,0,1-.508-.508V310.879a12.046,12.046,0,0,1,12.033-12.033h94.667a.508.508,0,0,1,0,1.016H103.307A11.029,11.029,0,0,0,92.29,310.879v51.166a.508.508,0,0,1-.508.508" transform="translate(337.667 1030.77)"/>
    <path id="Path_3375" data-name="Path 3375" d="M309.4,1008.015H103.306a12.047,12.047,0,0,1-12.033-12.033V914.291a.508.508,0,0,1,1.016,0v81.691A11.03,11.03,0,0,0,103.306,1007H309.4a.508.508,0,0,1,0,1.016" transform="translate(337.668 557.025)"/>
    <path id="Path_3376" data-name="Path 3376" d="M1538.057,353.173a.508.508,0,0,1-.508-.508V310.879a11.029,11.029,0,0,0-11.017-11.017h-6.93a.508.508,0,1,1,0-1.016h6.93a12.046,12.046,0,0,1,12.033,12.033v41.786a.507.507,0,0,1-.508.508" transform="translate(-762.321 1030.77)"/>
    <path id="Path_3377" data-name="Path 3377" d="M434.351,1394.5H98.046a4.359,4.359,0,1,1,0-8.718h336.3a4.359,4.359,0,1,1,0,8.718" transform="translate(335.808 193.396)" fill="#4b5d7b"/>
    <path id="Path_3378" data-name="Path 3378" d="M432.647,1393.306H96.342a4.867,4.867,0,0,1,0-9.734h336.3a4.867,4.867,0,0,1,0,9.734m-336.3-8.718a3.851,3.851,0,0,0,0,7.7h336.3a3.851,3.851,0,0,0,0-7.7Z" transform="translate(337.512 195.101)"/>
    <path id="Path_3379" data-name="Path 3379" d="M764.281,1381.158a6.837,6.837,0,1,1-6.837-6.837,6.837,6.837,0,0,1,6.837,6.837" transform="translate(-170.28 202.228)" fill="#4b5d7b"/>
    <path id="Path_3380" data-name="Path 3380" d="M755.739,1386.8a7.345,7.345,0,1,1,7.345-7.345,7.353,7.353,0,0,1-7.345,7.345m0-13.674a6.329,6.329,0,1,0,6.329,6.329,6.336,6.336,0,0,0-6.329-6.329" transform="translate(-168.576 203.932)"/>
    <path id="Path_3381" data-name="Path 3381" d="M365.465,1014.281h59.419c-5.261-46.731-10.524-76.551-10.524-76.551l-89.483-15.617-8.931,25.525c-2.674,7.726-6.337,19.092-9.749,33.147-1.832,7.545-4.407,15.21-6.487,33.5Z" transform="translate(177.088 550.607)" fill="#6b96e9"/>
    <path id="Path_3382" data-name="Path 3382" d="M584.424,1275.285a.491.491,0,0,1-.154-.024.508.508,0,0,1-.33-.638c4.324-13.533,12.742-14.35,13.1-14.378a.515.515,0,0,1,.546.466.508.508,0,0,1-.465.547c-.081.006-8.11.836-12.212,13.675a.508.508,0,0,1-.484.353" transform="translate(-41.863 290.114)" fill="#fff"/>
    <path id="Path_3383" data-name="Path 3383" d="M697.69,1091.3c-.115,7.451.3,14.044-14.716,14.975-17.8,1.1-31.376-17.589-31.376-17.589s46.13.131,46.092,2.613" transform="translate(-94.005 422.276)" fill="#737f8b"/>
    <path id="Path_3384" data-name="Path 3384" d="M1234.372,295.946l8.6-11.53s-5.533-9.316-.573-14.456c8.131-8.428,6.464-23.948,10.743-27.163a2.579,2.579,0,0,1,4.046,2.225l-.326,10.938c.082,2.935,4.676,5.559,7.141,3.985,4.77-3.045,9.4-4.517,14.745-5.8,2.816-.676,6.572-1.178,8.588-.772,3.074.619,3.711,3.073,1.46,5.262-6.828,6.639-24.587,9.835-28.842,23.9-1.631,5.391-7.014,12.355-11.194,19.046Z" transform="translate(-542.972 1074.327)" fill="#fff"/>
    <path id="Path_3385" data-name="Path 3385" d="M1247.058,300.369a.516.516,0,0,1-.185-.035l-14.391-5.631a.508.508,0,0,1-.222-.777l8.4-11.265c-.931-1.689-5.053-9.88-.334-14.771,4.54-4.7,5.984-11.8,7.144-17.509.933-4.588,1.67-8.212,3.66-9.709a2.907,2.907,0,0,1,3.146-.241,3.129,3.129,0,0,1,1.713,2.887l-.325,10.937a4.345,4.345,0,0,0,2.556,3.3,3.9,3.9,0,0,0,3.8.242c4.77-3.045,9.406-4.547,14.9-5.866,2.876-.69,6.714-1.2,8.807-.776a3.692,3.692,0,0,1,3.1,2.354,3.864,3.864,0,0,1-1.387,3.771c-2.361,2.3-5.995,4.187-9.843,6.189-7.552,3.93-16.112,8.385-18.868,17.491-1.206,3.985-4.336,8.681-7.65,13.653-1.208,1.812-2.457,3.686-3.6,5.515a.508.508,0,0,1-.431.239M1233.473,294l13.379,5.235c1.087-1.726,2.257-3.482,3.391-5.183,3.271-4.908,6.36-9.543,7.523-13.384,2.879-9.515,11.641-14.074,19.371-18.1,3.78-1.967,7.35-3.825,9.6-6.016a2.915,2.915,0,0,0,1.121-2.755,2.752,2.752,0,0,0-2.328-1.644c-1.939-.391-5.6.1-8.369.768-5.394,1.294-9.939,2.765-14.59,5.734a4.826,4.826,0,0,1-4.827-.2,5.345,5.345,0,0,1-3.1-4.2l.326-10.966a2.122,2.122,0,0,0-1.165-1.956,1.907,1.907,0,0,0-2.069.151c-1.682,1.264-2.42,4.894-3.275,9.1-1.186,5.833-2.663,13.093-7.408,18.012-4.637,4.806.591,13.754.645,13.844a.508.508,0,0,1-.03.563Z" transform="translate(-541.267 1076.042)"/>
    <path id="Path_3386" data-name="Path 3386" d="M521.8,392.8s-30.9,41.426-46.981,53.551c-7.026-16.953-18.979-37.536-38.415-50.384-23.785-15.722-67.629-16.031-91.2-9.773a193.064,193.064,0,0,0-19.813,6.288c-22.8,8.79-18.842,45.4-7.947,87.228a94.911,94.911,0,0,1-1.954,53.282c-3.84,11.766-6.386,23.692-2.005,26.114a42.155,42.155,0,0,0,35.611,2.79c27.895-10.239,71.42-21.83,84.416-12.841l1.265-60.483c2.79,5.7,7.586,11.055,15.491,15.041,47.013,23.707,94.3-96.5,94.3-96.5Z" transform="translate(170.136 966.411)" fill="#99bbfd"/>
    <path id="Path_3387" data-name="Path 3387" d="M332.508,563.429a43.4,43.4,0,0,1-20.982-5.579c-3.908-2.16-3.313-11.149,1.768-26.716a94.128,94.128,0,0,0,1.945-53c-6.367-24.448-9.124-42.289-8.678-56.149.552-17.138,6.091-27.5,16.934-31.681A192.516,192.516,0,0,1,343.361,384c12.485-3.315,29.565-4.576,45.686-3.371,13.338,1,32.132,4.1,45.922,13.212,19.812,13.1,31.761,34.293,38.35,50,15.984-12.432,46.054-52.641,46.359-53.05a.509.509,0,0,1,.678-.126l22.772,14.311a.508.508,0,0,1,.2.616,376.233,376.233,0,0,1-21.1,43.356c-11.818,20.647-30.056,46.842-49.826,54.385-8.37,3.193-16.472,2.868-24.079-.969a34.261,34.261,0,0,1-14.8-13.528l-1.224,58.526a.508.508,0,0,1-.8.407c-13.358-9.24-59.056,3.761-83.952,12.9a43.423,43.423,0,0,1-15.05,2.757M376.8,381.247c-12.637,0-24.474,1.426-33.178,3.737a191.315,191.315,0,0,0-19.76,6.271c-18.979,7.317-21.335,34.034-7.638,86.626a95.14,95.14,0,0,1-1.963,53.568c-6.113,18.73-4.594,24.211-2.242,25.511a41.438,41.438,0,0,0,35.19,2.758c24.626-9.039,69.515-21.785,84.1-13.276l1.246-59.581a.508.508,0,0,1,.964-.213c3.067,6.267,8.2,11.251,15.264,14.811,7.342,3.7,15.167,4.013,23.259.927,19.487-7.434,37.566-33.43,49.3-53.929a377.732,377.732,0,0,0,20.885-42.844l-22.018-13.836c-3.145,4.183-31.661,41.864-46.8,53.278a.508.508,0,0,1-.775-.211c-6.48-15.636-18.371-37.03-38.226-50.155-14.706-9.721-37.2-13.443-57.61-13.443" transform="translate(171.846 968.108)"/>
    <path id="Path_3388" data-name="Path 3388" d="M202.4,918.281l14.725,26.5a5.024,5.024,0,0,0,6.816,1.96l9.271-4.834a14.2,14.2,0,0,1,3.9-1.362,8.364,8.364,0,0,1,6.916,1.721l14.324,11.621c7.2,7.689-8.6,9.359-11.76,9.022l-5.433-.579a43.3,43.3,0,0,0-10.787,1.947,27.944,27.944,0,0,1-18.51.329l-.543-.191a20.177,20.177,0,0,1-10.135-7.91l-17.668-26.743Z" transform="translate(266.605 553.56)" fill="#fff"/>
    <path id="Path_3389" data-name="Path 3389" d="M218.649,964.832a26,26,0,0,1-8.662-1.45l-.543-.191a20.8,20.8,0,0,1-10.39-8.109l-17.668-26.743a.508.508,0,0,1,.16-.714l18.888-11.482a.507.507,0,0,1,.708.187l14.725,26.5a4.526,4.526,0,0,0,6.127,1.762l9.281-4.839a14.6,14.6,0,0,1,4.03-1.41,8.843,8.843,0,0,1,7.336,1.825l14.324,11.621a.451.451,0,0,1,.051.047c1.889,2.018,2.444,3.851,1.649,5.447-1.928,3.867-11.568,4.671-13.833,4.428l-5.394-.574a42.9,42.9,0,0,0-10.6,1.916,31.028,31.028,0,0,1-10.187,1.78m-36.124-36.613,17.378,26.3a19.783,19.783,0,0,0,9.879,7.71l.543.191a27.745,27.745,0,0,0,18.171-.329,43.275,43.275,0,0,1,10.936-1.975.34.34,0,0,1,.075,0l5.433.578c2.491.266,11.244-.716,12.816-3.87.583-1.171.093-2.609-1.458-4.275l-14.3-11.6a7.82,7.82,0,0,0-6.5-1.618,13.765,13.765,0,0,0-3.751,1.309l-9.282,4.839a5.539,5.539,0,0,1-7.494-2.164L200.51,917.285Z" transform="translate(268.31 555.264)"/>
    <path id="Path_3390" data-name="Path 3390" d="M139.983,478.859c-25.578,3.958-21.242,27.261-21.242,27.261l5.347,35.255L98.42,557.925S46.987,503.1,68.577,459.051c17.881-36.482,80.215-50.861,80.215-50.861Z" transform="translate(359.23 946.532)" fill="#99bbfd"/>
    <path id="Path_3391" data-name="Path 3391" d="M96.729,556.724a.509.509,0,0,1-.371-.16,170.735,170.735,0,0,1-23.1-33.028c-5.925-11.2-9.734-22-11.323-32.081-1.991-12.64-.48-24.192,4.491-34.335,9.3-18.98,30.725-31.875,47.058-39.35a197.553,197.553,0,0,1,33.5-11.783.508.508,0,1,1,.228.99A196.473,196.473,0,0,0,113.893,418.7c-16.176,7.405-37.383,20.159-46.551,38.866-11.059,22.563-2.4,48.07,6.818,65.494a170.766,170.766,0,0,0,22.653,32.5l25.032-16.139-5.3-34.93c-.073-.39-1.785-10.038,3.915-18.078,3.706-5.228,9.678-8.512,17.752-9.762a.508.508,0,1,1,.155,1c-7.787,1.2-13.531,4.346-17.072,9.336-5.453,7.684-3.766,17.235-3.748,17.331l5.35,35.271a.509.509,0,0,1-.227.5L97,556.643a.508.508,0,0,1-.275.081" transform="translate(360.922 948.241)"/>
    <path id="Path_3392" data-name="Path 3392" d="M614.3,146.474c2.475-1.125,3.757.748,7.444.24a12.8,12.8,0,0,0,9.845-7.694c1.953-5.131-.862-10.022-2.637-13.106-1.765-3.068-4.012-6.484-7.909-7.958-5.082-1.923-7.207,1.03-13.024-.782-4.731-1.474-4.385-3.757-8.6-4.955-3.511-1-13.626-.429-15.889,4.955-1.436,3.416,1.661,5.5.117,10.559-.927,3.039-2.385,3.412-3.448,5.758-2.638,5.823.669,16.049,6.964,19.475,8.542,4.649,22.865-4.552,27.134-6.492" transform="translate(-38.296 1174.859)" fill="#6b96e9"/>
    <path id="Path_3393" data-name="Path 3393" d="M574.071,272.237l1.987,16.333a7.63,7.63,0,0,0,5.645,6.463l5.725,1.829a1.4,1.4,0,0,1,.36,2.5c-14.465,9.488-34.422,9.321-48.27-1.2l-1.62-1.231a1.59,1.59,0,0,1,.613-2.817l7.083-1.584a7.629,7.629,0,0,0,5.841-6.1l4.332-24.061Z" transform="translate(-5.926 1058.863)" fill="#fff"/>
    <path id="Path_3394" data-name="Path 3394" d="M562.617,305.1a41.5,41.5,0,0,1-25.113-8.236l-1.62-1.231a2.1,2.1,0,0,1,.81-3.716l7.083-1.584a7.106,7.106,0,0,0,5.451-5.69l4.332-24.061a.508.508,0,0,1,.741-.358l18.3,9.857a.507.507,0,0,1,.263.386l1.987,16.333a7.082,7.082,0,0,0,5.269,6.033l5.752,1.838a1.905,1.905,0,0,1,1.316,1.573,1.875,1.875,0,0,1-.832,1.839,43.357,43.357,0,0,1-23.743,7.019m-8.181-43.649-4.208,23.371a8.119,8.119,0,0,1-6.23,6.5l-7.083,1.584a1.082,1.082,0,0,0-.417,1.917l1.62,1.231c13.5,10.253,33.108,10.737,47.684,1.177a.858.858,0,0,0,.383-.852.887.887,0,0,0-.619-.743l-5.725-1.83a8.08,8.08,0,0,1-5.994-6.885l-1.956-16.072Z" transform="translate(-4.219 1060.568)"/>
    <path id="Path_3395" data-name="Path 3395" d="M611.249,215.392s-6.449-3.137-4.182-9.123c2.073-5.472,6.516-.03,6.516-.03s3.658-13.124,11.345-7.948a54.177,54.177,0,0,0,14.969,7.058s-2.707,13.209-7.57,22c-2.932,5.3-6.648,8.994-11.027,7.213-11.988-4.876-10.052-19.167-10.052-19.167" transform="translate(-59.327 1109.168)" fill="#fff"/>
    <path id="Path_3396" data-name="Path 3396" d="M621.839,233.819a6.43,6.43,0,0,1-2.433-.5c-11.147-4.534-10.6-17.089-10.4-19.354-1.321-.765-6.216-4.045-4.117-9.586.616-1.627,1.512-2.546,2.663-2.733,1.618-.266,3.247,1.055,4.107,1.9.693-2.026,2.732-7.04,6.311-8.359a5.932,5.932,0,0,1,5.54.974,54.132,54.132,0,0,0,14.812,6.987.508.508,0,0,1,.371.594c-.027.132-2.778,13.386-7.622,22.141-2.92,5.278-6.015,7.936-9.23,7.936m-13.857-31.19a1.655,1.655,0,0,0-.268.021c-.766.125-1.4.828-1.875,2.09-2.073,5.473,3.683,8.366,3.929,8.486a.509.509,0,0,1,.281.524c-.019.139-1.736,13.962,9.74,18.628,3.534,1.437,7.031-.913,10.391-6.988,4.261-7.7,6.887-18.986,7.417-21.393a56.32,56.32,0,0,1-14.656-7,4.978,4.978,0,0,0-4.619-.864c-3.934,1.448-5.933,8.456-5.953,8.527a.508.508,0,0,1-.883.185c-.532-.649-2.132-2.223-3.5-2.223" transform="translate(-57.623 1110.878)"/>
    <path id="Path_3397" data-name="Path 3397" d="M920.418,2.213h-82a8.239,8.239,0,0,0-8.194,8.42V34.364a8.216,8.216,0,0,0,8.194,8.393h2.965V58.6l10.79-15.847h68.246a8.579,8.579,0,0,0,8.619-8.393V10.633a8.6,8.6,0,0,0-8.619-8.42" transform="translate(-231.617 1259.295)" fill="#f5f5f5"/>
    <path id="Path_3398" data-name="Path 3398" d="M839.677,57.408a.523.523,0,0,1-.149-.022.509.509,0,0,1-.358-.486V41.56h-2.457a8.709,8.709,0,0,1-8.7-8.9V8.928A8.723,8.723,0,0,1,836.713,0h82a9.151,9.151,0,0,1,9.127,8.928V32.659a9.137,9.137,0,0,1-9.127,8.9H850.736L840.1,57.185a.508.508,0,0,1-.42.222M836.713,1.016a7.719,7.719,0,0,0-7.686,7.912V32.659a7.7,7.7,0,0,0,7.686,7.885h2.965a.508.508,0,0,1,.508.508v14.2l9.862-14.485a.508.508,0,0,1,.42-.222h68.247a8.107,8.107,0,0,0,8.111-7.885V8.928a8.121,8.121,0,0,0-8.111-7.912Z" transform="translate(-229.913 1261)"/>
    <path id="Path_3399" data-name="Path 3399" d="M1067.053,56.079h25.282a2.957,2.957,0,1,0,0-5.915h-25.282a2.957,2.957,0,0,0,0,5.915" transform="translate(-411.792 1222.354)" fill="#737f8b"/>
    <path id="Path_3400" data-name="Path 3400" d="M946.229,56.079h13.52a2.957,2.957,0,1,0,0-5.915h-13.52a2.957,2.957,0,1,0,0,5.915" transform="translate(-318.709 1222.354)" fill="#737f8b"/>
    <path id="Path_3401" data-name="Path 3401" d="M893.8,111.733h65.061a2.957,2.957,0,1,0,0-5.915H893.8a2.957,2.957,0,1,0,0,5.915" transform="translate(-278.321 1179.478)" fill="#737f8b"/>
    <path id="Path_3402" data-name="Path 3402" d="M739.458,740.054a28.043,28.043,0,0,1-2.606-39.414,27.662,27.662,0,0,1,39.189-2.62,28.043,28.043,0,0,1,2.606,39.414,27.661,27.661,0,0,1-39.189,2.62" transform="translate(-154.388 728.575)" fill="#2686ff"/>
    <path id="Path_3403" data-name="Path 3403" d="M756.049,745.769a27.977,27.977,0,0,1-18.587-7.042,28.584,28.584,0,0,1-2.653-40.128,28.169,28.169,0,0,1,39.908-2.669,28.584,28.584,0,0,1,2.653,40.128,28.033,28.033,0,0,1-19.415,9.647c-.637.043-1.273.064-1.906.064m.079-55.866q-.915,0-1.837.062a27.028,27.028,0,0,0-18.717,9.3,27.566,27.566,0,0,0,2.558,38.7,27.154,27.154,0,0,0,38.47-2.572,27.566,27.566,0,0,0-2.558-38.7,26.97,26.97,0,0,0-17.917-6.789" transform="translate(-152.728 730.283)"/>
    <path id="Path_3404" data-name="Path 3404" d="M815.527,788.888v-17.47a1.2,1.2,0,0,1,1.735-1.078l17.47,8.626a1.2,1.2,0,0,1,.011,2.151l-17.47,8.844a1.2,1.2,0,0,1-1.745-1.073" transform="translate(-220.295 667.63)" fill="#fff"/>
    <path id="Path_3405" data-name="Path 3405" d="M1412.089,1497.952c-4.2-8.637-4.6-17.341,0-26.133l-3.3-3.957L1294.2,1470.83l3.11,28.664,111.7,1.006Z" transform="translate(-589.066 130.164)" fill="#fff"/>
    <path id="Path_3406" data-name="Path 3406" d="M1407.307,1499.305h0l-111.7-1.007a.508.508,0,0,1-.5-.453l-3.11-28.665a.508.508,0,0,1,.492-.563l114.586-2.967a.555.555,0,0,1,.4.182l3.3,3.957a.508.508,0,0,1,.06.56c-4.349,8.318-4.347,16.716.007,25.675a.508.508,0,0,1-.133.614l-3.078,2.549a.509.509,0,0,1-.324.117m-111.241-2.019,111.059,1,2.629-2.177c-4.217-8.907-4.208-17.627.024-25.928l-2.926-3.509-113.789,2.947Z" transform="translate(-587.362 131.867)"/>
    <path id="Path_3407" data-name="Path 3407" d="M884.859,1454.118h198.425a3.582,3.582,0,1,1,0,7.163H976.665a10.44,10.44,0,0,0-10.56,10.316v5.8a10.44,10.44,0,0,0,10.56,10.316h106.618a3.582,3.582,0,1,1,0,7.163H884.859a19.25,19.25,0,0,1-19.471-19.021v-2.716a19.25,19.25,0,0,1,19.471-19.02" transform="translate(-258.708 140.752)" fill="#fff"/>
    <path id="Path_3408" data-name="Path 3408" d="M1081.579,1493.678H883.154a19.779,19.779,0,0,1-19.978-19.528v-2.716a19.78,19.78,0,0,1,19.978-19.528h198.425a4.09,4.09,0,1,1,0,8.179H974.961a9.943,9.943,0,0,0-10.052,9.808v5.8a9.943,9.943,0,0,0,10.052,9.808h106.618a4.09,4.09,0,1,1,0,8.179m-198.425-40.756a18.763,18.763,0,0,0-18.963,18.512v2.716a18.763,18.763,0,0,0,18.963,18.512h198.425a3.075,3.075,0,1,0,0-6.147H974.961a10.96,10.96,0,0,1-11.068-10.824v-5.8a10.96,10.96,0,0,1,11.068-10.823h106.618a3.075,3.075,0,1,0,0-6.147Z" transform="translate(-257.004 142.457)"/>
    <path id="Path_3409" data-name="Path 3409" d="M1420.227,1516.9h-23.791a.508.508,0,1,1,0-1.016h23.791a.508.508,0,0,1,0,1.016" transform="translate(-667.434 93.167)"/>
    <path id="Path_3410" data-name="Path 3410" d="M1590.835,1516.9h-48.471a.508.508,0,1,1,0-1.016h48.471a.508.508,0,1,1,0,1.016" transform="translate(-779.856 93.167)"/>
    <path id="Path_3411" data-name="Path 3411" d="M1505.3,1539.925h-74.644a.508.508,0,1,1,0-1.016H1505.3a.508.508,0,1,1,0,1.016" transform="translate(-693.796 75.43)"/>
    <path id="Path_3412" data-name="Path 3412" d="M1409.645,1568.836h-7.506a.508.508,0,1,1,0-1.016h7.506a.508.508,0,0,1,0,1.016" transform="translate(-671.828 53.157)"/>
    <path id="Path_3413" data-name="Path 3413" d="M1555.84,1568.836h-65.656a.508.508,0,1,1,0-1.016h65.656a.508.508,0,1,1,0,1.016" transform="translate(-739.657 53.157)"/>
    <path id="Path_3414" data-name="Path 3414" d="M840.426,1684.891h183.488v-37.062H840.426c4.665,12.519,4.794,24.878,0,37.062" transform="translate(-239.477 -8.482)" fill="#fff"/>
    <path id="Path_3415" data-name="Path 3415" d="M1022.209,1683.7H838.721a.508.508,0,0,1-.473-.694c4.659-11.843,4.658-24.19,0-36.7a.508.508,0,0,1,.476-.686h183.488a.508.508,0,0,1,.508.508v37.061a.508.508,0,0,1-.508.508m-182.748-1.016H1021.7v-36.046H839.448c4.411,12.272,4.416,24.391.014,36.046" transform="translate(-237.773 -6.778)"/>
    <path id="Path_3416" data-name="Path 3416" d="M991,1636.2H825.455a2.923,2.923,0,1,1,0-5.84h207.253c7.4,0,13.407,5.745,13.407,12.833v20.173c0,7.087-6,12.833-13.407,12.833H825.455a2.923,2.923,0,1,1,0-5.84H991a9.275,9.275,0,0,0,9.472-9.066v-16.027A9.275,9.275,0,0,0,991,1636.2" transform="translate(-225.593 4.979)" fill="#737f8b"/>
    <path id="Path_3417" data-name="Path 3417" d="M1408.221,1684.965h-32.675a.508.508,0,1,1,0-1.016h32.675a.508.508,0,1,1,0,1.016" transform="translate(-651.34 -36.308)"/>
    <path id="Path_3418" data-name="Path 3418" d="M1089.406,1706.506h-33.57a.508.508,0,1,1,0-1.016h33.57a.508.508,0,1,1,0,1.016" transform="translate(-405.037 -52.904)"/>
    <path id="Path_3419" data-name="Path 3419" d="M1386.012,1706.506h-22.445a.508.508,0,1,1,0-1.016h22.445a.508.508,0,0,1,0,1.016" transform="translate(-642.112 -52.904)"/>
    <path id="Path_3420" data-name="Path 3420" d="M1519.66,1706.506h-11.869a.508.508,0,1,1,0-1.016h11.869a.508.508,0,0,1,0,1.016" transform="translate(-753.221 -52.904)"/>
    <path id="Path_3421" data-name="Path 3421" d="M1069.723,1751.475h-41.179a.508.508,0,0,1,0-1.016h41.179a.508.508,0,0,1,0,1.016" transform="translate(-384.012 -87.548)"/>
    <path id="Path_3422" data-name="Path 3422" d="M1388.19,1751.475h-49.683a.508.508,0,1,1,0-1.016h49.683a.508.508,0,0,1,0,1.016" transform="translate(-622.805 -87.548)"/>
    <path id="Path_3423" data-name="Path 3423" d="M1242.93,1751.475h-3.083a.508.508,0,0,1,0-1.016h3.083a.508.508,0,0,1,0,1.016" transform="translate(-546.799 -87.548)"/>
    <path id="Path_3424" data-name="Path 3424" d="M1261.951,1326.149H1114.721c-7.318,0-10.518-5.932-10.518-13.25v-6.346c0-7.318,3.2-13.25,10.518-13.25h147.229c-4.14,11.095-4.254,22.047,0,32.846" transform="translate(-442.69 264.644)" fill="#fff"/>
    <path id="Path_3425" data-name="Path 3425" d="M1260.247,1324.953h-147.23c-6.9,0-11.026-5.143-11.026-13.758v-6.346c0-8.615,4.122-13.759,11.026-13.759h147.23a.508.508,0,0,1,.476.686c-4.131,11.072-4.132,22,0,32.483a.508.508,0,0,1-.473.694m-147.23-32.846c-6.268,0-10.01,4.764-10.01,12.743v6.346c0,7.979,3.742,12.742,10.01,12.742h146.49a45,45,0,0,1,.013-31.83Z" transform="translate(-440.986 266.348)"/>
    <path id="Path_3426" data-name="Path 3426" d="M1105.374,1282.993h147.294a2.591,2.591,0,1,0,0-5.176H1102.8a11.643,11.643,0,0,0-11.9,11.373v17.879a11.643,11.643,0,0,0,11.9,11.373h149.871a2.591,2.591,0,1,0,0-5.176H1105.374a8.225,8.225,0,0,1-8.4-8.035v-14.2a8.225,8.225,0,0,1,8.4-8.034" transform="translate(-432.443 276.574)" fill="#fff"/>
    <path id="Path_3427" data-name="Path 3427" d="M1250.964,1317.247h-149.87a12.165,12.165,0,0,1-12.4-11.881v-17.879a12.164,12.164,0,0,1,12.4-11.881h149.87a3.1,3.1,0,1,1,0,6.192H1103.67a7.727,7.727,0,0,0-7.9,7.526v14.2a7.727,7.727,0,0,0,7.9,7.527h147.294a3.1,3.1,0,1,1,0,6.192m-149.87-40.625a11.148,11.148,0,0,0-11.388,10.865v17.879a11.148,11.148,0,0,0,11.388,10.865h149.87a2.083,2.083,0,1,0,0-4.16H1103.67a8.743,8.743,0,0,1-8.911-8.543v-14.2a8.743,8.743,0,0,1,8.911-8.542h147.294a2.083,2.083,0,1,0,0-4.16Z" transform="translate(-430.739 278.278)"/>
    <path id="Path_3428" data-name="Path 3428" d="M1667.23,1281.8h-37.705a.508.508,0,1,1,0-1.016h37.705a2.083,2.083,0,1,0,0-4.16h-33.1a.508.508,0,0,1,0-1.016h33.1a3.1,3.1,0,1,1,0,6.192" transform="translate(-847.005 278.278)"/>
    <path id="Path_3429" data-name="Path 3429" d="M1434.3,1436.189H1327.755a.508.508,0,1,1,0-1.016H1434.3a2.083,2.083,0,1,0,0-4.16H1327.179a.508.508,0,0,1,0-1.016H1434.3a3.1,3.1,0,1,1,0,6.192" transform="translate(-614.079 159.335)"/>
    <path id="Path_3430" data-name="Path 3430" d="M1530.131,1345.169H1464.04a.508.508,0,1,1,0-1.016h66.091a.508.508,0,0,1,0,1.016" transform="translate(-719.516 225.469)"/>
    <path id="Path_3431" data-name="Path 3431" d="M1371.93,1345.169h-14.516a.508.508,0,0,1,0-1.016h14.516a.508.508,0,1,1,0,1.016" transform="translate(-637.372 225.469)"/>
    <path id="Path_3432" data-name="Path 3432" d="M1519.643,1385.023h-69.217a.508.508,0,1,1,0-1.016h69.217a.508.508,0,1,1,0,1.016" transform="translate(-709.028 194.766)"/>
    <path id="Path_3433" data-name="Path 3433" d="M1384.875,1385.023h-7.28a.508.508,0,1,1,0-1.016h7.28a.508.508,0,0,1,0,1.016" transform="translate(-652.919 194.766)"/>
    <path id="Path_3434" data-name="Path 3434" d="M1471.024,597.81a8.066,8.066,0,0,0,4.106-3.352c1.375-2.318,2.095-6.04-1.067-11.385-7.14-12.069-18.894-6.457-23.415-7.878-10.13-3.185-7.773-8.3-11.912-13.3-3.1-3.745-13.754-10.842-29.782,2.153,0,0-7.176,9.219-15.4,5.642-10.105-4.394-30.29,5.277-23.794,19.883a18.1,18.1,0,0,0,9.279,9.24c.736.322,1.542.635,2.417.922a7.848,7.848,0,0,1,5.147,5.685c2.12,8.884,10.034,26.058,38.862,9.007a7.663,7.663,0,0,1,7.028-.436c2.782,1.226,5.823,5.928,19.19,4.034,8.586-1.216,11.254-10.581,13.494-14.835a11.175,11.175,0,0,1,5.848-5.378" transform="translate(-646.3 832.225)" fill="#6b96e9"/>
    <path id="Path_3435" data-name="Path 3435" d="M1250.43,848.457c4.546-8.168,11.349-25.848,2.681-42.971v.006c-1.02-1.587-1.371-3.078-2.635-4.5-4.761-5.36-11.69-6.51-20.139-7.9-7.449-1.224-24.625-4.052-34.562,4.683a15.543,15.543,0,0,0-3.229,3.875c-1.677,2.072-5.978,8.318-8.737,20.609-3.486,15.526-23.02,25.429-33.095,20.584s-10.387-7.339-10.387-7.339l.8,7.818s16.913,31.516,43.942,14.715c-5.276,16.886-11.252,21.468-8.107,31.393,5.388,17.007,28.987,22.683,33.2,23.6,12,2.616,34.777,3.276,44.02-9.856,8.537-12.13-4.5-21.971-3.747-54.719" transform="translate(-470.52 651.104)" fill="#cfdfff"/>
    <path id="Path_3436" data-name="Path 3436" d="M1223.3,913.411a72.234,72.234,0,0,1-14.957-1.568c-6.549-1.428-28.324-7.376-33.574-23.944-2.112-6.666-.16-11.13,2.8-17.888a131.16,131.16,0,0,0,4.9-12.531c-7.164,4.136-14.267,5.3-21.13,3.471-14-3.74-22.284-18.92-22.366-19.073a.5.5,0,0,1-.058-.188l-.8-7.818a.507.507,0,0,1,.448-.556.5.5,0,0,1,.561.441s.683,2.414,10.1,6.945c4.18,2.01,10.325,1.442,16.439-1.518,8.122-3.933,14.23-11.106,15.94-18.72,2.762-12.308,7.065-18.619,8.813-20.788a16.049,16.049,0,0,1,3.313-3.967c10.11-8.887,27.526-6.027,34.963-4.806,8.358,1.373,15.561,2.557,20.453,8.065a11.45,11.45,0,0,1,1.716,2.772,17.232,17.232,0,0,0,.935,1.742.51.51,0,0,1,.058.09c9.434,18.638.462,37.743-2.63,43.337-.334,15.3,2.409,25.774,4.414,33.425,2.343,8.941,3.891,14.848-.756,21.45-6.318,8.976-18.547,11.628-29.587,11.628m-39.938-57.566a.508.508,0,0,1,.485.659,127.853,127.853,0,0,1-5.351,13.914c-2.964,6.78-4.754,10.872-2.758,17.174,5.215,16.462,28.256,22.263,32.822,23.259,11.006,2.4,34.261,3.47,43.5-9.652,4.375-6.216,2.875-11.942.6-20.608-2.025-7.73-4.8-18.316-4.444-33.831a.506.506,0,0,1,.064-.236c2.968-5.334,11.928-24.144,2.7-42.444a17.737,17.737,0,0,1-1.026-1.9,10.478,10.478,0,0,0-1.562-2.542c-4.653-5.239-11.355-6.341-19.841-7.735-7.312-1.2-24.4-4.006-34.145,4.564a15.041,15.041,0,0,0-3.126,3.75.517.517,0,0,1-.044.063c-1.688,2.084-5.908,8.245-8.637,20.4-1.776,7.91-8.094,15.348-16.488,19.413-6.391,3.094-12.866,3.662-17.322,1.519-5.511-2.651-8.177-4.638-9.466-5.937l.593,5.8c.683,1.221,8.658,15.009,21.692,18.488,6.951,1.855,14.179.493,21.487-4.05a.508.508,0,0,1,.268-.076" transform="translate(-468.816 652.789)"/>
    <path id="Path_3437" data-name="Path 3437" d="M1251.535,897.957s-17.112-7.2-23.886-19.215a10.961,10.961,0,0,0-2.633-3.076l-11.5-9.869a.973.973,0,0,0-1.556,1.048,19.306,19.306,0,0,0,5.008,8.019s-2.8,5.781,1.91,10.22c0,0,3.534,2.809,5.641,2.86,0,0,6.17,20.266,22.828,26.3a29.618,29.618,0,0,0,4.184-16.289" transform="translate(-525.667 594.178)" fill="#fff"/>
    <path id="Path_3438" data-name="Path 3438" d="M1245.652,913.055a.512.512,0,0,1-.173-.03c-15.531-5.626-22.132-23.636-23.032-26.3-2.249-.31-5.437-2.827-5.578-2.939a9.507,9.507,0,0,1-2.2-10.49,19.989,19.989,0,0,1-4.887-7.986,1.48,1.48,0,0,1,2.368-1.595l11.5,9.869a11.42,11.42,0,0,1,2.745,3.212c6.609,11.723,23.471,18.924,23.64,19a.508.508,0,0,1,.31.441,29.836,29.836,0,0,1-4.267,16.6.508.508,0,0,1-.425.229m-34.457-48.689a.49.49,0,0,0-.266.084.45.45,0,0,0-.181.535,18.851,18.851,0,0,0,4.872,7.808.508.508,0,0,1,.112.593c-.107.223-2.575,5.508,1.8,9.63.914.724,3.718,2.684,5.3,2.722a.507.507,0,0,1,.474.36c.061.2,6.194,19.778,22.127,25.827a29.522,29.522,0,0,0,3.906-15.328c-2.314-1.031-17.546-8.148-23.836-19.3A10.44,10.44,0,0,0,1223,874.36l-11.505-9.877a.445.445,0,0,0-.3-.118" transform="translate(-523.969 595.877)"/>
    <path id="Path_3439" data-name="Path 3439" d="M1082.544,949.688l34.823,40.462-19.392.575L1060.6,949.986Z" transform="translate(-409.097 529.364)" fill="#737f8b"/>
    <path id="Path_3440" data-name="Path 3440" d="M1127.456,1006.532s-7.995-4.064-10.693-7.218c-1.593-1.862-1.33-6.438-.847-9.874.188-1.336,1.729-1.448,2.565-.389l6.269,7.772a23.55,23.55,0,0,1,2.707,9.71" transform="translate(-451.428 499.589)" fill="#fff"/>
    <path id="Path_3441" data-name="Path 3441" d="M1125.734,1005.329a.512.512,0,0,1-.23-.055c-.33-.168-8.116-4.147-10.849-7.341-1.373-1.6-1.7-5.062-.965-10.276a1.7,1.7,0,0,1,1.233-1.478,2.173,2.173,0,0,1,2.234.845l6.266,7.767a.544.544,0,0,1,.048.071,23.834,23.834,0,0,1,2.771,9.945.508.508,0,0,1-.508.52m-10.338-18.2a.8.8,0,0,0-.207.026.694.694,0,0,0-.492.638c-.67,4.775-.411,8.14.73,9.474,2.106,2.462,7.654,5.561,9.734,6.674a23.09,23.09,0,0,0-2.557-8.551l-6.241-7.737a1.266,1.266,0,0,0-.967-.524" transform="translate(-449.706 501.299)"/>
    <path id="Path_3442" data-name="Path 3442" d="M1393.387,1075.106a56.665,56.665,0,0,1-19.792-3.761.508.508,0,1,1,.353-.952c27.614,10.245,44.205-4.03,44.37-4.176a.508.508,0,0,1,.674.76c-.124.11-9.418,8.129-25.6,8.129" transform="translate(-649.973 439.688)"/>
    <path id="Path_3443" data-name="Path 3443" d="M1402.521,899.179a39.753,39.753,0,0,1-4.019-.208.508.508,0,0,1,.1-1.011c12.891,1.314,22.932-3.537,29.848-14.406a49.671,49.671,0,0,0,6.583-16.907.508.508,0,0,1,1,.155,50.776,50.776,0,0,1-6.713,17.27c-4.5,7.079-12.708,15.107-26.805,15.107" transform="translate(-669.065 593.67)"/>
    <path id="Path_3444" data-name="Path 3444" d="M1366.42,868.747a.508.508,0,0,1-.5-.435c-2.616-17.881,5.644-28.051,5.728-28.152a.508.508,0,0,1,.781.649c-.081.1-8.051,9.948-5.5,27.356a.508.508,0,0,1-.429.576.475.475,0,0,1-.074.005" transform="translate(-643.921 613.884)"/>
    <path id="Path_3445" data-name="Path 3445" d="M1382.453,706.844a1.231,1.231,0,0,1-1.037-1.479c.969-4.345.6-11.788.739-11.578,1.549,2.273,4.775-.579,9.37-.76a3.825,3.825,0,0,1,4.2,2.84.533.533,0,0,0,.954.133c.67-1.038,1.81-1.917,3.51-.217,1.89,1.89.308,6.273-1.4,7.71.416.473,6.945,7.512,11.955,12.8a2.422,2.422,0,0,1-.3,3.6l-4.453,3.38a8.317,8.317,0,0,1-9.526.37l-.687-.442a1.354,1.354,0,0,1-.252-2.067l1.35-1.43a3.8,3.8,0,0,0,.193-4.314l-2.753-4.666a12.441,12.441,0,0,1-2.167,2.153,3.536,3.536,0,0,1-4.583-.37,13.048,13.048,0,0,1-3.577-5.442Z" transform="translate(-656.231 727.098)" fill="#fff"/>
    <path id="Path_3446" data-name="Path 3446" d="M1399.257,723.754a8.809,8.809,0,0,1-4.77-1.4l-.687-.442a1.861,1.861,0,0,1-.347-2.843l1.349-1.43a3.354,3.354,0,0,0,.11-3.735l-2.375-4.025a10.845,10.845,0,0,1-1.8,1.7,4.051,4.051,0,0,1-5.224-.419,13.736,13.736,0,0,1-3.612-5.351l-1.22-.172a1.755,1.755,0,0,1-1.2-.737,1.728,1.728,0,0,1-.267-1.356,54,54,0,0,0,.688-10.1c0-1.7,0-1.732.391-1.852a.521.521,0,0,1,.576.2c.683,1,1.821.705,3.942.047a19.124,19.124,0,0,1,4.989-1.029,4.324,4.324,0,0,1,4.7,3.2,2.844,2.844,0,0,1,1.964-1.391,3,3,0,0,1,2.373,1.095,3.931,3.931,0,0,1,1,3.044,8.69,8.69,0,0,1-2.052,5.049c1.445,1.574,7.143,7.706,11.615,12.429a2.931,2.931,0,0,1-.358,4.35l-4.453,3.38a8.829,8.829,0,0,1-5.338,1.789m-6.645-15.251h.04a.509.509,0,0,1,.4.249l2.753,4.666a4.288,4.288,0,0,1-.242,4.9l-1.369,1.452a.846.846,0,0,0,.158,1.292l.687.442a7.834,7.834,0,0,0,8.945-.348l4.453-3.38a1.92,1.92,0,0,0,.752-1.371,1.889,1.889,0,0,0-.518-1.471c-5.014-5.294-11.574-12.367-11.968-12.816a.509.509,0,0,1,.055-.724,7.3,7.3,0,0,0,2.073-4.681,3.032,3.032,0,0,0-.7-2.281,2.089,2.089,0,0,0-1.548-.8,1.763,1.763,0,0,0-1.177.937,1.041,1.041,0,0,1-1.867-.26,3.328,3.328,0,0,0-3.691-2.481,18.019,18.019,0,0,0-4.727.985c-1.63.506-3.091.958-4.194.377v.254a54.81,54.81,0,0,1-.712,10.326.7.7,0,0,0,.11.557.737.737,0,0,0,.5.309l1.535.216a.508.508,0,0,1,.415.355,12.481,12.481,0,0,0,3.442,5.222,3.019,3.019,0,0,0,3.942.321,11.609,11.609,0,0,0,2.066-2.06.507.507,0,0,1,.391-.184" transform="translate(-654.529 728.808)"/>
    <path id="Path_3447" data-name="Path 3447" d="M1438.571,764.762l-.879,1.227Z" transform="translate(-699.609 671.83)" fill="#fff"/>
    <path id="Path_3448" data-name="Path 3448" d="M1435.987,764.792a.508.508,0,0,1-.412-.8l.879-1.227a.508.508,0,0,1,.826.591l-.879,1.227a.508.508,0,0,1-.413.212" transform="translate(-697.905 673.535)"/>
    <path id="Path_3449" data-name="Path 3449" d="M998,1558.791c.111.459-5.276,25.108-5.276,25.108l12.381-2.073,3.73-20.84Z" transform="translate(-356.811 60.113)" fill="#fff"/>
    <path id="Path_3450" data-name="Path 3450" d="M991.024,1582.7a.508.508,0,0,1-.5-.617c2.084-9.534,5.192-23.992,5.265-24.97a.508.508,0,0,1,.608-.528l10.835,2.2a.509.509,0,0,1,.4.587l-3.73,20.841a.509.509,0,0,1-.416.412l-12.381,2.073a.528.528,0,0,1-.084.007m5.691-25.014c-.261,1.562-1.275,6.664-5.035,23.881l11.288-1.89,3.579-20Z" transform="translate(-355.106 61.816)"/>
    <path id="Path_3451" data-name="Path 3451" d="M962.568,1627.17a5.353,5.353,0,0,0-3.218-1.318,5.146,5.146,0,0,0-4.826,3.119c-2.147,4.771-7.808,18.065-9.408,28.93-.565,3.84,2.332,6.963,6.846,4.447,7.4-4.124,17.663-13.589,23.036-27.57a5.065,5.065,0,0,0-.616-4.8,24.124,24.124,0,0,0-3.252-3.668,3.385,3.385,0,0,0-4.41-.07l-1.163.956a2.331,2.331,0,0,1-2.989-.021" transform="translate(-320.075 8.757)" fill="#fff"/>
    <path id="Path_3452" data-name="Path 3452" d="M947.192,1662.04a4.136,4.136,0,0,1-2.392-.724,5.264,5.264,0,0,1-1.89-5.214c1.594-10.824,7.138-23.932,9.447-29.064a5.689,5.689,0,0,1,5.311-3.418,5.861,5.861,0,0,1,3.523,1.436,1.829,1.829,0,0,0,2.339.018l1.163-.956a3.872,3.872,0,0,1,5.071.084,24.245,24.245,0,0,1,3.323,3.748,5.543,5.543,0,0,1,.681,5.286c-5.361,13.95-15.532,23.524-23.263,27.831a6.9,6.9,0,0,1-3.314.974m10.259-37.409a4.677,4.677,0,0,0-4.167,2.823c-2.292,5.094-7.794,18.1-9.369,28.8a4.269,4.269,0,0,0,1.462,4.231c1.179.814,2.825.708,4.635-.3,7.575-4.221,17.545-13.612,22.809-27.308a4.532,4.532,0,0,0-.552-4.322,23.209,23.209,0,0,0-3.181-3.59,2.86,2.86,0,0,0-3.748-.056l-1.163.956a2.846,2.846,0,0,1-3.638-.025,4.792,4.792,0,0,0-2.913-1.2c-.058,0-.116,0-.174,0" transform="translate(-318.372 10.483)"/>
    <path id="Path_3453" data-name="Path 3453" d="M1008.539,1677.329a.508.508,0,0,1-.376-.849c4.159-4.585,7.462-9.631,11.4-17.414a.508.508,0,1,1,.906.458c-3.982,7.871-7.33,12.981-11.554,17.639a.506.506,0,0,1-.376.167" transform="translate(-368.6 -16.923)"/>
    <path id="Path_3454" data-name="Path 3454" d="M979.127,1706.553a.5.5,0,0,1-.187-.036l-5.382-2.127a.508.508,0,1,1,.374-.944l5.382,2.128a.508.508,0,0,1-.187.98" transform="translate(-341.795 -51.301)"/>
    <path id="Path_3455" data-name="Path 3455" d="M983.128,1684.918a.516.516,0,0,1-.165-.027l-4.845-1.659a.508.508,0,0,1,.329-.962l4.845,1.659a.508.508,0,0,1-.165.989" transform="translate(-345.291 -34.994)"/>
    <path id="Path_3456" data-name="Path 3456" d="M1247.75,1559.944c.293.37,5.766,25,5.766,25l10.363-7.085-5.375-20.478Z" transform="translate(-553.278 61.199)" fill="#fff"/>
    <path id="Path_3457" data-name="Path 3457" d="M1251.812,1583.747a.508.508,0,0,1-.5-.4c-2.117-9.527-5.374-23.953-5.718-24.87a.508.508,0,0,1,.33-.734l10.754-2.563a.508.508,0,0,1,.609.365l5.376,20.478a.508.508,0,0,1-.2.548l-10.364,7.085a.507.507,0,0,1-.287.089m-5.136-25.136c.42,1.527,1.644,6.583,5.469,23.786l9.448-6.459-5.159-19.652Z" transform="translate(-551.574 62.904)"/>
    <path id="Path_3458" data-name="Path 3458" d="M1262.092,1618.239a5.352,5.352,0,0,0-3.474.157,5.147,5.147,0,0,0-3.068,4.859c.057,5.232.508,19.674,3.623,30.2,1.1,3.722,5.042,5.338,8.081,1.157,4.98-6.851,10.315-19.755,9.315-34.7a5.065,5.065,0,0,0-2.579-4.1,24.139,24.139,0,0,0-4.493-1.961,3.385,3.385,0,0,0-4.031,1.79l-.654,1.357a2.331,2.331,0,0,1-2.721,1.237" transform="translate(-559.287 17.803)" fill="#fff"/>
    <path id="Path_3459" data-name="Path 3459" d="M1261.576,1655.885a4.084,4.084,0,0,1-.687-.059,5.265,5.265,0,0,1-3.907-3.937c-3.1-10.493-3.582-24.715-3.644-30.343a5.681,5.681,0,0,1,3.382-5.334,5.876,5.876,0,0,1,3.8-.177,1.828,1.828,0,0,0,2.13-.967l.654-1.357a3.873,3.873,0,0,1,4.637-2.055,24.313,24.313,0,0,1,4.591,2,5.545,5.545,0,0,1,2.839,4.511c1,14.911-4.206,27.873-9.41,35.031a5.6,5.6,0,0,1-4.386,2.684m-2.75-39.07a4.476,4.476,0,0,0-1.718.336,4.657,4.657,0,0,0-2.753,4.383c.061,5.585.534,19.7,3.6,30.067a4.269,4.269,0,0,0,3.1,3.224c1.411.243,2.86-.546,4.078-2.222,5.1-7.015,10.2-19.726,9.219-34.367a4.533,4.533,0,0,0-2.318-3.689,23.227,23.227,0,0,0-4.4-1.921,2.862,2.862,0,0,0-3.424,1.524l-.654,1.357a2.845,2.845,0,0,1-3.311,1.506,5.47,5.47,0,0,0-1.429-.2" transform="translate(-557.583 19.518)"/>
    <path id="Path_3460" data-name="Path 3460" d="M1282.484,1674.261a.508.508,0,0,1-.2-.975c.119-.053,9.5-4.487,10.465-32.439a.508.508,0,0,1,.507-.49h.018a.508.508,0,0,1,.49.525c-1,28.771-10.672,33.166-11.084,33.339a.508.508,0,0,1-.2.04" transform="translate(-579.645 -2.725)"/>
    <path id="Path_3461" data-name="Path 3461" d="M1269.8,1715.141a.508.508,0,0,1-.07-1.011l5.351-.756a.508.508,0,0,1,.142,1.006l-5.351.756a.508.508,0,0,1-.072.005" transform="translate(-569.877 -58.973)"/>
    <path id="Path_3462" data-name="Path 3462" d="M1267.332,1693.1a.508.508,0,0,1-.072-1.01l6.485-.945a.508.508,0,1,1,.146,1.005l-6.485.945a.446.446,0,0,1-.074.005" transform="translate(-567.973 -41.843)"/>
    <path id="Path_3463" data-name="Path 3463" d="M1117.387,1143.386s-75.394-3.272-83.636,4.381c-11.18,10.383-30.387,96.813-30.387,96.813l18.545,5.2s29.982-70.932,36.905-70.932,70.16-2.329,70.16-2.329Z" transform="translate(-365.004 380.675)" fill="#6b96e9"/>
    <path id="Path_3464" data-name="Path 3464" d="M1220.653,1137.448a12.4,12.4,0,0,1,12.687,9.476c2.173,8.985,4.054,21.272-.809,24.544-7.912,5.324-64.936,3.5-62.971,4.206.88.314,5.1,47.8,5.1,66.432l-17.958.693s-28.619-74.947-25.533-83.316c5.519-14.971,48-18.4,61.6-20.4,1.826-.269,17.33-1.093,27.888-1.633" transform="translate(-463.286 384.727)" fill="#6b96e9"/>
    <path id="Path_3465" data-name="Path 3465" d="M1139.041,1210.969a.508.508,0,0,1-.481-.346c-5.753-17.109-11.22-37.491-9.626-41.815,4.3-11.669,30.107-16.455,49.143-19.041a.508.508,0,0,1,.137,1.007c-18.777,2.55-44.215,7.23-48.327,18.385-1.252,3.4,2.891,21.082,9.636,41.14a.508.508,0,0,1-.32.643.514.514,0,0,1-.162.026" transform="translate(-461.526 375.227)" fill="#fff"/>
    <path id="Path_3466" data-name="Path 3466" d="M193.435,1650.654h-.017l-3.938-.13a.508.508,0,0,1-.491-.524.5.5,0,0,1,.525-.49l3.938.13a.508.508,0,0,1-.017,1.015" transform="translate(262.388 -9.774)"/>
    <path id="Path_3467" data-name="Path 3467" d="M153.478,1649.341h-.017l-3.938-.13a.508.508,0,1,1,.034-1.015l3.938.13a.508.508,0,0,1-.017,1.015" transform="translate(293.17 -8.764)"/>
    <path id="Path_3468" data-name="Path 3468" d="M178.472,1625.533h-.017a.508.508,0,0,1-.491-.524l.13-3.938a.494.494,0,0,1,.524-.491.508.508,0,0,1,.491.524l-.13,3.938a.508.508,0,0,1-.507.491" transform="translate(270.881 12.512)"/>
    <path id="Path_3469" data-name="Path 3469" d="M177.153,1665.493h-.017a.508.508,0,0,1-.491-.524l.13-3.938a.5.5,0,0,1,.524-.491.508.508,0,0,1,.491.524l-.13,3.938a.508.508,0,0,1-.507.491" transform="translate(271.897 -18.273)"/>
    <path id="Path_3470" data-name="Path 3470" d="M193.955,1552.2a3.956,3.956,0,0,1-1.532-.307,3.9,3.9,0,0,1-2.127-2.158,3.983,3.983,0,0,1,.054-3.1,4.09,4.09,0,0,1,5.29-2.16h0a3.9,3.9,0,0,1,2.127,2.159,3.983,3.983,0,0,1-.054,3.1,4.115,4.115,0,0,1-3.759,2.467m.15-7.017a3.1,3.1,0,0,0-2.824,1.858,2.976,2.976,0,0,0-.042,2.315,2.885,2.885,0,0,0,1.576,1.6,3.069,3.069,0,0,0,3.967-1.628,2.978,2.978,0,0,0,.042-2.315,2.888,2.888,0,0,0-1.577-1.6,2.956,2.956,0,0,0-1.143-.229" transform="translate(261.602 71.377)"/>
    <path id="Path_3471" data-name="Path 3471" d="M288.091,1717.237a3.129,3.129,0,1,1-.441,4.372,3.116,3.116,0,0,1,.441-4.372" transform="translate(186.92 -61.431)"/>
  </g>
</svg>
