<svg width="246" height="190" viewBox="0 0 246 190" fill="none" xmlns="http://www.w3.org/2000/svg">
<g clip-path="url(#clip0_1_723)">
<path d="M198.518 9.05651C171.996 -7.17965 134.469 0.446286 89.7948 15.9446C45.1202 31.4428 -17.8939 127.464 4.77245 156.658C27.4388 185.851 56.0302 194.624 110.486 187.818C164.942 181.012 222.595 129.433 222.595 129.433C222.595 129.433 251.187 96.5509 245.168 66.4566C239.149 36.3623 225.041 25.2927 198.518 9.05651Z" fill="#F4F7FE"/>
<g clip-path="url(#clip1_1_723)">
<path d="M202.789 141.157H76.0997C74.5612 141.157 73.0858 140.543 71.9979 139.451C70.9101 138.358 70.2989 136.876 70.2989 135.331V44.2332C70.2989 42.688 70.9101 41.2061 71.9979 40.1135C73.0858 39.0209 74.5612 38.407 76.0997 38.407H202.789C204.327 38.407 205.803 39.0209 206.89 40.1135C207.978 41.2061 208.589 42.688 208.589 44.2332V135.329C208.589 136.875 207.978 138.356 206.89 139.449C205.803 140.542 204.327 141.156 202.789 141.156" fill="#F4F7FE"/>
<path d="M138.822 141.338H75.9813C74.3954 141.336 72.8749 140.702 71.7536 139.576C70.6323 138.449 70.0016 136.922 70 135.329V44.235C70.0018 42.6422 70.6325 41.1152 71.7539 39.989C72.8752 38.8627 74.3955 38.2292 75.9813 38.2274H113.224C113.272 38.2274 113.318 38.2465 113.352 38.2806C113.386 38.3146 113.405 38.3607 113.405 38.4088C113.405 38.4569 113.386 38.503 113.352 38.537C113.318 38.571 113.272 38.5901 113.224 38.5901H75.9813C74.4912 38.5918 73.0627 39.1871 72.0091 40.2454C70.9555 41.3036 70.3628 42.7384 70.3611 44.235V135.329C70.3628 136.826 70.9555 138.261 72.0091 139.319C73.0627 140.377 74.4912 140.972 75.9813 140.974H138.823C138.87 140.974 138.916 140.993 138.95 141.027C138.984 141.061 139.003 141.107 139.003 141.156C139.003 141.204 138.984 141.25 138.95 141.284C138.916 141.318 138.87 141.337 138.823 141.337" fill="black"/>
<path d="M208.471 122.756C208.448 122.756 208.424 122.751 208.402 122.742C208.38 122.733 208.361 122.719 208.344 122.703C208.327 122.686 208.314 122.666 208.305 122.644C208.296 122.622 208.291 122.598 208.291 122.574V90.8375C208.291 90.7894 208.31 90.7432 208.344 90.7092C208.378 90.6752 208.423 90.6561 208.471 90.6561C208.519 90.6561 208.565 90.6752 208.599 90.7092C208.633 90.7432 208.652 90.7894 208.652 90.8375V122.574C208.652 122.598 208.647 122.622 208.638 122.644C208.629 122.666 208.616 122.686 208.599 122.703C208.582 122.719 208.562 122.733 208.541 122.742C208.519 122.751 208.495 122.756 208.471 122.756Z" fill="black"/>
<path d="M208.471 67.1722C208.423 67.1722 208.377 67.1531 208.343 67.1191C208.31 67.0851 208.29 67.039 208.29 66.9909V44.2346C208.289 42.738 207.696 41.3031 206.642 40.2449C205.589 39.1866 204.16 38.5914 202.67 38.5898H147.525C147.501 38.5898 147.477 38.5851 147.456 38.576C147.434 38.5669 147.414 38.5535 147.397 38.5367C147.38 38.5198 147.367 38.4999 147.358 38.4779C147.349 38.4558 147.344 38.4323 147.344 38.4085C147.344 38.3846 147.349 38.3611 147.358 38.339C147.367 38.317 147.38 38.2971 147.397 38.2802C147.414 38.2634 147.434 38.25 147.456 38.2409C147.477 38.2318 147.501 38.2271 147.525 38.2271H202.67C204.256 38.2289 205.776 38.8624 206.897 39.9886C208.019 41.1149 208.649 42.6419 208.651 44.2346V66.9909C208.651 67.039 208.632 67.0851 208.598 67.1191C208.565 67.1531 208.519 67.1722 208.471 67.1722Z" fill="black"/>
<path d="M171.857 44.8583H133.004C132.956 44.8583 132.91 44.8391 132.876 44.8051C132.842 44.7711 132.823 44.725 132.823 44.6769C132.823 44.6288 132.842 44.5827 132.876 44.5487C132.91 44.5147 132.956 44.4956 133.004 44.4956H171.857C171.905 44.4956 171.951 44.5147 171.984 44.5487C172.018 44.5827 172.037 44.6288 172.037 44.6769C172.037 44.725 172.018 44.7711 171.984 44.8051C171.951 44.8391 171.905 44.8583 171.857 44.8583Z" fill="black"/>
<path d="M77.6294 67.2386C77.5816 67.2386 77.5356 67.2195 77.5018 67.1855C77.4679 67.1515 77.4489 67.1054 77.4489 67.0573V48.7913C77.4501 47.6523 77.9011 46.5604 78.7029 45.7551C79.5048 44.9498 80.5919 44.4968 81.7259 44.4956H115.374C115.422 44.4956 115.468 44.5147 115.502 44.5487C115.536 44.5827 115.555 44.6288 115.555 44.6769C115.555 44.725 115.536 44.7711 115.502 44.8051C115.468 44.8391 115.422 44.8583 115.374 44.8583H81.7259C80.6877 44.8594 79.6923 45.2741 78.9582 46.0115C78.2241 46.7488 77.8111 47.7485 77.81 48.7913V67.0573C77.81 67.1054 77.791 67.1515 77.7571 67.1855C77.7233 67.2195 77.6773 67.2386 77.6294 67.2386Z" fill="black"/>
<path d="M154.979 128.541H81.7259C80.5919 128.539 79.5048 128.086 78.703 127.281C77.9012 126.476 77.4502 125.384 77.4489 124.245V95.0817C77.4489 95.0336 77.4679 94.9875 77.5018 94.9535C77.5356 94.9195 77.5816 94.9004 77.6294 94.9004C77.6773 94.9004 77.7233 94.9195 77.7571 94.9535C77.791 94.9875 77.81 95.0336 77.81 95.0817V124.245C77.8111 125.288 78.2241 126.288 78.9582 127.025C79.6923 127.762 80.6876 128.177 81.7259 128.178H154.979C155.027 128.178 155.073 128.197 155.107 128.232C155.141 128.266 155.16 128.312 155.16 128.36C155.16 128.408 155.141 128.454 155.107 128.488C155.073 128.522 155.027 128.541 154.979 128.541Z" fill="black"/>
<path d="M200.713 63.89C200.665 63.89 200.619 63.8709 200.585 63.8369C200.551 63.8029 200.532 63.7568 200.532 63.7087V48.7913C200.531 47.7485 200.118 46.7488 199.384 46.0115C198.65 45.2741 197.654 44.8594 196.616 44.8583H194.153C194.105 44.8583 194.059 44.8391 194.025 44.8051C193.991 44.7711 193.972 44.725 193.972 44.6769C193.972 44.6288 193.991 44.5827 194.025 44.5487C194.059 44.5147 194.105 44.4956 194.153 44.4956H196.616C197.75 44.4968 198.837 44.9498 199.639 45.7551C200.441 46.5604 200.892 47.6524 200.893 48.7913V63.7087C200.893 63.7325 200.889 63.7561 200.88 63.7781C200.87 63.8001 200.857 63.8202 200.84 63.837C200.824 63.8539 200.804 63.8672 200.782 63.8763C200.76 63.8854 200.736 63.8901 200.713 63.89Z" fill="black"/>
<path d="M198.73 136.7H79.1951C78.7842 136.7 78.3901 136.536 78.0996 136.244C77.809 135.953 77.6458 135.557 77.6458 135.144C77.6458 134.731 77.809 134.336 78.0996 134.044C78.3901 133.752 78.7842 133.588 79.1951 133.588H198.729C199.139 133.588 199.534 133.752 199.824 134.044C200.115 134.336 200.278 134.731 200.278 135.144C200.278 135.557 200.115 135.953 199.824 136.244C199.534 136.536 199.139 136.7 198.729 136.7" fill="#4B5D7B"/>
<path d="M198.73 136.883H79.1951C78.7363 136.883 78.2963 136.7 77.9719 136.374C77.6475 136.048 77.4652 135.606 77.4652 135.145C77.4652 134.684 77.6475 134.242 77.9719 133.917C78.2963 133.591 78.7363 133.408 79.1951 133.408H198.729C199.187 133.408 199.627 133.591 199.952 133.917C200.276 134.242 200.458 134.684 200.458 135.145C200.458 135.606 200.276 136.048 199.952 136.374C199.627 136.7 199.187 136.883 198.729 136.883M79.1951 133.77C78.8376 133.779 78.4975 133.927 78.2475 134.184C77.9975 134.441 77.8576 134.786 77.8576 135.145C77.8576 135.504 77.9975 135.849 78.2475 136.106C78.4975 136.363 78.8376 136.511 79.1951 136.519H198.729C199.086 136.511 199.426 136.363 199.676 136.106C199.926 135.849 200.066 135.504 200.066 135.145C200.066 134.786 199.926 134.441 199.676 134.184C199.426 133.927 199.086 133.779 198.729 133.77H79.1951Z" fill="black"/>
<path d="M136.117 135.09C136.117 135.573 135.975 136.045 135.708 136.446C135.441 136.848 135.061 137.16 134.617 137.345C134.173 137.53 133.684 137.578 133.213 137.484C132.742 137.39 132.309 137.157 131.969 136.816C131.629 136.475 131.397 136.04 131.304 135.566C131.21 135.093 131.258 134.602 131.442 134.156C131.626 133.71 131.937 133.329 132.337 133.061C132.737 132.793 133.207 132.649 133.687 132.649C134.332 132.649 134.95 132.907 135.406 133.364C135.861 133.822 136.117 134.443 136.117 135.09Z" fill="#4B5D7B"/>
<path d="M133.687 137.713C133.17 137.713 132.666 137.559 132.236 137.271C131.807 136.983 131.472 136.573 131.275 136.094C131.077 135.615 131.026 135.088 131.126 134.579C131.227 134.07 131.476 133.603 131.841 133.236C132.206 132.87 132.671 132.62 133.178 132.519C133.684 132.418 134.209 132.47 134.686 132.668C135.163 132.866 135.571 133.203 135.858 133.634C136.144 134.065 136.297 134.572 136.297 135.091C136.297 135.786 136.021 136.452 135.532 136.944C135.043 137.435 134.379 137.712 133.687 137.713ZM133.687 132.831C133.242 132.831 132.807 132.964 132.437 133.212C132.067 133.46 131.779 133.813 131.608 134.226C131.438 134.639 131.394 135.093 131.48 135.531C131.567 135.97 131.782 136.372 132.096 136.688C132.411 137.004 132.812 137.219 133.248 137.307C133.684 137.394 134.137 137.349 134.548 137.178C134.959 137.007 135.31 136.717 135.557 136.346C135.804 135.974 135.936 135.537 135.936 135.091C135.936 134.491 135.698 133.917 135.277 133.494C134.855 133.07 134.283 132.832 133.687 132.831Z" fill="black"/>
<path d="M117.831 128.486H138.95C137.081 111.804 135.21 101.158 135.21 101.158L103.404 95.583L100.23 104.695C99.2795 107.453 97.9775 111.511 96.7647 116.529C96.1136 119.222 95.1983 121.958 94.459 128.488L117.831 128.486Z" fill="#6B96E9"/>
<path d="M117.834 128.669C117.815 128.669 117.797 128.666 117.779 128.66C117.733 128.646 117.695 128.614 117.673 128.571C117.651 128.528 117.647 128.478 117.662 128.433C119.199 123.601 122.191 123.31 122.318 123.3C122.365 123.297 122.412 123.312 122.448 123.343C122.485 123.374 122.507 123.418 122.512 123.466C122.516 123.514 122.5 123.561 122.469 123.598C122.438 123.635 122.394 123.657 122.347 123.661C122.318 123.663 119.464 123.96 118.006 128.543C117.994 128.58 117.971 128.612 117.94 128.634C117.91 128.657 117.872 128.669 117.834 128.669" fill="white"/>
<path d="M139.559 110.168C139.518 112.828 139.666 115.182 134.329 115.514C128.002 115.907 123.177 109.235 123.177 109.235C123.177 109.235 139.573 109.282 139.559 110.168" fill="#737F8B"/>
<path d="M170.736 59.0099L173.793 54.8938C173.793 54.8938 171.827 51.568 173.59 49.7331C176.48 46.7243 175.887 41.1837 177.408 40.036C177.548 39.9384 177.713 39.8821 177.883 39.8732C178.053 39.8644 178.223 39.9034 178.372 39.986C178.521 40.0685 178.645 40.1912 178.729 40.3404C178.812 40.4895 178.853 40.6592 178.846 40.8303L178.73 44.7351C178.759 45.7829 180.392 46.7197 181.268 46.1578C182.964 45.0707 184.61 44.5452 186.509 44.0872C187.51 43.8459 188.845 43.6666 189.562 43.8116C190.654 44.0326 190.881 44.9086 190.081 45.6901C187.654 48.0602 181.342 49.2011 179.829 54.2223C179.25 56.1468 177.336 58.6329 175.85 61.0216L170.736 59.0099Z" fill="white"/>
<path d="M175.852 61.2012C175.829 61.2011 175.807 61.1968 175.786 61.1887L170.671 59.1784C170.645 59.1683 170.622 59.1522 170.603 59.1316C170.584 59.1109 170.57 59.0862 170.563 59.0594C170.555 59.0325 170.554 59.0043 170.559 58.9768C170.564 58.9493 170.575 58.9234 170.592 58.901L173.577 54.8795C173.247 54.2765 171.781 51.3524 173.459 49.6063C175.072 47.9284 175.586 45.3938 175.998 43.3557C176.33 41.7178 176.592 40.424 177.299 39.8896C177.457 39.7687 177.647 39.6962 177.845 39.681C178.044 39.6657 178.242 39.7083 178.417 39.8036C178.606 39.8995 178.763 40.0474 178.871 40.23C178.979 40.4125 179.032 40.6221 179.026 40.8342L178.91 44.7387C178.951 44.9959 179.056 45.2386 179.215 45.4445C179.373 45.6504 179.581 45.8128 179.819 45.9168C180.018 46.0459 180.247 46.1217 180.483 46.1368C180.72 46.1519 180.956 46.1059 181.17 46.0032C182.865 44.9161 184.513 44.3799 186.466 43.909C187.488 43.6627 188.852 43.4806 189.596 43.632C189.839 43.6551 190.071 43.746 190.266 43.8945C190.461 44.043 190.61 44.2431 190.698 44.4724C190.746 44.7206 190.726 44.9775 190.639 45.2149C190.552 45.4523 190.402 45.6612 190.205 45.8186C189.366 46.6397 188.074 47.3133 186.706 48.028C184.022 49.431 180.979 51.0214 180 54.2722C179.571 55.6949 178.459 57.3713 177.281 59.1463C176.851 59.7932 176.407 60.4622 176.001 61.1151C175.985 61.1412 175.962 61.1628 175.936 61.1777C175.909 61.1926 175.879 61.2004 175.848 61.2004M171.023 58.9275L175.778 60.7963C176.165 60.1801 176.581 59.5533 176.984 58.946C178.146 57.1939 179.244 55.5392 179.658 54.168C180.681 50.7712 183.795 49.1436 186.543 47.7064C187.886 47.0042 189.155 46.3409 189.955 45.5587C190.103 45.4458 190.218 45.2949 190.288 45.1218C190.359 44.9488 190.381 44.76 190.353 44.5752C190.282 44.4108 190.167 44.2692 190.021 44.1658C189.875 44.0623 189.704 44.0009 189.526 43.9883C188.837 43.8487 187.535 44.024 186.551 44.2625C184.634 44.7244 183.019 45.2496 181.365 46.3095C181.098 46.45 180.799 46.5175 180.498 46.5049C180.197 46.4924 179.904 46.4003 179.65 46.2381C179.354 46.1036 179.097 45.8952 178.904 45.6327C178.711 45.3702 178.589 45.0624 178.548 44.7387L178.664 40.8239C178.668 40.68 178.631 40.5379 178.558 40.4142C178.485 40.2906 178.378 40.1905 178.25 40.1256C178.135 40.0623 178.005 40.0338 177.874 40.0433C177.744 40.0529 177.619 40.1002 177.514 40.1795C176.916 40.6307 176.654 41.9266 176.35 43.4282C175.929 45.5105 175.404 48.1023 173.717 49.8584C172.069 51.5741 173.927 54.7685 173.946 54.8006C173.965 54.8314 173.973 54.8669 173.971 54.9027C173.97 54.9385 173.957 54.9729 173.936 55.0016L171.023 58.9275Z" fill="black"/>
<path d="M170.927 55.0608C170.927 55.0608 159.944 69.8497 154.228 74.1783C151.731 68.1262 147.482 60.7781 140.574 56.1915C132.12 50.5788 116.536 50.4685 108.158 52.7025C105.772 53.3232 103.422 54.0726 101.116 54.9473C93.012 58.0853 94.4188 71.1549 98.2913 86.0873C99.8742 92.3641 99.6331 98.9651 97.5968 105.109C96.2319 109.309 95.327 113.567 96.8842 114.431C98.7927 115.518 100.916 116.17 103.103 116.342C105.29 116.514 107.488 116.202 109.542 115.427C119.457 111.772 134.927 107.634 139.546 110.843L139.996 89.251C140.987 91.2858 142.692 93.1975 145.502 94.6205C162.212 103.084 179.02 60.1705 179.02 60.1705L170.927 55.0608Z" fill="#99BBFD"/>
<path d="M104.253 116.58C101.64 116.562 99.0734 115.876 96.7957 114.589C95.4066 113.818 95.6181 110.609 97.4241 105.051C99.4554 98.9412 99.6953 92.3736 98.1154 86.1305C95.8523 77.4026 94.8724 71.0335 95.0309 66.0855C95.2271 59.9674 97.1959 56.2682 101.05 54.7756C103.361 53.8979 105.719 53.1466 108.111 52.5251C112.549 51.3417 118.619 50.8915 124.349 51.3217C129.09 51.6787 135.77 52.7853 140.672 56.0383C147.714 60.7149 151.961 68.2807 154.303 73.888C159.984 69.4499 170.672 55.0955 170.781 54.9494C170.808 54.9129 170.848 54.888 170.892 54.8797C170.937 54.8714 170.983 54.8802 171.022 54.9045L179.116 60.0134C179.151 60.036 179.178 60.0704 179.19 60.1105C179.203 60.1507 179.202 60.1941 179.187 60.2333C177.019 65.5484 174.514 70.7183 171.687 75.7112C167.486 83.0821 161.004 92.4336 153.977 95.1264C151.002 96.2663 148.122 96.1502 145.418 94.7804C143.225 93.7336 141.393 92.0517 140.158 89.951L139.723 110.844C139.722 110.877 139.713 110.91 139.695 110.938C139.678 110.965 139.653 110.988 139.624 111.003C139.595 111.018 139.562 111.025 139.529 111.022C139.497 111.02 139.465 111.009 139.438 110.99C134.691 107.691 118.448 112.332 109.599 115.595C107.888 116.239 106.077 116.572 104.25 116.579M119.996 51.5423C115.505 51.5423 111.297 52.0514 108.204 52.8764C105.824 53.4946 103.479 54.2419 101.18 55.1151C94.4345 57.7272 93.5971 67.2651 98.4655 86.0401C100.063 92.3501 99.8204 98.988 97.7678 105.164C95.595 111.85 96.1349 113.807 96.9709 114.271C98.855 115.35 100.953 115.998 103.115 116.168C105.277 116.338 107.45 116.026 109.479 115.256C118.232 112.029 134.187 107.478 139.371 110.516L139.814 89.2459C139.815 89.2053 139.829 89.1661 139.855 89.1347C139.88 89.1033 139.916 89.0814 139.955 89.0727C139.995 89.0639 140.036 89.0687 140.073 89.0864C140.109 89.104 140.139 89.1334 140.156 89.1699C141.247 91.4072 143.071 93.1865 145.582 94.4574C148.191 95.7782 150.973 95.89 153.849 94.7883C160.775 92.1344 167.201 82.854 171.372 75.5359C174.165 70.5996 176.644 65.4911 178.795 60.2408L170.969 55.3014C169.851 56.7948 159.716 70.2467 154.335 74.3214C154.313 74.3381 154.287 74.3495 154.26 74.3547C154.233 74.3599 154.205 74.3589 154.179 74.3516C154.152 74.3443 154.128 74.331 154.107 74.3127C154.086 74.2945 154.07 74.2717 154.059 74.2461C151.756 68.6641 147.53 61.0266 140.472 56.341C135.245 52.8707 127.25 51.5419 119.996 51.5419" fill="black"/>
<path d="M91.6891 95.2692L96.9229 104.73C97.1524 105.144 97.5362 105.451 97.9903 105.582C98.4444 105.713 98.9317 105.658 99.3456 105.429L102.641 103.704C103.077 103.474 103.544 103.311 104.027 103.217C104.457 103.132 104.9 103.142 105.325 103.248C105.749 103.355 106.146 103.554 106.485 103.832L111.576 107.98C114.136 110.725 108.52 111.321 107.397 111.201L105.465 110.994C104.163 111.062 102.875 111.296 101.631 111.69C99.5153 112.478 97.1949 112.52 95.0522 111.807L94.8592 111.739C93.384 111.217 92.119 110.226 91.2569 108.915L84.977 99.3679L91.6891 95.2692Z" fill="white"/>
<path d="M98.0706 112.496C97.0226 112.5 95.9814 112.325 94.9918 111.978L94.7988 111.91C93.2879 111.373 91.9918 110.357 91.1058 109.015L84.826 99.4682C84.8126 99.4478 84.8034 99.425 84.7991 99.401C84.7947 99.377 84.7951 99.3524 84.8005 99.3286C84.8058 99.3048 84.8158 99.2823 84.83 99.2625C84.8441 99.2427 84.8621 99.2259 84.8828 99.2133L91.5963 95.1143C91.6171 95.1015 91.6402 95.0931 91.6642 95.0896C91.6883 95.0861 91.7128 95.0875 91.7363 95.0937C91.7599 95.0999 91.7819 95.1109 91.8011 95.1259C91.8202 95.1409 91.8362 95.1597 91.848 95.181L97.0818 104.641C97.2888 105.014 97.6338 105.289 98.0417 105.406C98.4496 105.524 98.8874 105.475 99.2596 105.27L102.558 103.543C103.009 103.306 103.491 103.136 103.991 103.04C104.446 102.948 104.916 102.959 105.367 103.071C105.818 103.184 106.239 103.396 106.598 103.691L111.69 107.84C111.696 107.845 111.702 107.85 111.708 107.856C112.379 108.577 112.576 109.231 112.294 109.801C111.608 111.182 108.182 111.469 107.377 111.382L105.46 111.177C104.18 111.245 102.914 111.475 101.692 111.861C100.529 112.275 99.3052 112.489 98.0713 112.496M85.2315 99.4257L91.4083 108.815C92.2509 110.09 93.4832 111.056 94.9197 111.567L95.1127 111.635C97.2176 112.326 99.4926 112.284 101.571 111.518C102.831 111.116 104.138 110.879 105.458 110.813C105.467 110.812 105.476 110.812 105.485 110.813L107.416 111.019C108.302 111.114 111.413 110.763 111.971 109.638C112.179 109.219 112.004 108.706 111.453 108.111L106.37 103.97C106.052 103.708 105.679 103.52 105.28 103.42C104.88 103.32 104.464 103.311 104.06 103.393C103.596 103.483 103.146 103.64 102.727 103.86L99.4277 105.587C98.972 105.837 98.4364 105.897 97.9375 105.752C97.4386 105.607 97.0168 105.27 96.764 104.815L91.6233 95.5219L85.2315 99.4257Z" fill="black"/>
<path d="M102.426 78.6868C93.3348 80.0998 94.876 88.4188 94.876 88.4188L96.7765 101.005L87.6531 106.913C87.6531 106.913 69.3719 87.3407 77.0458 71.6154C83.4014 58.5915 105.557 53.4583 105.557 53.4583L102.426 78.6868Z" fill="#99BBFD"/>
<path d="M87.6535 107.094C87.6288 107.094 87.6043 107.089 87.5817 107.079C87.559 107.07 87.5385 107.055 87.5216 107.037C84.3308 103.446 81.5748 99.4884 79.311 95.2463C77.2051 91.248 75.8512 87.3924 75.2864 83.7936C74.5787 79.2811 75.1158 75.1571 76.8827 71.5361C80.1882 64.7604 87.8035 60.1569 93.6088 57.4884C97.4441 55.73 101.429 54.3222 105.516 53.2819C105.539 53.2762 105.563 53.2752 105.587 53.279C105.611 53.2827 105.633 53.2911 105.654 53.3037C105.674 53.3163 105.692 53.3329 105.705 53.3524C105.719 53.3719 105.729 53.394 105.735 53.4174C105.74 53.4408 105.741 53.465 105.737 53.4887C105.733 53.5124 105.724 53.535 105.711 53.5553C105.698 53.5756 105.682 53.5931 105.662 53.6068C105.642 53.6206 105.62 53.6302 105.597 53.6353C101.532 54.6704 97.5687 56.0711 93.7542 57.8204C88.0046 60.4639 80.4669 65.0171 77.2083 71.6954C73.2775 79.7502 76.3552 88.8561 79.6316 95.0764C81.8583 99.2445 84.5604 103.138 87.6833 106.679L96.5806 100.917L94.6968 88.4473C94.6709 88.3081 94.0624 84.8638 96.0883 81.9936C97.4056 80.1272 99.5283 78.9548 102.398 78.5086C102.422 78.5025 102.448 78.5016 102.472 78.5059C102.497 78.5102 102.521 78.5197 102.542 78.5336C102.562 78.5476 102.58 78.5657 102.594 78.5869C102.607 78.6082 102.616 78.632 102.62 78.6568C102.624 78.6817 102.622 78.7071 102.616 78.7315C102.609 78.7558 102.598 78.7785 102.582 78.7981C102.567 78.8178 102.547 78.8339 102.525 78.8455C102.503 78.8571 102.478 78.864 102.453 78.8656C99.6854 79.294 97.6437 80.4171 96.3851 82.1985C94.4469 84.9417 95.0466 88.3513 95.053 88.3856L96.9545 100.977C96.9595 101.012 96.9545 101.047 96.9402 101.078C96.9259 101.11 96.9029 101.137 96.8739 101.156L87.7498 107.065C87.7207 107.084 87.6867 107.094 87.6521 107.094" fill="black"/>
<path d="M129.72 41.5386C130.6 41.137 131.056 41.8056 132.366 41.6243C133.135 41.5049 133.86 41.1897 134.472 40.7089C135.085 40.228 135.565 39.5975 135.866 38.8776C136.56 37.0458 135.559 35.2997 134.928 34.1988C134.301 33.1035 133.502 31.884 132.117 31.3578C130.311 30.6713 129.556 31.7255 127.488 31.0786C125.806 30.5524 125.929 29.7374 124.431 29.3097C123.183 28.9527 119.588 29.1566 118.784 31.0786C118.273 32.2981 119.374 33.0421 118.825 34.8481C118.496 35.9331 117.978 36.0662 117.6 36.9037C116.662 38.9825 117.838 42.6331 120.075 43.8562C123.111 45.5159 128.202 42.2312 129.719 41.5386" fill="#6B96E9"/>
<path d="M126.927 45.0253L127.633 50.8561C127.699 51.3984 127.925 51.9085 128.283 52.3199C128.641 52.7314 129.114 53.0252 129.64 53.1634L131.675 53.8163C131.764 53.8445 131.844 53.8975 131.905 53.9693C131.966 54.0411 132.005 54.1287 132.019 54.2221C132.032 54.3154 132.019 54.4106 131.981 54.4968C131.942 54.5829 131.881 54.6564 131.803 54.7088C126.661 58.096 119.568 58.0364 114.646 54.2804L114.07 53.841C113.984 53.7755 113.919 53.6869 113.882 53.5855C113.844 53.484 113.837 53.374 113.86 53.2684C113.883 53.1627 113.935 53.0659 114.011 52.9891C114.087 52.9124 114.183 52.8591 114.288 52.8353L116.805 52.2698C117.326 52.1525 117.801 51.8833 118.171 51.4959C118.54 51.1085 118.787 50.6201 118.881 50.0922L120.421 41.5025L126.927 45.0253Z" fill="white"/>
<path d="M123.463 57.3659C120.248 57.3891 117.113 56.3566 114.537 54.4257L113.961 53.9863C113.848 53.8997 113.762 53.7827 113.713 53.649C113.665 53.5152 113.655 53.3703 113.685 53.231C113.715 53.0918 113.784 52.9642 113.884 52.863C113.984 52.7618 114.11 52.6913 114.249 52.6597L116.766 52.0942C117.253 51.9854 117.696 51.7344 118.041 51.373C118.386 51.0115 118.616 50.5557 118.704 50.0629L120.243 41.4732C120.248 41.445 120.26 41.4184 120.277 41.3955C120.295 41.3727 120.317 41.3543 120.343 41.3418C120.368 41.3293 120.397 41.3232 120.425 41.3238C120.454 41.3244 120.482 41.3318 120.507 41.3454L127.011 44.8643C127.037 44.8781 127.059 44.8978 127.075 44.9218C127.091 44.9458 127.101 44.9733 127.105 45.0021L127.811 50.8329C127.87 51.3398 128.081 51.8169 128.415 52.2013C128.749 52.5857 129.192 52.8595 129.684 52.9867L131.728 53.6428C131.852 53.6819 131.961 53.7555 132.044 53.855C132.127 53.9545 132.18 54.0757 132.196 54.2044C132.214 54.3307 132.196 54.4597 132.144 54.576C132.091 54.6923 132.007 54.7912 131.9 54.8609C129.39 56.5023 126.457 57.373 123.461 57.3666M120.553 41.7842L119.058 50.1275C118.958 50.6906 118.694 51.2113 118.3 51.6243C117.906 52.0372 117.399 52.3238 116.843 52.448L114.326 53.0135C114.254 53.0296 114.189 53.0659 114.137 53.1181C114.086 53.1704 114.05 53.2363 114.034 53.3082C114.019 53.3801 114.024 53.4549 114.049 53.524C114.075 53.593 114.119 53.6533 114.178 53.6978L114.753 54.1373C119.552 57.7975 126.521 57.9703 131.702 54.5575C131.752 54.5254 131.791 54.4796 131.815 54.4256C131.839 54.3716 131.847 54.3118 131.838 54.2533C131.831 54.1924 131.806 54.135 131.767 54.0879C131.728 54.0408 131.676 54.0061 131.618 53.9881L129.583 53.3348C129.023 53.1885 128.52 52.8756 128.139 52.4369C127.759 51.9983 127.52 51.4545 127.453 50.8768L126.758 45.1392L120.553 41.7842Z" fill="black"/>
<path d="M121.161 42.6906C121.161 42.6906 118.869 41.5707 119.674 39.4337C120.411 37.4803 121.99 39.423 121.99 39.423C121.99 39.423 123.291 34.7378 126.023 36.5856C127.657 37.6942 129.452 38.544 131.343 39.1053C131.343 39.1053 130.381 43.8208 128.653 46.9592C127.611 48.8513 126.29 50.17 124.733 49.5342C120.472 47.7935 121.16 42.6917 121.16 42.6917" fill="white"/>
<path d="M125.531 49.8794C125.234 49.8769 124.94 49.8163 124.666 49.7009C120.704 48.0823 120.898 43.6002 120.969 42.7916C120.5 42.5185 118.76 41.3476 119.506 39.3695C119.725 38.7887 120.043 38.4606 120.452 38.3938C121.028 38.2989 121.607 38.7705 121.912 39.0721C122.159 38.3488 122.883 36.5589 124.155 36.088C124.487 35.9778 124.84 35.9518 125.184 36.0125C125.527 36.0732 125.851 36.2186 126.125 36.4357C127.743 37.5305 129.519 38.3716 131.389 38.93C131.434 38.9416 131.473 38.9701 131.497 39.0096C131.522 39.0491 131.53 39.0965 131.521 39.1421C131.512 39.1892 130.534 43.9208 128.812 47.0463C127.774 48.9305 126.674 49.8794 125.531 49.8794M120.606 38.7448C120.574 38.7447 120.542 38.7472 120.511 38.7522C120.239 38.7969 120.013 39.0478 119.844 39.4984C119.108 41.4522 121.153 42.485 121.241 42.5278C121.275 42.5446 121.303 42.5716 121.321 42.6052C121.339 42.6388 121.346 42.6771 121.341 42.7149C121.334 42.7645 120.724 47.6993 124.803 49.365C126.059 49.878 127.302 49.0391 128.496 46.8703C130.011 44.1215 130.944 40.0924 131.132 39.2331C129.285 38.6573 127.53 37.8156 125.923 36.7342C125.696 36.5509 125.427 36.4269 125.141 36.3731C124.854 36.3193 124.559 36.3374 124.281 36.4257C122.883 36.9426 122.172 39.4445 122.165 39.4698C122.156 39.5018 122.139 39.5308 122.115 39.5535C122.091 39.5763 122.061 39.5919 122.028 39.5987C121.996 39.6055 121.962 39.6033 121.931 39.5922C121.9 39.5811 121.872 39.5616 121.851 39.5359C121.662 39.3042 121.094 38.7423 120.607 38.7423" fill="black"/>
<path d="M169.813 20.1813H140.667C140.278 20.1834 139.894 20.2631 139.536 20.4159C139.178 20.5687 138.855 20.7915 138.583 21.0713C138.312 21.351 138.099 21.6822 137.957 22.0455C137.815 22.4088 137.746 22.7969 137.754 23.1872V31.6591C137.746 32.0489 137.815 32.4364 137.958 32.7991C138.1 33.1618 138.313 33.4923 138.584 33.7712C138.856 34.0502 139.179 34.2721 139.537 34.4239C139.895 34.5757 140.279 34.6544 140.667 34.6553H141.721V40.3112L145.556 34.6539H169.813C170.613 34.6578 171.382 34.346 171.955 33.7855C172.528 33.225 172.859 32.4608 172.877 31.6577V23.1872C172.86 22.383 172.529 21.6175 171.957 21.0554C171.384 20.4932 170.614 20.1794 169.813 20.1813Z" fill="#F5F5F5"/>
<path d="M141.72 40.4944C141.702 40.4943 141.684 40.4917 141.667 40.4865C141.63 40.475 141.598 40.452 141.575 40.4208C141.552 40.3895 141.54 40.3518 141.54 40.313V34.8367H140.667C140.255 34.8364 139.847 34.7534 139.467 34.5928C139.087 34.4321 138.743 34.1969 138.455 33.901C138.167 33.605 137.941 33.2544 137.79 32.8694C137.638 32.4845 137.565 32.0732 137.574 31.6595V23.1873C137.565 22.7729 137.637 22.3607 137.788 21.975C137.939 21.5892 138.165 21.2376 138.453 20.9407C138.741 20.6439 139.085 20.4078 139.465 20.2462C139.846 20.0847 140.254 20.001 140.667 20H169.812C170.66 20.002 171.473 20.3362 172.079 20.9315C172.685 21.5268 173.036 22.3362 173.056 23.1873V31.6591C173.034 32.5088 172.683 33.3164 172.077 33.9098C171.471 34.5033 170.659 34.8357 169.812 34.8364H145.651L141.87 40.4148C141.854 40.4392 141.832 40.4592 141.806 40.473C141.78 40.4868 141.751 40.494 141.721 40.494M140.667 20.3627C140.301 20.3642 139.94 20.4388 139.604 20.5823C139.268 20.7258 138.964 20.9352 138.709 21.1982C138.455 21.4613 138.255 21.7727 138.122 22.1143C137.989 22.4558 137.925 22.8206 137.935 23.1873V31.6591C137.926 32.0252 137.99 32.3893 138.123 32.7302C138.257 33.071 138.456 33.3817 138.711 33.6439C138.965 33.9061 139.269 34.1146 139.605 34.2572C139.941 34.3997 140.302 34.4734 140.667 34.474H141.72C141.768 34.474 141.814 34.4931 141.848 34.5271C141.882 34.5611 141.901 34.6073 141.901 34.6554V39.7247L145.406 34.5536C145.423 34.5292 145.445 34.5092 145.471 34.4954C145.497 34.4816 145.526 34.4744 145.556 34.4744H169.813C170.564 34.475 171.286 34.1812 171.824 33.6554C172.363 33.1296 172.675 32.4135 172.696 31.6595V23.1873C172.677 22.432 172.364 21.7141 171.826 21.1865C171.288 20.659 170.565 20.3634 169.813 20.3627H140.667Z" fill="black"/>
<path d="M157.891 26.2235H166.877C167.156 26.2235 167.424 26.1122 167.621 25.9142C167.818 25.7162 167.929 25.4477 167.929 25.1677C167.929 24.8876 167.818 24.6191 167.621 24.4211C167.424 24.2231 167.156 24.1118 166.877 24.1118H157.891C157.613 24.1118 157.345 24.2231 157.148 24.4211C156.951 24.6191 156.84 24.8876 156.84 25.1677C156.84 25.4477 156.951 25.7162 157.148 25.9142C157.345 26.1122 157.613 26.2235 157.891 26.2235Z" fill="#737F8B"/>
<path d="M148.031 26.2235H152.837C153.115 26.2235 153.383 26.1122 153.58 25.9142C153.777 25.7162 153.888 25.4477 153.888 25.1677C153.888 24.8876 153.777 24.6191 153.58 24.4211C153.383 24.2231 153.115 24.1118 152.837 24.1118H148.031C147.752 24.1118 147.485 24.2231 147.288 24.4211C147.091 24.6191 146.98 24.8876 146.98 25.1677C146.98 25.4477 147.091 25.7162 147.288 25.9142C147.485 26.1122 147.752 26.2235 148.031 26.2235Z" fill="#737F8B"/>
<path d="M143.751 30.7852H166.876C167.155 30.7852 167.423 30.6739 167.62 30.4759C167.817 30.2779 167.928 30.0094 167.928 29.7294C167.928 29.4493 167.817 29.1808 167.62 28.9828C167.423 28.7848 167.155 28.6736 166.876 28.6736H143.751C143.473 28.6736 143.205 28.7848 143.008 28.9828C142.811 29.1808 142.7 29.4493 142.7 29.7294C142.7 30.0094 142.811 30.2779 143.008 30.4759C143.205 30.6739 143.473 30.7852 143.751 30.7852Z" fill="#737F8B"/>
<path d="M132.943 94.1225C130.972 92.3742 129.768 89.9143 129.595 87.2788C129.421 84.6433 130.292 82.0457 132.017 80.0519C132.867 79.0673 133.903 78.2616 135.065 77.6812C136.227 77.1008 137.492 76.7573 138.787 76.6703C140.082 76.5834 141.381 76.7548 142.61 77.1746C143.839 77.5945 144.972 78.2545 145.946 79.1166C147.917 80.8649 149.12 83.3247 149.294 85.9603C149.467 88.5958 148.597 91.1934 146.872 93.1872C146.022 94.1718 144.985 94.9775 143.823 95.558C142.661 96.1384 141.396 96.482 140.101 96.5689C138.807 96.6559 137.507 96.4844 136.279 96.0646C135.05 95.6447 133.916 94.9846 132.943 94.1225Z" fill="#2686FF"/>
<path d="M139.43 96.7725C136.996 96.7749 134.645 95.8804 132.823 94.2585C130.819 92.4768 129.596 89.9728 129.419 87.2905C129.243 84.6082 130.127 81.9642 131.88 79.933C132.747 78.9303 133.802 78.1098 134.985 77.5187C136.168 76.9277 137.457 76.5777 138.775 76.4891C140.094 76.4006 141.417 76.5751 142.668 77.0026C143.919 77.4302 145.074 78.1023 146.065 78.9802C148.069 80.7619 149.293 83.2659 149.469 85.9482C149.646 88.6306 148.761 91.2745 147.008 93.3057C146.143 94.3111 145.087 95.1335 143.903 95.7248C142.718 96.3161 141.428 96.6645 140.107 96.7496C139.881 96.765 139.655 96.7725 139.43 96.7725ZM139.458 76.8286C139.241 76.8286 139.024 76.836 138.805 76.8507C137.532 76.9329 136.288 77.2687 135.146 77.8388C134.004 78.4088 132.986 79.2015 132.152 80.1708C130.461 82.1296 129.608 84.6795 129.779 87.2664C129.949 89.8533 131.129 92.2682 133.062 93.9865C134.017 94.8328 135.13 95.4807 136.336 95.8929C137.542 96.305 138.818 96.4733 140.089 96.3879C141.36 96.3026 142.602 95.9653 143.742 95.3955C144.883 94.8258 145.9 94.0348 146.735 93.0683C148.426 91.1095 149.279 88.5596 149.109 85.9727C148.939 83.3858 147.759 80.9708 145.826 79.2526C144.07 77.6891 141.804 76.8267 139.458 76.829" fill="black"/>
<path d="M136.555 89.7989V83.5622C136.555 83.4892 136.573 83.4172 136.608 83.3533C136.643 83.2893 136.694 83.2355 136.756 83.197C136.818 83.1584 136.889 83.1364 136.961 83.1329C137.034 83.1295 137.106 83.1448 137.172 83.1774L143.381 86.2568C143.452 86.2919 143.513 86.3463 143.555 86.4139C143.597 86.4816 143.62 86.5597 143.62 86.6396C143.621 86.7194 143.599 86.7978 143.557 86.8659C143.516 86.9339 143.456 86.9889 143.385 87.0247L137.175 90.182C137.11 90.2153 137.038 90.2313 136.965 90.2284C136.892 90.2254 136.821 90.2037 136.758 90.1653C136.696 90.1268 136.645 90.0729 136.609 90.0088C136.574 89.9446 136.555 89.8724 136.555 89.7989" fill="white"/>
<path d="M217.52 151.059C216.027 147.975 215.885 144.868 217.52 141.729L216.347 140.317L175.618 141.376L176.723 151.609L216.426 151.968L217.52 151.059Z" fill="white"/>
<path d="M216.426 152.15L176.724 151.79C176.68 151.79 176.637 151.773 176.604 151.743C176.572 151.713 176.551 151.672 176.546 151.628L175.441 141.395C175.438 141.37 175.44 141.345 175.448 141.321C175.455 141.297 175.468 141.275 175.484 141.256C175.501 141.237 175.521 141.222 175.543 141.211C175.566 141.201 175.591 141.195 175.616 141.194L216.344 140.135C216.37 140.135 216.397 140.141 216.421 140.153C216.446 140.164 216.468 140.18 216.486 140.2L217.659 141.612C217.682 141.64 217.696 141.674 217.7 141.709C217.703 141.745 217.697 141.781 217.68 141.812C216.134 144.782 216.135 147.78 217.683 150.978C217.7 151.015 217.705 151.056 217.697 151.096C217.688 151.136 217.667 151.171 217.635 151.197L216.541 152.107C216.509 152.134 216.468 152.149 216.426 152.149M176.887 151.428L216.361 151.785L217.296 151.008C215.797 147.828 215.8 144.715 217.304 141.752L216.264 140.499L175.82 141.551L176.887 151.428Z" fill="black"/>
<path d="M147.545 139.19H218.072C218.241 139.187 218.409 139.218 218.566 139.281C218.723 139.344 218.866 139.438 218.986 139.557C219.107 139.676 219.202 139.818 219.268 139.974C219.333 140.131 219.367 140.299 219.367 140.468C219.367 140.638 219.333 140.806 219.268 140.963C219.202 141.119 219.107 141.261 218.986 141.38C218.866 141.499 218.723 141.593 218.566 141.656C218.409 141.719 218.241 141.75 218.072 141.747H180.176C179.192 141.736 178.244 142.117 177.54 142.808C176.836 143.498 176.434 144.442 176.422 145.43V147.5C176.434 148.489 176.836 149.432 177.54 150.122C178.244 150.813 179.192 151.195 180.176 151.183H218.072C218.241 151.18 218.409 151.211 218.565 151.274C218.722 151.337 218.865 151.431 218.986 151.55C219.106 151.669 219.202 151.811 219.267 151.967C219.333 152.124 219.366 152.292 219.366 152.462C219.366 152.631 219.333 152.799 219.267 152.956C219.202 153.113 219.106 153.254 218.986 153.373C218.865 153.492 218.722 153.586 218.565 153.649C218.409 153.712 218.241 153.743 218.072 153.74H147.545C145.73 153.761 143.982 153.058 142.684 151.784C141.386 150.511 140.645 148.772 140.624 146.95V145.98C140.645 144.158 141.387 142.419 142.684 141.146C143.982 139.873 145.73 139.169 147.545 139.19Z" fill="white"/>
<path d="M218.072 153.921H147.544C145.683 153.94 143.89 153.217 142.559 151.91C141.228 150.603 140.467 148.819 140.443 146.95V145.98C140.467 144.111 141.228 142.327 142.559 141.02C143.89 139.713 145.683 138.99 147.544 139.009H218.072C218.265 139.006 218.456 139.041 218.635 139.113C218.814 139.185 218.977 139.293 219.114 139.428C219.252 139.564 219.361 139.726 219.435 139.905C219.51 140.083 219.548 140.275 219.548 140.469C219.548 140.663 219.51 140.854 219.435 141.033C219.361 141.212 219.252 141.373 219.114 141.509C218.977 141.645 218.814 141.752 218.635 141.824C218.456 141.896 218.265 141.932 218.072 141.929H180.176C179.24 141.918 178.338 142.281 177.669 142.938C176.999 143.594 176.616 144.49 176.603 145.43V147.501C176.616 148.441 176.999 149.337 177.669 149.993C178.338 150.65 179.24 151.013 180.176 151.002H218.072C218.265 150.999 218.456 151.035 218.635 151.107C218.814 151.179 218.977 151.286 219.114 151.422C219.252 151.557 219.361 151.719 219.435 151.898C219.51 152.077 219.548 152.268 219.548 152.462C219.548 152.656 219.51 152.847 219.435 153.026C219.361 153.205 219.252 153.367 219.114 153.503C218.977 153.638 218.814 153.746 218.635 153.818C218.456 153.89 218.265 153.925 218.072 153.922M147.544 139.372C145.779 139.353 144.077 140.038 142.814 141.277C141.55 142.516 140.828 144.208 140.804 145.981V146.951C140.828 148.724 141.55 150.416 142.814 151.654C144.077 152.893 145.779 153.578 147.544 153.559H218.072C218.218 153.564 218.364 153.539 218.5 153.486C218.637 153.433 218.761 153.353 218.867 153.25C218.972 153.148 219.055 153.026 219.112 152.89C219.169 152.755 219.199 152.609 219.199 152.462C219.199 152.315 219.169 152.17 219.112 152.034C219.055 151.899 218.972 151.776 218.867 151.674C218.761 151.572 218.637 151.491 218.5 151.438C218.364 151.385 218.218 151.36 218.072 151.365H180.176C179.144 151.375 178.151 150.974 177.413 150.25C176.676 149.525 176.255 148.537 176.242 147.501V145.43C176.255 144.394 176.676 143.406 177.413 142.681C178.151 141.957 179.144 141.556 180.176 141.566H218.072C218.218 141.571 218.364 141.546 218.5 141.493C218.637 141.44 218.761 141.36 218.867 141.257C218.972 141.155 219.055 141.033 219.112 140.897C219.169 140.762 219.199 140.616 219.199 140.469C219.199 140.322 219.169 140.177 219.112 140.041C219.055 139.906 218.972 139.783 218.867 139.681C218.761 139.579 218.637 139.499 218.5 139.445C218.364 139.392 218.218 139.367 218.072 139.372L147.544 139.372Z" fill="black"/>
<path d="M192.558 144.615H184.102C184.054 144.615 184.008 144.596 183.974 144.562C183.94 144.528 183.921 144.482 183.921 144.434C183.921 144.386 183.94 144.34 183.974 144.306C184.008 144.272 184.054 144.252 184.102 144.252H192.558C192.606 144.252 192.652 144.272 192.685 144.306C192.719 144.34 192.738 144.386 192.738 144.434C192.738 144.482 192.719 144.528 192.685 144.562C192.652 144.596 192.606 144.615 192.558 144.615Z" fill="black"/>
<path d="M213.239 144.615H196.011C195.963 144.615 195.917 144.596 195.883 144.562C195.849 144.528 195.83 144.482 195.83 144.434C195.83 144.386 195.849 144.34 195.883 144.306C195.917 144.272 195.963 144.252 196.011 144.252H213.239C213.287 144.252 213.333 144.272 213.367 144.306C213.401 144.34 213.42 144.386 213.42 144.434C213.42 144.482 213.401 144.528 213.367 144.562C213.333 144.596 213.287 144.615 213.239 144.615Z" fill="black"/>
<path d="M213.426 146.503H186.895C186.847 146.503 186.801 146.484 186.767 146.45C186.733 146.416 186.714 146.37 186.714 146.322C186.714 146.274 186.733 146.227 186.767 146.193C186.801 146.159 186.847 146.14 186.895 146.14H213.426C213.474 146.14 213.52 146.159 213.554 146.193C213.587 146.227 213.606 146.274 213.606 146.322C213.606 146.37 213.587 146.416 213.554 146.45C213.52 146.484 213.474 146.503 213.426 146.503Z" fill="black"/>
<path d="M187.235 148.873H184.567C184.519 148.873 184.473 148.854 184.439 148.82C184.405 148.786 184.386 148.739 184.386 148.691C184.386 148.643 184.405 148.597 184.439 148.563C184.473 148.529 184.519 148.51 184.567 148.51H187.235C187.283 148.51 187.329 148.529 187.362 148.563C187.396 148.597 187.415 148.643 187.415 148.691C187.415 148.739 187.396 148.786 187.362 148.82C187.329 148.854 187.283 148.873 187.235 148.873Z" fill="black"/>
<path d="M215.089 148.873H191.752C191.704 148.873 191.659 148.854 191.625 148.82C191.591 148.786 191.572 148.739 191.572 148.691C191.572 148.643 191.591 148.597 191.625 148.563C191.659 148.529 191.704 148.51 191.752 148.51H215.089C215.137 148.51 215.183 148.529 215.217 148.563C215.25 148.597 215.27 148.643 215.27 148.691C215.27 148.739 215.25 148.786 215.217 148.82C215.183 148.854 215.137 148.873 215.089 148.873Z" fill="black"/>
<path d="M138.587 168.299H203.805V155.068H138.587C140.245 159.537 140.291 163.949 138.587 168.299Z" fill="white"/>
<path d="M203.805 168.482H138.586C138.557 168.482 138.528 168.475 138.502 168.461C138.476 168.447 138.454 168.427 138.437 168.403C138.421 168.378 138.41 168.35 138.407 168.321C138.404 168.292 138.408 168.262 138.418 168.234C140.074 164.006 140.074 159.599 138.418 155.133C138.408 155.105 138.405 155.076 138.408 155.047C138.412 155.018 138.423 154.99 138.439 154.966C138.456 154.942 138.478 154.922 138.504 154.908C138.53 154.895 138.558 154.888 138.588 154.888H203.806C203.83 154.888 203.853 154.892 203.875 154.902C203.897 154.911 203.917 154.924 203.934 154.941C203.95 154.958 203.964 154.978 203.973 155C203.982 155.022 203.986 155.045 203.986 155.069V168.3C203.986 168.323 203.982 168.347 203.973 168.369C203.964 168.391 203.95 168.411 203.934 168.428C203.917 168.445 203.897 168.458 203.875 168.467C203.853 168.476 203.83 168.481 203.806 168.481M138.851 168.118H203.624V155.25H138.845C140.413 159.631 140.414 163.958 138.85 168.118" fill="black"/>
<path d="M197.041 155.722H138.2C138.06 155.728 137.92 155.706 137.789 155.657C137.657 155.607 137.537 155.531 137.436 155.434C137.334 155.337 137.253 155.219 137.198 155.09C137.143 154.96 137.114 154.821 137.114 154.68C137.114 154.539 137.143 154.399 137.198 154.269C137.253 154.14 137.334 154.023 137.436 153.925C137.537 153.828 137.657 153.752 137.789 153.702C137.92 153.653 138.06 153.631 138.2 153.637H211.866C214.496 153.637 216.631 155.688 216.631 158.218V165.42C216.631 167.95 214.499 170.001 211.866 170.001H138.2C138.06 170.008 137.92 169.986 137.789 169.936C137.657 169.887 137.537 169.811 137.436 169.713C137.334 169.616 137.253 169.499 137.198 169.369C137.143 169.24 137.114 169.1 137.114 168.959C137.114 168.818 137.143 168.678 137.198 168.549C137.253 168.419 137.334 168.302 137.436 168.205C137.537 168.107 137.657 168.031 137.789 167.982C137.92 167.932 138.06 167.91 138.2 167.917H197.041C197.915 167.935 198.76 167.605 199.392 166.998C200.023 166.391 200.388 165.558 200.408 164.68V158.958C200.388 158.081 200.023 157.247 199.392 156.64C198.76 156.033 197.915 155.703 197.041 155.722Z" fill="#737F8B"/>
<path d="M194.011 158.392H182.397C182.349 158.392 182.303 158.372 182.269 158.338C182.235 158.304 182.216 158.258 182.216 158.21C182.216 158.162 182.235 158.116 182.269 158.082C182.303 158.048 182.349 158.029 182.397 158.029H194.011C194.059 158.029 194.105 158.048 194.138 158.082C194.172 158.116 194.191 158.162 194.191 158.21C194.191 158.258 194.172 158.304 194.138 158.338C194.105 158.372 194.059 158.392 194.011 158.392Z" fill="black"/>
<path d="M168.237 160.157H156.305C156.258 160.157 156.212 160.138 156.178 160.104C156.144 160.07 156.125 160.024 156.125 159.976C156.125 159.927 156.144 159.881 156.178 159.847C156.212 159.813 156.258 159.794 156.305 159.794H168.237C168.285 159.794 168.331 159.813 168.365 159.847C168.399 159.881 168.418 159.927 168.418 159.976C168.418 160.024 168.399 160.07 168.365 160.104C168.331 160.138 168.285 160.157 168.237 160.157Z" fill="black"/>
<path d="M189.397 160.157H181.419C181.371 160.157 181.325 160.138 181.291 160.104C181.258 160.07 181.239 160.024 181.239 159.976C181.239 159.927 181.258 159.881 181.291 159.847C181.325 159.813 181.371 159.794 181.419 159.794H189.397C189.445 159.794 189.491 159.813 189.525 159.847C189.558 159.881 189.577 159.927 189.577 159.976C189.577 160.024 189.558 160.07 189.525 160.104C189.491 160.138 189.445 160.157 189.397 160.157Z" fill="black"/>
<path d="M197.408 160.157H193.189C193.142 160.157 193.096 160.138 193.062 160.104C193.028 160.07 193.009 160.024 193.009 159.976C193.009 159.927 193.028 159.881 193.062 159.847C193.096 159.813 193.142 159.794 193.189 159.794H197.408C197.456 159.794 197.502 159.813 197.536 159.847C197.57 159.881 197.589 159.927 197.589 159.976C197.589 160.024 197.57 160.07 197.536 160.104C197.502 160.138 197.456 160.157 197.408 160.157Z" fill="black"/>
<path d="M168.714 163.843H154.078C154.03 163.843 153.984 163.824 153.95 163.79C153.916 163.756 153.897 163.71 153.897 163.662C153.897 163.613 153.916 163.567 153.95 163.533C153.984 163.499 154.03 163.48 154.078 163.48H168.714C168.762 163.48 168.808 163.499 168.842 163.533C168.876 163.567 168.895 163.613 168.895 163.662C168.895 163.71 168.876 163.756 168.842 163.79C168.808 163.824 168.762 163.843 168.714 163.843Z" fill="black"/>
<path d="M197.033 163.843H179.374C179.326 163.843 179.28 163.824 179.247 163.79C179.213 163.756 179.194 163.71 179.194 163.662C179.194 163.613 179.213 163.567 179.247 163.533C179.28 163.499 179.326 163.48 179.374 163.48H197.033C197.081 163.48 197.127 163.499 197.161 163.533C197.195 163.567 197.214 163.613 197.214 163.662C197.214 163.71 197.195 163.756 197.161 163.79C197.127 163.824 197.081 163.843 197.033 163.843Z" fill="black"/>
<path d="M172.418 163.843H171.322C171.274 163.843 171.228 163.824 171.195 163.79C171.161 163.756 171.142 163.71 171.142 163.662C171.142 163.613 171.161 163.567 171.195 163.533C171.228 163.499 171.274 163.48 171.322 163.48H172.418C172.466 163.48 172.512 163.499 172.546 163.533C172.58 163.567 172.599 163.613 172.599 163.662C172.599 163.71 172.58 163.756 172.546 163.79C172.512 163.824 172.466 163.843 172.418 163.843Z" fill="black"/>
<path d="M216.183 137.734H163.852C161.251 137.734 160.114 135.617 160.114 133.004V130.739C160.114 128.126 161.251 126.009 163.852 126.009H216.183C214.711 129.969 214.671 133.879 216.183 137.734" fill="white"/>
<path d="M216.183 137.916H163.852C161.399 137.916 159.933 136.08 159.933 133.004V130.739C159.933 127.663 161.398 125.827 163.852 125.827H216.183C216.212 125.827 216.241 125.834 216.267 125.848C216.293 125.861 216.315 125.881 216.331 125.905C216.348 125.929 216.359 125.957 216.362 125.986C216.366 126.015 216.362 126.044 216.352 126.072C214.884 130.024 214.883 133.926 216.352 137.668C216.363 137.696 216.367 137.725 216.364 137.755C216.36 137.784 216.35 137.812 216.333 137.837C216.317 137.861 216.294 137.881 216.268 137.895C216.242 137.909 216.213 137.916 216.184 137.916M163.853 126.19C161.625 126.19 160.295 127.891 160.295 130.739V133.005C160.295 135.853 161.625 137.553 163.853 137.553H215.921C214.544 133.892 214.546 129.851 215.926 126.19L163.853 126.19Z" fill="black"/>
<path d="M164.172 126.587H216.526C216.65 126.593 216.775 126.573 216.891 126.53C217.008 126.486 217.115 126.419 217.205 126.333C217.296 126.246 217.367 126.142 217.416 126.027C217.466 125.912 217.491 125.788 217.491 125.663C217.491 125.538 217.466 125.414 217.416 125.299C217.367 125.184 217.296 125.08 217.205 124.993C217.115 124.907 217.008 124.84 216.891 124.796C216.775 124.753 216.65 124.733 216.526 124.739H163.257C162.16 124.714 161.098 125.128 160.305 125.89C159.512 126.651 159.052 127.698 159.027 128.799V135.182C159.052 136.284 159.512 137.33 160.305 138.091C161.098 138.853 162.16 139.267 163.257 139.242H216.527C216.651 139.248 216.776 139.229 216.892 139.185C217.009 139.141 217.116 139.074 217.206 138.988C217.297 138.901 217.368 138.797 217.418 138.682C217.467 138.567 217.492 138.443 217.492 138.318C217.492 138.193 217.467 138.069 217.418 137.954C217.368 137.839 217.297 137.735 217.206 137.649C217.116 137.562 217.009 137.495 216.892 137.451C216.776 137.408 216.651 137.388 216.527 137.394H164.172C163.397 137.411 162.648 137.118 162.088 136.58C161.528 136.043 161.204 135.304 161.186 134.526V129.456C161.204 128.679 161.528 127.94 162.088 127.402C162.648 126.864 163.397 126.572 164.172 126.588" fill="white"/>
<path d="M216.526 139.424H163.256C162.112 139.446 161.006 139.012 160.18 138.217C159.354 137.422 158.875 136.331 158.849 135.182V128.8C158.875 127.651 159.354 126.559 160.18 125.764C161.006 124.969 162.112 124.535 163.256 124.558H216.526C216.675 124.55 216.824 124.573 216.964 124.625C217.104 124.678 217.232 124.758 217.341 124.861C217.449 124.965 217.535 125.089 217.594 125.227C217.653 125.365 217.683 125.513 217.683 125.663C217.683 125.813 217.653 125.962 217.594 126.1C217.535 126.238 217.449 126.362 217.341 126.465C217.232 126.569 217.104 126.649 216.964 126.701C216.824 126.753 216.675 126.776 216.526 126.769H164.172C163.445 126.752 162.741 127.025 162.215 127.529C161.689 128.033 161.383 128.725 161.364 129.455V134.525C161.383 135.255 161.689 135.947 162.215 136.451C162.741 136.955 163.445 137.228 164.172 137.212H216.526C216.675 137.204 216.824 137.227 216.964 137.279C217.104 137.331 217.232 137.411 217.341 137.515C217.449 137.618 217.535 137.743 217.594 137.881C217.653 138.018 217.683 138.167 217.683 138.317C217.683 138.467 217.653 138.616 217.594 138.753C217.535 138.891 217.449 139.016 217.341 139.119C217.232 139.223 217.104 139.303 216.964 139.355C216.824 139.407 216.675 139.43 216.526 139.422M163.256 124.919C162.208 124.896 161.193 125.292 160.434 126.019C159.676 126.746 159.235 127.745 159.209 128.798V135.181C159.235 136.234 159.676 137.233 160.434 137.96C161.193 138.687 162.208 139.083 163.256 139.06H216.526C216.626 139.065 216.727 139.05 216.821 139.015C216.915 138.98 217.002 138.926 217.075 138.857C217.148 138.787 217.206 138.704 217.245 138.611C217.285 138.518 217.306 138.418 217.306 138.317C217.306 138.216 217.285 138.116 217.245 138.023C217.206 137.93 217.148 137.847 217.075 137.777C217.002 137.708 216.915 137.654 216.821 137.619C216.727 137.584 216.626 137.569 216.526 137.574H164.172C163.35 137.591 162.554 137.279 161.961 136.707C161.367 136.135 161.023 135.351 161.005 134.525V129.455C161.023 128.63 161.367 127.845 161.961 127.273C162.555 126.702 163.35 126.39 164.172 126.406H216.526C216.626 126.411 216.727 126.396 216.821 126.361C216.915 126.326 217.002 126.273 217.075 126.203C217.148 126.134 217.206 126.05 217.245 125.957C217.285 125.864 217.306 125.764 217.306 125.663C217.306 125.562 217.285 125.462 217.245 125.37C217.206 125.277 217.148 125.193 217.075 125.124C217.002 125.054 216.915 125 216.821 124.965C216.727 124.931 216.626 124.915 216.526 124.921L163.256 124.919Z" fill="black"/>
<path d="M216.526 126.769H203.124C203.076 126.769 203.03 126.75 202.996 126.716C202.962 126.682 202.943 126.636 202.943 126.588C202.943 126.54 202.962 126.494 202.996 126.46C203.03 126.426 203.076 126.407 203.124 126.407H216.526C216.626 126.412 216.727 126.397 216.821 126.362C216.915 126.327 217.002 126.273 217.075 126.204C217.148 126.134 217.206 126.051 217.246 125.958C217.285 125.865 217.306 125.765 217.306 125.664C217.306 125.563 217.285 125.463 217.246 125.37C217.206 125.277 217.148 125.194 217.075 125.124C217.002 125.055 216.915 125.001 216.821 124.966C216.727 124.931 216.626 124.916 216.526 124.922H204.761C204.713 124.922 204.667 124.902 204.633 124.868C204.599 124.834 204.58 124.788 204.58 124.74C204.58 124.692 204.599 124.646 204.633 124.612C204.667 124.578 204.713 124.559 204.761 124.559H216.526C216.675 124.551 216.824 124.574 216.964 124.626C217.104 124.678 217.232 124.759 217.341 124.862C217.449 124.965 217.535 125.09 217.594 125.228C217.653 125.366 217.683 125.514 217.683 125.664C217.683 125.814 217.653 125.963 217.594 126.101C217.535 126.238 217.449 126.363 217.341 126.466C217.232 126.57 217.104 126.65 216.964 126.702C216.824 126.754 216.675 126.777 216.526 126.769Z" fill="black"/>
<path d="M216.524 139.423H178.654C178.606 139.423 178.56 139.404 178.526 139.37C178.493 139.336 178.474 139.29 178.474 139.242C178.474 139.194 178.493 139.148 178.526 139.114C178.56 139.08 178.606 139.061 178.654 139.061H216.524C216.625 139.066 216.725 139.051 216.819 139.016C216.914 138.981 217 138.927 217.073 138.858C217.146 138.788 217.204 138.705 217.244 138.612C217.284 138.519 217.304 138.419 217.304 138.318C217.304 138.217 217.284 138.117 217.244 138.024C217.204 137.932 217.146 137.848 217.073 137.778C217 137.709 216.914 137.655 216.819 137.62C216.725 137.585 216.625 137.57 216.524 137.576H178.449C178.402 137.576 178.356 137.556 178.322 137.522C178.288 137.488 178.269 137.442 178.269 137.394C178.269 137.346 178.288 137.3 178.322 137.266C178.356 137.232 178.402 137.213 178.449 137.213H216.524C216.673 137.205 216.823 137.228 216.963 137.28C217.103 137.332 217.231 137.413 217.339 137.516C217.448 137.619 217.534 137.744 217.593 137.882C217.652 138.02 217.682 138.168 217.682 138.318C217.682 138.468 217.652 138.617 217.593 138.755C217.534 138.892 217.448 139.017 217.339 139.12C217.231 139.224 217.103 139.304 216.963 139.356C216.823 139.408 216.673 139.431 216.524 139.423Z" fill="black"/>
<path d="M213.11 130.539H189.619C189.571 130.539 189.525 130.52 189.491 130.486C189.457 130.452 189.438 130.406 189.438 130.358C189.438 130.31 189.457 130.264 189.491 130.23C189.525 130.196 189.571 130.176 189.619 130.176H213.11C213.158 130.176 213.204 130.196 213.238 130.23C213.271 130.264 213.29 130.31 213.29 130.358C213.29 130.406 213.271 130.452 213.238 130.486C213.204 130.52 213.158 130.539 213.11 130.539Z" fill="black"/>
<path d="M186.076 130.539H180.917C180.869 130.539 180.823 130.52 180.789 130.486C180.755 130.452 180.736 130.406 180.736 130.358C180.736 130.31 180.755 130.264 180.789 130.23C180.823 130.196 180.869 130.176 180.917 130.176H186.076C186.124 130.176 186.17 130.196 186.204 130.23C186.238 130.264 186.257 130.31 186.257 130.358C186.257 130.406 186.238 130.452 186.204 130.486C186.17 130.52 186.124 130.539 186.076 130.539Z" fill="black"/>
<path d="M213.11 133.806H188.508C188.46 133.806 188.414 133.787 188.38 133.753C188.346 133.719 188.327 133.673 188.327 133.625C188.327 133.577 188.346 133.53 188.38 133.496C188.414 133.462 188.46 133.443 188.508 133.443H213.11C213.158 133.443 213.204 133.462 213.238 133.496C213.271 133.53 213.29 133.577 213.29 133.625C213.29 133.673 213.271 133.719 213.238 133.753C213.204 133.787 213.158 133.806 213.11 133.806Z" fill="black"/>
<path d="M185.152 133.806H182.564C182.516 133.806 182.47 133.787 182.436 133.753C182.402 133.719 182.383 133.673 182.383 133.625C182.383 133.577 182.402 133.53 182.436 133.496C182.47 133.462 182.516 133.443 182.564 133.443H185.152C185.199 133.443 185.245 133.462 185.279 133.496C185.313 133.53 185.332 133.577 185.332 133.625C185.332 133.673 185.313 133.719 185.279 133.753C185.245 133.787 185.199 133.806 185.152 133.806Z" fill="black"/>
<path d="M218.125 80.3446C218.732 80.1223 219.246 79.7006 219.584 79.148C220.073 78.3205 220.329 76.9917 219.205 75.0836C216.667 70.775 212.489 72.7785 210.882 72.2712C207.282 71.1342 208.12 69.3081 206.648 67.5232C205.547 66.1862 201.76 63.6526 196.063 68.2918C196.063 68.2918 193.512 71.5829 190.589 70.3059C186.997 68.7373 179.823 72.1898 182.132 77.4041C182.783 78.8785 183.959 80.0551 185.43 80.7027C185.691 80.8176 185.978 80.9294 186.289 81.0318C186.741 81.1847 187.147 81.4515 187.467 81.8069C187.788 82.1622 188.012 82.5941 188.118 83.0614C188.872 86.2329 191.685 92.3639 201.931 86.2768C202.305 86.0522 202.727 85.9208 203.162 85.8937C203.596 85.8667 204.031 85.9447 204.429 86.1212C205.418 86.5588 206.499 88.2374 211.25 87.5613C214.302 87.1272 215.25 83.7839 216.046 82.2653C216.482 81.3912 217.221 80.708 218.125 80.3453" fill="#6B96E9"/>
<path d="M202.196 105.165C203.812 102.249 206.23 95.9375 203.149 89.8247V89.8268C202.787 89.2602 202.662 88.728 202.212 88.2203C200.52 86.3068 198.057 85.8963 195.054 85.4C192.407 84.9631 186.302 83.9535 182.77 87.0719C182.315 87.4671 181.927 87.9344 181.622 88.4552C181.026 89.1949 179.497 91.4247 178.517 95.8125C177.278 101.355 170.334 104.891 166.753 103.161C163.172 101.431 163.062 100.541 163.062 100.541L163.346 103.332C163.346 103.332 169.357 114.583 178.964 108.585C177.089 114.613 174.965 116.249 176.083 119.792C177.998 125.864 186.386 127.89 187.883 128.217C192.149 129.151 200.244 129.387 203.53 124.699C206.564 120.368 201.93 116.855 202.198 105.164" fill="#CFDFFF"/>
<path d="M193.159 128.955C191.372 128.955 189.59 128.767 187.843 128.395C185.515 127.885 177.775 125.762 175.909 119.847C175.158 117.467 175.852 115.874 176.904 113.461C177.561 112.001 178.142 110.508 178.646 108.988C176.1 110.464 173.575 110.88 171.136 110.227C166.16 108.892 163.215 103.473 163.186 103.418C163.175 103.397 163.168 103.374 163.165 103.351L162.881 100.56C162.876 100.512 162.89 100.465 162.92 100.428C162.95 100.39 162.993 100.367 163.04 100.361C163.064 100.358 163.087 100.36 163.11 100.366C163.133 100.373 163.154 100.383 163.173 100.398C163.191 100.413 163.207 100.431 163.218 100.452C163.23 100.472 163.237 100.495 163.24 100.519C163.24 100.519 163.482 101.381 166.83 102.998C168.315 103.716 170.499 103.513 172.673 102.456C175.559 101.052 177.73 98.4914 178.338 95.7732C179.32 91.3793 180.849 89.1264 181.471 88.352C181.784 87.8192 182.182 87.3409 182.648 86.9358C186.242 83.7632 192.432 84.7842 195.075 85.2201C198.046 85.7103 200.606 86.133 202.345 88.0993C202.594 88.3982 202.8 88.7315 202.955 89.0889C203.054 89.3024 203.165 89.51 203.287 89.7108C203.295 89.7207 203.302 89.7315 203.308 89.7429C206.661 96.3966 203.472 103.217 202.373 105.214C202.254 110.676 203.229 114.415 203.942 117.147C204.775 120.338 205.325 122.447 203.673 124.804C201.428 128.008 197.081 128.955 193.157 128.955M178.962 108.404C178.99 108.404 179.018 108.411 179.043 108.424C179.068 108.437 179.09 108.455 179.107 108.478C179.124 108.501 179.135 108.528 179.14 108.556C179.144 108.584 179.142 108.613 179.134 108.64C178.597 110.331 177.962 111.99 177.232 113.607C176.179 116.027 175.542 117.488 176.252 119.738C178.105 125.615 186.295 127.686 187.918 128.041C191.83 128.898 200.096 129.28 203.379 124.596C204.934 122.377 204.401 120.332 203.593 117.239C202.873 114.479 201.887 110.7 202.013 105.161C202.014 105.132 202.022 105.103 202.036 105.077C203.091 103.173 206.276 96.4576 202.996 89.9246C202.86 89.7061 202.739 89.4796 202.631 89.2463C202.49 88.9188 202.303 88.6132 202.076 88.3388C200.422 86.4685 198.04 86.0751 195.023 85.5775C192.425 85.1491 186.351 84.1474 182.887 87.2068C182.447 87.5893 182.071 88.0415 181.776 88.5455C181.771 88.5534 181.766 88.5609 181.76 88.568C181.16 89.312 179.66 91.5114 178.69 95.8507C178.059 98.6746 175.814 101.33 172.83 102.781C170.558 103.886 168.257 104.088 166.673 103.323C164.714 102.377 163.767 101.668 163.309 101.204L163.519 103.274C163.762 103.71 166.597 108.633 171.229 109.875C173.7 110.537 176.269 110.051 178.867 108.429C178.895 108.411 178.928 108.402 178.962 108.402" fill="black"/>
<path d="M182.988 102.514C182.988 102.514 176.905 99.9437 174.498 95.6544C174.256 95.2331 173.939 94.8607 173.562 94.5563L169.474 91.0331C169.417 90.9836 169.345 90.9544 169.269 90.9499C169.194 90.9455 169.119 90.9661 169.056 91.0086C168.993 91.0511 168.946 91.1131 168.922 91.1851C168.897 91.2571 168.897 91.3351 168.921 91.4072C169.269 92.4949 169.881 93.4786 170.701 94.2699C170.701 94.2699 169.706 96.3337 171.38 97.9184C171.38 97.9184 172.636 98.9212 173.385 98.9394C173.385 98.9394 175.578 106.174 181.499 108.328C182.544 106.575 183.06 104.555 182.986 102.513" fill="white"/>
<path d="M181.5 108.51C181.479 108.51 181.458 108.507 181.439 108.5C175.918 106.491 173.572 100.062 173.252 99.1108C172.453 99.0001 171.32 98.1016 171.27 98.0616C170.779 97.5888 170.443 96.9784 170.303 96.3104C170.164 95.6423 170.228 94.9475 170.488 94.3167C169.692 93.5179 169.097 92.5408 168.751 91.4657C168.714 91.356 168.714 91.2371 168.751 91.1274C168.788 91.0177 168.86 90.9232 168.955 90.8585C169.051 90.7938 169.165 90.7624 169.28 90.7692C169.395 90.7761 169.505 90.8208 169.592 90.8963L173.68 94.4195C174.073 94.7375 174.404 95.1263 174.656 95.5662C177.005 99.7512 182.998 102.322 183.058 102.349C183.089 102.362 183.116 102.384 183.136 102.412C183.155 102.44 183.166 102.473 183.168 102.507C183.251 104.588 182.723 106.649 181.652 108.433C181.635 108.458 181.613 108.478 181.586 108.493C181.56 108.507 181.53 108.514 181.501 108.514M169.253 91.1327C169.22 91.1333 169.187 91.1437 169.159 91.1627C169.128 91.1823 169.105 91.212 169.093 91.2468C169.081 91.2815 169.082 91.3192 169.094 91.3536C169.433 92.4122 170.028 93.3699 170.826 94.1411C170.854 94.1674 170.874 94.2022 170.881 94.2403C170.888 94.2784 170.883 94.3178 170.866 94.3528C170.828 94.4324 169.951 96.3191 171.506 97.7906C171.831 98.0491 172.827 98.7488 173.389 98.7624C173.427 98.7632 173.464 98.7761 173.494 98.7992C173.525 98.8223 173.547 98.8544 173.558 98.8909C173.58 98.9623 175.76 105.952 181.423 108.111C182.372 106.448 182.852 104.556 182.811 102.639C181.989 102.271 176.575 99.7302 174.339 95.749C174.11 95.3455 173.808 94.9886 173.449 94.6965L169.36 91.1705C169.33 91.1436 169.292 91.1285 169.253 91.1284" fill="black"/>
<path d="M164.355 97.8435L176.733 112.288L169.84 112.493L156.556 97.9499L164.355 97.8435Z" fill="#737F8B"/>
<path d="M165.273 107.507C165.273 107.507 162.431 106.056 161.472 104.93C160.906 104.265 160.999 102.632 161.171 101.405C161.238 100.928 161.785 100.888 162.083 101.266L164.311 104.041C164.877 105.113 165.205 106.296 165.273 107.507" fill="white"/>
<path d="M165.273 107.688C165.244 107.688 165.216 107.681 165.191 107.668C165.074 107.608 162.306 106.188 161.335 105.048C160.847 104.476 160.731 103.241 160.992 101.379C161.003 101.257 161.051 101.141 161.129 101.047C161.208 100.953 161.312 100.885 161.43 100.852C161.577 100.818 161.731 100.829 161.872 100.883C162.013 100.937 162.136 101.03 162.224 101.153L164.451 103.926C164.458 103.934 164.463 103.942 164.468 103.951C165.051 105.048 165.387 106.26 165.453 107.502C165.454 107.526 165.45 107.55 165.441 107.572C165.432 107.595 165.419 107.615 165.402 107.633C165.385 107.65 165.365 107.664 165.343 107.673C165.321 107.682 165.297 107.687 165.273 107.687M161.598 101.19C161.573 101.19 161.549 101.193 161.525 101.199C161.475 101.214 161.432 101.244 161.401 101.285C161.37 101.326 161.352 101.375 161.35 101.427C161.112 103.132 161.204 104.333 161.609 104.809C162.358 105.688 164.33 106.794 165.069 107.192C164.967 106.125 164.658 105.088 164.16 104.139L161.942 101.377C161.902 101.322 161.851 101.276 161.791 101.244C161.732 101.212 161.666 101.193 161.598 101.19Z" fill="black"/>
<path d="M189.224 110.603C186.818 110.581 184.436 110.127 182.189 109.261C182.166 109.253 182.145 109.241 182.127 109.225C182.109 109.208 182.094 109.189 182.083 109.167C182.073 109.145 182.067 109.121 182.066 109.097C182.064 109.072 182.068 109.048 182.077 109.025C182.085 109.002 182.098 108.981 182.115 108.964C182.131 108.946 182.151 108.932 182.174 108.922C182.196 108.912 182.22 108.907 182.244 108.907C182.268 108.907 182.292 108.911 182.315 108.921C192.13 112.578 198.027 107.482 198.086 107.43C198.121 107.399 198.168 107.384 198.215 107.387C198.262 107.39 198.306 107.412 198.338 107.447C198.369 107.483 198.385 107.53 198.383 107.577C198.381 107.624 198.36 107.669 198.325 107.701C198.281 107.74 194.978 110.603 189.226 110.603" fill="black"/>
<path d="M185.685 102.769C185.208 102.768 184.731 102.744 184.256 102.695C184.209 102.689 184.166 102.666 184.136 102.629C184.106 102.592 184.092 102.544 184.096 102.497C184.101 102.449 184.124 102.405 184.161 102.375C184.197 102.344 184.244 102.33 184.292 102.334C188.874 102.803 192.443 101.071 194.901 97.1909C196.043 95.3403 196.836 93.2943 197.241 91.1552C197.252 91.1112 197.278 91.0729 197.316 91.0478C197.354 91.0228 197.399 91.0127 197.444 91.0196C197.488 91.0266 197.529 91.05 197.557 91.0853C197.585 91.1207 197.599 91.1653 197.596 91.2105C197.184 93.3952 196.375 95.4851 195.21 97.3758C193.611 99.903 190.693 102.769 185.683 102.769" fill="black"/>
<path d="M181.79 99.1211C181.747 99.1209 181.705 99.1051 181.673 99.0766C181.64 99.0481 181.619 99.0088 181.613 98.9659C180.683 92.5824 183.619 88.9518 183.648 88.9157C183.68 88.8805 183.723 88.8588 183.77 88.8553C183.817 88.8517 183.863 88.8665 183.899 88.8966C183.935 88.9267 183.958 88.9697 183.963 89.0165C183.968 89.0633 183.955 89.1103 183.926 89.1474C183.897 89.1831 181.064 92.6988 181.971 98.9134C181.978 98.9609 181.966 99.0093 181.937 99.0479C181.909 99.0864 181.866 99.112 181.819 99.119C181.81 99.1203 181.801 99.1209 181.792 99.1208" fill="black"/>
<path d="M183.113 81.7394C183.054 81.7313 182.996 81.7108 182.945 81.6793C182.893 81.6477 182.849 81.6059 182.814 81.5563C182.78 81.5067 182.756 81.4505 182.744 81.3912C182.732 81.3318 182.732 81.2706 182.745 81.2114C183.089 79.6603 182.958 77.0032 183.008 77.0781C183.558 77.8896 184.705 76.8714 186.338 76.8068C186.667 76.7636 187.001 76.8429 187.276 77.0297C187.551 77.2164 187.748 77.4978 187.831 77.8207C187.842 77.8551 187.862 77.8857 187.889 77.9089C187.917 77.9322 187.95 77.9472 187.985 77.9522C188.021 77.9571 188.057 77.9519 188.09 77.937C188.122 77.9221 188.15 77.8983 188.17 77.8682C188.408 77.4976 188.813 77.1838 189.417 77.7907C190.089 78.4654 189.527 80.0301 188.92 80.5431C189.068 80.712 191.388 83.2249 193.169 85.1127C193.253 85.2011 193.316 85.3061 193.357 85.421C193.397 85.5358 193.412 85.6579 193.402 85.7792C193.392 85.9006 193.357 86.0184 193.298 86.125C193.24 86.2316 193.159 86.3246 193.063 86.3979L191.48 87.6045C190.997 87.9725 190.413 88.1825 189.808 88.2062C189.202 88.2298 188.604 88.0659 188.094 87.7366L187.85 87.5788C187.79 87.5404 187.74 87.4893 187.703 87.4292C187.665 87.3691 187.641 87.3014 187.633 87.231C187.624 87.1605 187.631 87.0891 187.653 87.0216C187.675 86.9542 187.712 86.8925 187.76 86.8409L188.24 86.3304C188.406 86.111 188.501 85.8462 188.513 85.5711C188.525 85.296 188.454 85.0237 188.309 84.7903L187.33 83.1246C187.106 83.4116 186.847 83.6697 186.56 83.8932C186.317 84.0698 186.02 84.1536 185.721 84.1294C185.422 84.1051 185.142 83.9746 184.931 83.7611C184.35 83.2319 183.913 82.5634 183.659 81.8183L183.113 81.7394Z" fill="white"/>
<path d="M189.691 88.3867C189.09 88.387 188.501 88.2135 187.996 87.8869L187.752 87.7291C187.67 87.6763 187.601 87.6061 187.549 87.5234C187.497 87.4407 187.464 87.3476 187.453 87.2507C187.441 87.1538 187.45 87.0555 187.481 86.9628C187.511 86.87 187.562 86.7851 187.628 86.7141L188.108 86.2036C188.245 86.0103 188.322 85.7804 188.329 85.5429C188.336 85.3055 188.273 85.0713 188.147 84.8703L187.303 83.4334C187.113 83.6595 186.899 83.8631 186.663 84.0402C186.386 84.2403 186.047 84.3351 185.707 84.3077C185.367 84.2803 185.048 84.1325 184.806 83.8907C184.233 83.3654 183.793 82.7106 183.522 81.9804L183.089 81.919C183.003 81.9071 182.921 81.8776 182.848 81.8323C182.774 81.787 182.711 81.727 182.662 81.6559C182.614 81.5861 182.581 81.5071 182.564 81.4238C182.548 81.3405 182.549 81.2547 182.567 81.1718C182.761 79.9803 182.843 78.7731 182.812 77.5661C182.812 76.9592 182.812 76.9478 182.951 76.905C182.988 76.8938 183.028 76.8947 183.065 76.9075C183.101 76.9203 183.133 76.9444 183.155 76.9764C183.398 77.3334 183.803 77.2281 184.557 76.9932C185.129 76.7918 185.725 76.6683 186.33 76.6258C186.699 76.5813 187.071 76.6724 187.378 76.8824C187.685 77.0925 187.906 77.4071 188 77.7682C188.074 77.6392 188.174 77.5279 188.295 77.4421C188.415 77.3563 188.553 77.2981 188.698 77.2716C188.859 77.2687 189.019 77.3023 189.165 77.37C189.311 77.4377 189.44 77.5377 189.542 77.6625C189.674 77.8084 189.774 77.9806 189.835 78.1679C189.896 78.3551 189.917 78.5532 189.897 78.7492C189.853 79.4131 189.597 80.045 189.168 80.5517C189.682 81.1136 191.707 83.3027 193.296 84.9888C193.397 85.0956 193.474 85.2225 193.523 85.3612C193.571 85.4999 193.59 85.6473 193.578 85.7938C193.566 85.9403 193.523 86.0826 193.453 86.2115C193.382 86.3404 193.286 86.4529 193.169 86.5417L191.586 87.7484C191.04 88.1635 190.374 88.3878 189.689 88.387M187.327 82.9425H187.341C187.37 82.9447 187.399 82.9539 187.423 82.9694C187.448 82.9849 187.469 83.0062 187.484 83.0314L188.462 84.6971C188.628 84.9625 188.708 85.2725 188.693 85.5853C188.677 85.8981 188.567 86.1987 188.376 86.4464L187.889 86.9648C187.859 86.997 187.836 87.0356 187.823 87.0778C187.809 87.1199 187.804 87.1646 187.81 87.2086C187.815 87.2527 187.83 87.2949 187.854 87.3325C187.877 87.3701 187.908 87.402 187.946 87.426L188.19 87.5838C188.669 87.8917 189.23 88.0449 189.799 88.0227C190.367 88.0005 190.915 87.804 191.369 87.4595L192.952 86.2529C193.028 86.1947 193.091 86.1211 193.137 86.0368C193.184 85.9524 193.211 85.8593 193.219 85.7635C193.228 85.6678 193.215 85.5715 193.184 85.4809C193.152 85.3904 193.101 85.3077 193.035 85.2383C191.253 83.3484 188.921 80.8234 188.781 80.6631C188.765 80.6449 188.753 80.6238 188.746 80.6009C188.738 80.578 188.735 80.5538 188.737 80.5297C188.739 80.5057 188.745 80.4822 188.756 80.4607C188.767 80.4393 188.782 80.4202 188.801 80.4046C189.239 79.9552 189.501 79.3616 189.538 78.7335C189.553 78.5879 189.539 78.4407 189.496 78.3008C189.454 78.1608 189.383 78.031 189.289 77.9192C189.223 77.8346 189.14 77.7653 189.045 77.7161C188.95 77.6668 188.845 77.6386 188.739 77.6336C188.649 77.6549 188.564 77.696 188.492 77.7538C188.42 77.8116 188.361 77.8848 188.32 77.9681C188.282 78.0273 188.228 78.0743 188.164 78.1036C188.1 78.1329 188.029 78.1432 187.959 78.1335C187.889 78.1238 187.824 78.0943 187.771 78.0486C187.717 78.0029 187.677 77.9428 187.657 77.8753C187.585 77.5912 187.412 77.3435 187.17 77.18C186.927 77.0165 186.634 76.9487 186.345 76.9896C185.772 77.0306 185.206 77.1489 184.665 77.3413C184.085 77.5219 183.566 77.6832 183.174 77.4758V77.5665C183.206 78.8006 183.121 80.0348 182.921 81.2528C182.913 81.2869 182.913 81.3222 182.919 81.3564C182.926 81.3907 182.94 81.4231 182.96 81.4517C182.98 81.4813 183.007 81.5064 183.037 81.5254C183.068 81.5444 183.102 81.5568 183.138 81.562L183.683 81.6391C183.717 81.6439 183.749 81.6584 183.775 81.6809C183.802 81.7033 183.821 81.7328 183.831 81.7658C184.074 82.4815 184.495 83.123 185.054 83.6301C185.235 83.8153 185.476 83.9288 185.733 83.9499C185.991 83.9709 186.247 83.8981 186.455 83.7447C186.73 83.5315 186.977 83.2844 187.19 83.0092C187.207 82.9887 187.228 82.9721 187.252 82.9608C187.276 82.9494 187.302 82.9436 187.329 82.9436" fill="black"/>
<path d="M187.329 83.3049C187.296 83.3046 187.264 83.2953 187.236 83.278C187.208 83.2607 187.185 83.236 187.17 83.2065C187.155 83.1771 187.148 83.1441 187.15 83.1111C187.152 83.0781 187.164 83.0463 187.182 83.0193L187.495 82.5812C187.523 82.5435 187.565 82.5184 187.612 82.5113C187.658 82.5041 187.706 82.5155 187.744 82.5431C187.782 82.5706 187.808 82.612 187.817 82.6586C187.825 82.7051 187.815 82.7531 187.789 82.7922L187.476 83.2303C187.459 83.2537 187.437 83.2728 187.412 83.2859C187.386 83.2991 187.358 83.3059 187.329 83.3059" fill="black"/>
<path d="M152.89 147.77C152.929 147.934 151.014 156.733 151.014 156.733L155.415 155.993L156.741 148.554L152.89 147.77Z" fill="white"/>
<path d="M151.016 156.913C150.989 156.913 150.962 156.908 150.938 156.896C150.913 156.884 150.892 156.867 150.874 156.846C150.857 156.825 150.845 156.8 150.839 156.774C150.833 156.747 150.833 156.72 150.838 156.693C151.579 153.289 152.684 148.128 152.71 147.779C152.708 147.751 152.713 147.723 152.724 147.698C152.734 147.672 152.751 147.649 152.772 147.631C152.792 147.613 152.817 147.6 152.844 147.593C152.871 147.586 152.899 147.585 152.926 147.59L156.777 148.376C156.823 148.385 156.864 148.412 156.891 148.451C156.917 148.491 156.927 148.539 156.919 148.585L155.593 156.025C155.587 156.062 155.569 156.096 155.543 156.122C155.516 156.149 155.482 156.166 155.446 156.173L151.045 156.913C151.035 156.914 151.025 156.915 151.015 156.915M153.038 147.985C152.945 148.543 152.585 150.364 151.248 156.511L155.26 155.836L156.532 148.696L153.038 147.985Z" fill="black"/>
<path d="M153.353 153.847C153.035 153.567 152.632 153.401 152.209 153.377C151.846 153.37 151.488 153.472 151.183 153.67C150.877 153.869 150.637 154.154 150.494 154.49C149.731 156.193 147.719 160.939 147.15 164.818C146.949 166.189 147.979 167.304 149.583 166.405C152.214 164.933 155.861 161.554 157.771 156.563C157.88 156.282 157.917 155.978 157.879 155.678C157.84 155.379 157.728 155.094 157.552 154.849C157.212 154.375 156.825 153.936 156.396 153.54C156.181 153.348 155.905 153.241 155.617 153.236C155.33 153.231 155.05 153.33 154.829 153.515L154.416 153.856C154.266 153.98 154.077 154.047 153.883 154.046C153.689 154.045 153.501 153.975 153.353 153.849" fill="white"/>
<path d="M148.493 166.912C148.19 166.916 147.893 166.825 147.643 166.653C147.37 166.436 147.162 166.147 147.043 165.819C146.925 165.49 146.9 165.134 146.971 164.792C147.538 160.928 149.508 156.248 150.329 154.416C150.488 154.048 150.753 153.736 151.089 153.519C151.425 153.302 151.817 153.189 152.217 153.196C152.679 153.222 153.12 153.403 153.469 153.709C153.585 153.807 153.732 153.862 153.884 153.863C154.035 153.864 154.183 153.812 154.3 153.715L154.714 153.374C154.968 153.16 155.289 153.046 155.621 153.051C155.952 153.057 156.27 153.182 156.516 153.404C156.955 153.808 157.351 154.256 157.697 154.742C157.892 155.01 158.017 155.324 158.059 155.654C158.101 155.984 158.06 156.319 157.939 156.629C156.034 161.609 152.419 165.027 149.671 166.564C149.314 166.779 148.909 166.898 148.493 166.912M152.139 153.557C151.822 153.566 151.515 153.665 151.252 153.844C150.99 154.022 150.784 154.273 150.658 154.565C149.844 156.384 147.888 161.027 147.328 164.846C147.267 165.122 147.283 165.409 147.375 165.676C147.467 165.942 147.63 166.178 147.848 166.357C148.267 166.647 148.852 166.61 149.495 166.25C152.188 164.743 155.731 161.39 157.602 156.501C157.701 156.248 157.735 155.974 157.701 155.704C157.667 155.435 157.565 155.178 157.406 154.958C157.074 154.493 156.695 154.063 156.276 153.676C156.093 153.513 155.858 153.42 155.613 153.417C155.368 153.413 155.131 153.498 154.943 153.656L154.53 153.998C154.347 154.148 154.118 154.23 153.882 154.228C153.646 154.226 153.417 154.142 153.237 153.989C152.95 153.733 152.585 153.582 152.202 153.56C152.181 153.56 152.16 153.56 152.14 153.56" fill="black"/>
<path d="M152.445 162.586C152.41 162.586 152.376 162.576 152.347 162.557C152.318 162.537 152.295 162.51 152.28 162.478C152.266 162.446 152.262 162.41 152.267 162.376C152.273 162.341 152.288 162.309 152.312 162.283C153.79 160.646 154.964 158.845 156.364 156.066C156.374 156.044 156.388 156.024 156.406 156.007C156.424 155.991 156.445 155.978 156.468 155.97C156.491 155.962 156.515 155.959 156.54 155.96C156.564 155.962 156.588 155.969 156.609 155.98C156.631 155.991 156.65 156.006 156.666 156.025C156.682 156.043 156.693 156.065 156.701 156.088C156.708 156.112 156.71 156.136 156.707 156.16C156.705 156.185 156.698 156.208 156.686 156.23C155.27 159.04 154.08 160.864 152.579 162.527C152.562 162.545 152.541 162.56 152.518 162.571C152.495 162.581 152.471 162.586 152.445 162.586Z" fill="black"/>
<path d="M151.519 160.746C151.496 160.746 151.473 160.742 151.452 160.733L149.539 159.974C149.516 159.966 149.496 159.953 149.478 159.936C149.46 159.92 149.445 159.9 149.435 159.878C149.425 159.856 149.42 159.832 149.419 159.807C149.419 159.783 149.423 159.759 149.432 159.736C149.441 159.714 149.454 159.693 149.471 159.676C149.488 159.658 149.509 159.645 149.531 159.635C149.554 159.626 149.578 159.621 149.602 159.622C149.626 159.622 149.65 159.627 149.672 159.637L151.585 160.396C151.624 160.412 151.657 160.441 151.677 160.478C151.697 160.515 151.704 160.558 151.696 160.599C151.688 160.64 151.666 160.678 151.634 160.705C151.601 160.731 151.561 160.746 151.519 160.746Z" fill="black"/>
<path d="M151.698 158.844C151.678 158.844 151.658 158.841 151.64 158.834L149.917 158.242C149.872 158.226 149.835 158.193 149.814 158.15C149.793 158.107 149.789 158.057 149.805 158.012C149.82 157.966 149.853 157.929 149.896 157.907C149.939 157.886 149.989 157.883 150.034 157.899L151.756 158.491C151.797 158.505 151.831 158.533 151.853 158.569C151.875 158.606 151.884 158.65 151.877 158.692C151.869 158.735 151.848 158.773 151.815 158.801C151.782 158.829 151.741 158.844 151.698 158.844Z" fill="black"/>
<path d="M171.828 148.569C171.933 148.701 173.878 157.494 173.878 157.494L177.561 154.965L175.651 147.654L171.828 148.569Z" fill="white"/>
<path d="M173.878 157.675C173.836 157.676 173.796 157.662 173.764 157.636C173.731 157.61 173.709 157.573 173.7 157.533C172.948 154.132 171.79 148.982 171.668 148.654C171.655 148.63 171.647 148.603 171.646 148.575C171.645 148.547 171.651 148.52 171.662 148.494C171.674 148.469 171.691 148.447 171.712 148.429C171.733 148.411 171.758 148.399 171.785 148.392L175.607 147.477C175.653 147.466 175.702 147.474 175.742 147.498C175.783 147.522 175.812 147.562 175.824 147.608L177.735 154.918C177.744 154.954 177.743 154.992 177.73 155.027C177.717 155.062 177.694 155.092 177.664 155.114L173.98 157.643C173.95 157.664 173.914 157.675 173.878 157.675M172.052 148.701C172.202 149.246 172.637 151.051 173.996 157.193L177.354 154.887L175.521 147.871L172.052 148.701Z" fill="black"/>
<path d="M174.79 153.888C174.384 153.768 173.949 153.788 173.555 153.944C173.223 154.092 172.941 154.335 172.747 154.644C172.552 154.953 172.454 155.314 172.465 155.679C172.485 157.547 172.646 162.702 173.753 166.46C174.144 167.789 175.545 168.366 176.625 166.873C178.395 164.427 180.291 159.821 179.936 154.485C179.917 154.184 179.823 153.892 179.663 153.636C179.503 153.381 179.282 153.169 179.019 153.022C178.512 152.734 177.977 152.5 177.422 152.322C177.147 152.239 176.851 152.257 176.588 152.375C176.325 152.492 176.113 152.7 175.989 152.961L175.757 153.445C175.673 153.621 175.53 153.761 175.353 153.842C175.176 153.923 174.977 153.939 174.79 153.887" fill="white"/>
<path d="M175.212 167.94C175.131 167.94 175.049 167.933 174.968 167.919C174.63 167.837 174.32 167.663 174.075 167.415C173.829 167.166 173.658 166.854 173.58 166.513C172.478 162.767 172.306 157.69 172.284 155.681C172.275 155.28 172.384 154.885 172.598 154.546C172.812 154.207 173.121 153.939 173.486 153.777C173.917 153.606 174.392 153.584 174.837 153.714C174.984 153.754 175.14 153.742 175.278 153.678C175.416 153.615 175.528 153.506 175.594 153.368L175.827 152.884C175.968 152.583 176.212 152.343 176.515 152.208C176.817 152.074 177.158 152.053 177.475 152.15C178.042 152.331 178.589 152.57 179.107 152.864C179.396 153.026 179.64 153.258 179.816 153.54C179.993 153.821 180.096 154.143 180.116 154.475C180.471 159.798 178.621 164.425 176.771 166.981C176.606 167.254 176.379 167.483 176.108 167.65C175.836 167.817 175.529 167.916 175.212 167.939M174.235 153.991C174.025 153.99 173.818 154.031 173.624 154.111C173.325 154.245 173.073 154.466 172.898 154.744C172.724 155.023 172.636 155.347 172.646 155.676C172.667 157.669 172.835 162.708 173.925 166.409C173.985 166.685 174.119 166.938 174.314 167.141C174.508 167.345 174.755 167.49 175.027 167.56C175.528 167.647 176.043 167.365 176.476 166.767C178.289 164.263 180.102 159.725 179.753 154.498C179.737 154.227 179.653 153.964 179.509 153.734C179.365 153.504 179.166 153.314 178.929 153.181C178.433 152.899 177.909 152.669 177.365 152.495C177.131 152.424 176.879 152.44 176.656 152.54C176.432 152.639 176.252 152.817 176.148 153.039L175.916 153.524C175.813 153.737 175.639 153.908 175.424 154.006C175.209 154.105 174.967 154.124 174.739 154.062C174.574 154.015 174.403 153.991 174.231 153.99" fill="black"/>
<path d="M174.802 166.559C174.761 166.559 174.72 166.545 174.688 166.518C174.656 166.492 174.634 166.455 174.625 166.414C174.617 166.373 174.623 166.331 174.642 166.294C174.662 166.257 174.693 166.228 174.731 166.211C174.774 166.192 178.108 164.609 178.451 154.631C178.453 154.584 178.472 154.539 178.506 154.507C178.539 154.474 178.584 154.456 178.631 154.456H178.637C178.685 154.457 178.731 154.478 178.763 154.513C178.796 154.548 178.813 154.595 178.812 154.643C178.456 164.914 175.018 166.483 174.872 166.545C174.849 166.555 174.825 166.559 174.801 166.559" fill="black"/>
<path d="M173.766 161.073C173.72 161.073 173.676 161.055 173.643 161.024C173.61 160.993 173.589 160.95 173.586 160.904C173.583 160.858 173.597 160.813 173.626 160.778C173.655 160.742 173.696 160.718 173.741 160.712L175.643 160.442C175.69 160.436 175.738 160.448 175.776 160.477C175.814 160.506 175.839 160.549 175.846 160.597C175.852 160.644 175.84 160.692 175.811 160.73C175.783 160.769 175.741 160.794 175.693 160.801L173.791 161.071C173.783 161.072 173.774 161.073 173.766 161.073Z" fill="black"/>
<path d="M173.565 159.32C173.52 159.319 173.477 159.302 173.444 159.27C173.411 159.239 173.39 159.197 173.387 159.151C173.384 159.106 173.398 159.061 173.426 159.025C173.454 158.99 173.495 158.966 173.54 158.959L175.845 158.622C175.869 158.618 175.893 158.618 175.917 158.624C175.94 158.629 175.962 158.639 175.982 158.654C176.001 158.668 176.018 158.686 176.031 158.707C176.043 158.727 176.051 158.75 176.055 158.774C176.058 158.798 176.057 158.823 176.051 158.846C176.045 158.87 176.034 158.892 176.019 158.911C176.004 158.93 175.986 158.946 175.965 158.958C175.944 158.97 175.921 158.978 175.897 158.981L173.592 159.318C173.583 159.319 173.574 159.32 173.565 159.32Z" fill="black"/>
<path d="M192.412 113.911C192.412 113.911 165.614 112.743 162.685 115.475C158.711 119.182 151.884 150.037 151.884 150.037L158.476 151.894C158.476 151.894 169.132 126.571 171.593 126.571C174.054 126.571 196.53 125.74 196.53 125.74L192.412 113.911Z" fill="#6B96E9"/>
<path d="M194.184 113.238C195.21 113.186 196.222 113.495 197.046 114.113C197.869 114.73 198.452 115.618 198.693 116.621C199.465 119.829 200.134 124.215 198.405 125.383C195.593 127.284 175.325 126.633 176.023 126.885C176.336 126.997 177.836 143.949 177.836 150.601L171.453 150.848C171.453 150.848 161.281 124.092 162.378 121.105C164.339 115.76 179.439 114.536 184.273 113.822C184.922 113.726 190.432 113.432 194.185 113.239" fill="#6B96E9"/>
<path d="M165.801 136.093C165.763 136.093 165.727 136.081 165.696 136.059C165.665 136.037 165.642 136.006 165.63 135.97C163.585 129.862 161.642 122.586 162.209 121.042C163.737 116.876 172.91 115.168 179.676 114.245C179.7 114.241 179.723 114.243 179.746 114.249C179.769 114.255 179.791 114.266 179.81 114.28C179.829 114.294 179.844 114.312 179.856 114.333C179.868 114.353 179.876 114.376 179.879 114.4C179.883 114.423 179.881 114.447 179.875 114.47C179.869 114.494 179.859 114.515 179.844 114.534C179.83 114.553 179.812 114.569 179.791 114.581C179.771 114.593 179.748 114.601 179.725 114.604C173.051 115.514 164.009 117.185 162.548 121.167C162.103 122.381 163.575 128.694 165.973 135.854C165.988 135.9 165.984 135.95 165.963 135.993C165.942 136.036 165.904 136.068 165.859 136.084C165.84 136.09 165.821 136.093 165.801 136.093Z" fill="white"/>
<path d="M87.0037 155.615H86.9977L85.598 155.569C85.5501 155.567 85.5049 155.547 85.4722 155.512C85.4395 155.476 85.4219 155.43 85.4235 155.382C85.4239 155.358 85.4291 155.334 85.4388 155.312C85.4485 155.291 85.4625 155.271 85.4799 155.255C85.4973 155.238 85.5178 155.226 85.5402 155.217C85.5625 155.209 85.5863 155.206 85.6101 155.207L87.0098 155.253C87.0563 155.256 87.1 155.277 87.1317 155.311C87.1634 155.345 87.1807 155.391 87.1799 155.437C87.1791 155.484 87.1603 155.529 87.1275 155.562C87.0947 155.595 87.0503 155.614 87.0037 155.615Z" fill="black"/>
<path d="M83.7426 155.507H83.7366L82.3369 155.461C82.3127 155.461 82.2888 155.456 82.2666 155.446C82.2444 155.436 82.2243 155.423 82.2076 155.405C82.1908 155.388 82.1777 155.367 82.1691 155.344C82.1604 155.322 82.1564 155.297 82.1572 155.273C82.158 155.249 82.1636 155.225 82.1738 155.203C82.1839 155.181 82.1984 155.161 82.2162 155.145C82.2341 155.129 82.2551 155.116 82.2779 155.108C82.3007 155.1 82.3248 155.097 82.3489 155.098L83.7486 155.145C83.7952 155.147 83.8389 155.168 83.8706 155.202C83.9023 155.237 83.9195 155.282 83.9187 155.329C83.918 155.376 83.8992 155.42 83.8664 155.454C83.8335 155.487 83.7892 155.506 83.7426 155.507Z" fill="black"/>
<path d="M84.7041 154.603H84.698C84.6502 154.602 84.6049 154.581 84.5722 154.546C84.5395 154.511 84.522 154.464 84.5235 154.416L84.5697 153.01C84.5698 152.986 84.5748 152.963 84.5843 152.941C84.5939 152.919 84.6078 152.899 84.6252 152.882C84.6427 152.866 84.6633 152.853 84.6857 152.845C84.7082 152.837 84.7321 152.834 84.756 152.835C84.8038 152.837 84.849 152.857 84.8818 152.892C84.9145 152.927 84.932 152.974 84.9305 153.022L84.8843 154.428C84.8827 154.475 84.863 154.519 84.8294 154.552C84.7958 154.585 84.7509 154.603 84.7041 154.603Z" fill="black"/>
<path d="M84.5964 157.879H84.5903C84.5425 157.877 84.4972 157.856 84.4645 157.821C84.4318 157.786 84.4143 157.74 84.4158 157.692L84.462 156.286C84.4624 156.262 84.4676 156.238 84.4772 156.216C84.4869 156.194 84.5008 156.175 84.5182 156.158C84.5356 156.142 84.556 156.129 84.5784 156.121C84.6007 156.113 84.6245 156.109 84.6483 156.11C84.6961 156.112 84.7413 156.133 84.7741 156.168C84.8068 156.203 84.8243 156.249 84.8228 156.297L84.7766 157.703C84.775 157.75 84.7553 157.795 84.7217 157.828C84.6881 157.86 84.6432 157.879 84.5964 157.879Z" fill="black"/>
<path d="M86.9092 149.438C86.7222 149.438 86.5371 149.401 86.3647 149.329C86.1938 149.257 86.039 149.152 85.9091 149.02C85.7793 148.888 85.6771 148.731 85.6086 148.558C85.538 148.382 85.5033 148.193 85.5066 148.003C85.5099 147.813 85.5511 147.625 85.6278 147.451C85.779 147.102 86.0603 146.826 86.4117 146.681C86.763 146.537 87.1565 146.537 87.5081 146.68C87.6789 146.752 87.8339 146.857 87.9637 146.989C88.0935 147.121 88.1957 147.278 88.2641 147.451C88.3347 147.628 88.3694 147.816 88.3661 148.006C88.3628 148.196 88.3216 148.384 88.2449 148.558C88.1313 148.819 87.9445 149.041 87.7072 149.198C87.47 149.354 87.1926 149.438 86.9088 149.439M86.9621 146.933C86.7489 146.935 86.5405 146.998 86.3623 147.116C86.1842 147.233 86.0438 147.4 85.9584 147.597C85.901 147.727 85.8702 147.867 85.8676 148.008C85.8651 148.15 85.8908 148.291 85.9435 148.423C85.9941 148.551 86.0697 148.668 86.1659 148.766C86.2622 148.864 86.377 148.942 86.5036 148.994C86.7677 149.102 87.063 149.101 87.3265 148.992C87.5899 148.884 87.8007 148.676 87.9136 148.413C87.971 148.283 88.0018 148.143 88.0044 148.002C88.0069 147.86 87.9812 147.719 87.9286 147.587C87.8779 147.459 87.8022 147.342 87.7059 147.244C87.6096 147.146 87.4947 147.068 87.3681 147.016C87.2394 146.961 87.1013 146.934 86.9618 146.934" fill="black"/>
<path d="M93.8239 160.944C93.9938 160.802 94.2017 160.715 94.4212 160.693C94.6407 160.67 94.8618 160.714 95.0565 160.818C95.2512 160.922 95.4106 161.083 95.5145 161.278C95.6184 161.473 95.662 161.696 95.6399 161.916C95.6178 162.136 95.5308 162.345 95.3902 162.516C95.2495 162.687 95.0615 162.812 94.85 162.875C94.6385 162.938 94.4131 162.936 94.2025 162.87C93.9918 162.804 93.8055 162.677 93.6671 162.505C93.4826 162.276 93.3956 161.984 93.4249 161.692C93.4543 161.399 93.5977 161.13 93.8239 160.944Z" fill="black"/>
</g>
</g>
<defs>
<clipPath id="clip0_1_723">
<rect width="246" height="190" fill="white"/>
</clipPath>
<clipPath id="clip1_1_723">
<rect width="150" height="150" fill="white" transform="translate(70 20)"/>
</clipPath>
</defs>
</svg>
