<svg id="settings" xmlns="http://www.w3.org/2000/svg" width="18" height="18" viewBox="0 0 18 18">
  <path id="Path_11645" data-name="Path 11645" d="M16.243,10.32V9.459l1.08-.945a1.125,1.125,0,0,0,.214-1.434L16.209,4.83a1.135,1.135,0,0,0-1.333-.506l-1.367.461a6.384,6.384,0,0,0-.737-.422l-.287-1.417a1.125,1.125,0,0,0-1.125-.906H8.728A1.125,1.125,0,0,0,7.6,2.945L7.316,4.363a6.457,6.457,0,0,0-.742.422L5.235,4.3a1.125,1.125,0,0,0-.36-.034A1.125,1.125,0,0,0,3.9,4.83L2.574,7.08A1.125,1.125,0,0,0,2.8,8.492l1.063.973v.861L2.8,11.27A1.125,1.125,0,0,0,2.574,12.7L3.9,14.955a1.135,1.135,0,0,0,1.333.506L6.6,15a6.385,6.385,0,0,0,.737.422l.287,1.418a1.125,1.125,0,0,0,1.125.906h2.655a1.125,1.125,0,0,0,1.125-.906l.287-1.418A6.458,6.458,0,0,0,13.56,15l1.361.461a1.135,1.135,0,0,0,1.333-.506l1.282-2.25a1.125,1.125,0,0,0-.231-1.412Zm-1.007,4.073-1.929-.653a4.984,4.984,0,0,1-1.524.883l-.4,2.019H8.728l-.4-2a5.265,5.265,0,0,1-1.519-.883l-1.935.63-1.328-2.25,1.53-1.35a5.006,5.006,0,0,1,0-1.761L3.547,7.642l1.328-2.25L6.8,6.045a4.984,4.984,0,0,1,1.524-.883l.4-2.019h2.655l.4,2a5.265,5.265,0,0,1,1.519.883l1.935-.63,1.328,2.25-1.53,1.35a5.006,5.006,0,0,1,0,1.761l1.53,1.389Z" transform="translate(-1.056 -0.892)" fill="#7c8da6"/>
  <path id="Path_11646" data-name="Path 11646" d="M13.375,16.75a3.375,3.375,0,1,1,3.375-3.375,3.341,3.341,0,0,1-3.375,3.375Zm0-5.625a2.2,2.2,0,1,0,1.606.644A2.2,2.2,0,0,0,13.375,11.125Z" transform="translate(-4.375 -4.375)" fill="#7c8da6"/>
  <rect id="_Transparent_Rectangle_" data-name="&lt;Transparent Rectangle&gt;" width="18" height="18" fill="none"/>
</svg>
