<svg xmlns="http://www.w3.org/2000/svg" width="71.773" height="26.439" viewBox="0 0 71.773 26.439">
  <g id="Group_2105" data-name="Group 2105" transform="translate(0)" style="mix-blend-mode: luminosity;isolation: isolate">
    <g id="Group_2063" data-name="Group 2063" transform="translate(0)">
      <path id="Path_3519" data-name="Path 3519" d="M8.361,0a6.466,6.466,0,0,1,0,9.145l-.863.863a2.872,2.872,0,0,0,4.061,4.061l-1.172,1.172A6.1,6.1,0,0,1,1.7,15.182,6.194,6.194,0,0,1,1.85,6.511Z" transform="translate(0)" fill="#737f8b"/>
      <path id="Path_3520" data-name="Path 3520" d="M52.107,71.787a6.466,6.466,0,0,1,0-9.145l.863-.863a2.872,2.872,0,0,0-4.061-4.061l1.172-1.172a6.1,6.1,0,0,1,8.692.058,6.194,6.194,0,0,1-.154,8.671Z" transform="translate(-40.504 -45.348)" fill="#737f8b"/>
      <path id="Path_3521" data-name="Path 3521" d="M147.665,51.749h2.573c.091,1.138,1.184,1.912,2.709,1.912s2.55-.592,2.55-1.48c0-.546-.683-.933-2.8-1.343-3.3-.751-4.349-1.5-4.349-3.392,0-2.117,1.844-3.529,4.6-3.529a4.95,4.95,0,0,1,4.759,2.96l-2.5.615a2.437,2.437,0,0,0-2.254-1.3c-1.116,0-1.867.455-1.867,1.116,0,.478.524.774,2.14,1.138,3.8.8,5.009,1.662,5.009,3.734,0,2.254-2.118,3.757-5.282,3.757-3.074,0-5.191-1.685-5.282-4.189" transform="translate(-122.29 -36.369)" fill="#737f8b"/>
      <rect id="Rectangle_2991" data-name="Rectangle 2991" width="2.732" height="8.807" transform="translate(37.122 10.443)" fill="#737f8b"/>
      <rect id="Rectangle_2992" data-name="Rectangle 2992" width="2.732" height="8.807" transform="translate(42.176 10.443)" fill="#737f8b"/>
      <path id="Path_3522" data-name="Path 3522" d="M273.521,44.408h2.732v.671a4.768,4.768,0,0,1,3.1-1.161c3.119,0,5.191,1.844,5.191,4.622V55.62h-2.732V48.858a2.79,2.79,0,0,0-5.555,0V55.62h-2.732Z" transform="translate(-226.519 -36.37)" fill="#737f8b"/>
      <path id="Path_3523" data-name="Path 3523" d="M345.857,49.927c0-3.6,2.459-6.011,6.17-6.011s6.17,2.414,6.17,6.011v.524l-.228.228h-9.335a3.326,3.326,0,0,0,3.393,2.983,3.451,3.451,0,0,0,3.119-1.912h2.778a6.026,6.026,0,0,1-5.9,4.189c-3.711,0-6.17-2.414-6.17-6.011m9.381-1.525a3.438,3.438,0,0,0-6.421,0Z" transform="translate(-286.425 -36.369)" fill="#737f8b"/>
      <path id="Path_3524" data-name="Path 3524" d="M216.759,43.917v2.1h2.6v-.467a1.63,1.63,0,0,0-1.63-1.63Z" transform="translate(-179.511 -36.37)" fill="#737f8b"/>
      <path id="Path_3525" data-name="Path 3525" d="M245.81,43.917v2.1h2.6v-.467a1.63,1.63,0,0,0-1.63-1.63Z" transform="translate(-203.57 -36.37)" fill="#737f8b"/>
    </g>
  </g>
</svg>
