<svg xmlns="http://www.w3.org/2000/svg" width="18" height="21.273" viewBox="0 0 18 21.273">
  <path id="icons8-upload" d="M5.636,3A1.636,1.636,0,0,0,4,4.636V18.545a1.636,1.636,0,0,0,1.636,1.636h6.545V9.884L10.306,11.76A.818.818,0,0,1,9.149,10.6l3.273-3.273a.818.818,0,0,1,1.157,0L16.851,10.6a.818.818,0,0,1-1.157,1.157L13.818,9.884v10.3h6.545A1.636,1.636,0,0,0,22,18.545V4.636A1.636,1.636,0,0,0,20.364,3Zm8.182,17.182H12.182v3.273a.818.818,0,1,0,1.636,0Z" transform="translate(-4 -3)" fill="#fff"/>
</svg>
