<svg id="user--avatar--filled--alt" xmlns="http://www.w3.org/2000/svg" width="32" height="32" viewBox="0 0 32 32">
  <path id="Path_11973" data-name="Path 11973" d="M16,8a5,5,0,1,0,5,5,5,5,0,0,0-5-5Z" fill="#7c8da6"/>
  <path id="Path_11974" data-name="Path 11974" d="M16,2A14,14,0,1,0,30,16,14,14,0,0,0,16,2Zm7.993,22.926A5,5,0,0,0,19,20H13a5,5,0,0,0-4.993,4.926,12,12,0,1,1,15.985,0Z" fill="#7c8da6"/>
  <rect id="_Transparent_Rectangle_" data-name="&lt;Transparent Rectangle&gt;" width="32" height="32" fill="none"/>
</svg>
