<svg width="32" height="33" viewBox="0 0 32 33" fill="none" xmlns="http://www.w3.org/2000/svg">
<g clip-path="url(#clip0_7_16)">
<path d="M17.973 0C26.808 0 31.273 7.356 31.273 16.193C31.273 20.4365 29.5873 24.5061 26.5867 27.5067C23.5861 30.5073 19.5165 32.193 15.273 32.193C6.436 32.193 0 27.063 0 18.226C0 9.389 9.135 0 17.973 0Z" fill="url(#paint0_linear_7_16)"/>
<g clip-path="url(#clip1_7_16)">
<path d="M19.5945 19.242C19.715 19.1635 19.854 19.1179 19.9977 19.1098C20.1413 19.1018 20.2845 19.1315 20.413 19.1962C20.5415 19.2608 20.6509 19.3579 20.7301 19.478C20.8093 19.5981 20.8557 19.7368 20.8645 19.8804V20.8608C20.8277 21.3785 20.6384 21.8737 20.3205 22.284C20.0027 22.6943 19.5704 23.0013 19.0783 23.1663L16.4646 23.972C15.9223 24.1164 15.3517 24.1164 14.8094 23.972L12.1947 23.1663C11.7017 23.0027 11.2687 22.6961 10.9506 22.2855C10.6325 21.8749 10.4438 21.379 10.4085 20.8608V19.8731C10.4182 19.7308 10.4647 19.5934 10.5435 19.4745C10.6223 19.3555 10.7306 19.2591 10.8579 19.1947C10.9852 19.1303 11.127 19.1 11.2695 19.107C11.412 19.1139 11.5502 19.1577 11.6707 19.2342L13.3586 20.2552C14.0515 20.6614 14.8428 20.8691 15.6459 20.8556C16.4489 20.8691 17.2402 20.6614 17.9331 20.2552L19.5945 19.242Z" fill="#F5F5F5"/>
<path d="M22.0237 11.5069L17.2293 8.51989C16.7461 8.25452 16.2038 8.11538 15.6526 8.11538C15.1014 8.11538 14.5591 8.25452 14.076 8.51989L9.25812 11.5069C8.90516 11.7152 8.61263 12.012 8.4094 12.368C8.20618 12.7239 8.0993 13.1267 8.0993 13.5366C8.0993 13.9464 8.20618 14.3492 8.4094 14.7052C8.61263 15.0611 8.90516 15.3579 9.25812 15.5663L10.5385 16.3569L14.0775 18.546C14.5607 18.8113 15.103 18.9505 15.6542 18.9505C16.2054 18.9505 16.7477 18.8113 17.2308 18.546L20.7444 16.3569L21.8407 15.6728V17.9991C21.8486 18.153 21.9152 18.298 22.0269 18.4041C22.1386 18.5102 22.2868 18.5694 22.4409 18.5694C22.595 18.5694 22.7432 18.5102 22.8549 18.4041C22.9666 18.298 23.0332 18.153 23.041 17.9991V14.2589C23.2084 13.7528 23.1989 13.2048 23.014 12.7048C22.8292 12.2048 22.48 11.7824 22.0237 11.5069Z" fill="#F5F5F5"/>
</g>
</g>
<defs>
<linearGradient id="paint0_linear_7_16" x1="9.94481" y1="4.70018" x2="21.9882" y2="30.9676" gradientUnits="userSpaceOnUse">
<stop stop-color="#2686FF"/>
<stop offset="1" stop-color="#6B96E9"/>
</linearGradient>
<clipPath id="clip0_7_16">
<rect width="31.273" height="32.193" fill="white"/>
</clipPath>
<clipPath id="clip1_7_16">
<rect width="19" height="19" fill="white" transform="translate(6.13651 6.5965)"/>
</clipPath>
</defs>
</svg>
