<svg xmlns="http://www.w3.org/2000/svg" width="36.55" height="36.55" viewBox="0 0 36.55 36.55">
  <g id="vuesax_bold_teacher" data-name="vuesax/bold/teacher" transform="translate(-172 -252)">
    <path id="Vector" d="M17.671.251a1.582,1.582,0,0,1,2.443,1.228V3.365A5.056,5.056,0,0,1,16.678,7.8l-5.028,1.55a6.186,6.186,0,0,1-3.184,0L3.436,7.8A5.033,5.033,0,0,1,0,3.365v-1.9A1.583,1.583,0,0,1,2.428.236L5.675,2.2a8.42,8.42,0,0,0,4.4,1.155,8.42,8.42,0,0,0,4.4-1.155Z" transform="translate(180.218 276.075)" fill="#f5f5f5"/>
    <path id="Vector-2" data-name="Vector" d="M26.786,6.525,17.563.779a6.3,6.3,0,0,0-6.066,0L2.229,6.525a4.534,4.534,0,0,0,0,7.809l2.463,1.521L11.5,20.066a6.3,6.3,0,0,0,6.066,0l6.759-4.211,2.109-1.316v4.475a1.156,1.156,0,0,0,2.309,0V11.819A4.525,4.525,0,0,0,26.786,6.525Z" transform="translate(175.776 254.921)" fill="#f5f5f5"/>
    <path id="Vector-3" data-name="Vector" d="M0,0H36.55V36.55H0Z" transform="translate(208.55 288.55) rotate(180)" fill="none" opacity="0"/>
  </g>
</svg>
