<svg width="32" height="33" viewBox="0 0 32 33" fill="none" xmlns="http://www.w3.org/2000/svg">
<g clip-path="url(#clip0_7_9)">
<path d="M17.973 0C26.808 0 31.273 7.356 31.273 16.193C31.273 20.4365 29.5873 24.5061 26.5867 27.5067C23.5861 30.5073 19.5165 32.193 15.273 32.193C6.436 32.193 0 27.063 0 18.226C0 9.389 9.135 0 17.973 0Z" fill="url(#paint0_linear_7_9)"/>
<g clip-path="url(#clip1_7_9)">
<path d="M18.9042 8.29688H12.3683C9.52947 8.29688 7.83688 9.98947 7.83688 12.8283V19.3569C7.83688 22.2035 9.52947 23.8961 12.3683 23.8961H18.8964C21.7352 23.8961 23.4278 22.2035 23.4278 19.3647V12.8283C23.4356 9.98947 21.743 8.29688 18.9042 8.29688ZM20.9009 14.5349C20.9009 14.69 20.8393 14.8388 20.7296 14.9484C20.6199 15.0581 20.4712 15.1197 20.3161 15.1197C20.161 15.1197 20.0122 15.0581 19.9025 14.9484C19.7929 14.8388 19.7312 14.69 19.7312 14.5349V12.8283L12.3683 20.1912H14.0749C14.2301 20.1912 14.3789 20.2529 14.4886 20.3626C14.5983 20.4723 14.66 20.6212 14.66 20.7763C14.66 20.9315 14.5983 21.0803 14.4886 21.19C14.3789 21.2998 14.2301 21.3614 14.0749 21.3614H10.9559C10.8781 21.3617 10.8011 21.3458 10.7298 21.3146C10.5862 21.2529 10.4718 21.1385 10.4101 20.9949C10.3851 20.9248 10.372 20.851 10.3711 20.7766V17.6539C10.3711 17.4988 10.4327 17.3501 10.5424 17.2404C10.652 17.1307 10.8008 17.0691 10.9559 17.0691C11.111 17.0691 11.2598 17.1307 11.3694 17.2404C11.4791 17.3501 11.5407 17.4988 11.5407 17.6539V19.3621L18.9042 12.0018H17.1939C17.0388 12.0018 16.8899 11.9401 16.7802 11.8304C16.6705 11.7207 16.6089 11.5718 16.6089 11.4167C16.6089 11.2615 16.6705 11.1127 16.7802 11.003C16.8899 10.8932 17.0388 10.8316 17.1939 10.8316H20.3129C20.3907 10.8321 20.4675 10.848 20.5391 10.8784C20.6826 10.9401 20.7971 11.0545 20.8588 11.1981C20.8837 11.2682 20.8969 11.342 20.8978 11.4164L20.9009 14.5349Z" fill="white"/>
</g>
</g>
<defs>
<linearGradient id="paint0_linear_7_9" x1="9.94481" y1="4.70018" x2="21.9882" y2="30.9676" gradientUnits="userSpaceOnUse">
<stop stop-color="#2686FF"/>
<stop offset="1" stop-color="#6B96E9"/>
</linearGradient>
<clipPath id="clip0_7_9">
<rect width="31.273" height="32.193" fill="white"/>
</clipPath>
<clipPath id="clip1_7_9">
<rect width="19" height="19" fill="white" transform="translate(6.1365 6.5965)"/>
</clipPath>
</defs>
</svg>
