<svg xmlns="http://www.w3.org/2000/svg" width="36.55" height="36.55" viewBox="0 0 36.55 36.55">
  <g id="vuesax_bold_maximize-3" data-name="vuesax/bold/maximize-3" transform="translate(-748 -316)">
    <g id="maximize-3" transform="translate(748 316)">
      <path id="Vector" d="M21.29,0H8.717C3.256,0,0,3.256,0,8.717V21.276c0,5.476,3.256,8.732,8.717,8.732H21.275c5.461,0,8.717-3.256,8.717-8.717V8.717C30.007,3.256,26.751,0,21.29,0Zm3.841,12a1.125,1.125,0,1,1-2.25,0V8.717L8.717,22.881H12a1.125,1.125,0,0,1,0,2.251H6a1.076,1.076,0,0,1-.435-.09,1.174,1.174,0,0,1-.615-.615,1.3,1.3,0,0,1-.075-.42V18a1.125,1.125,0,1,1,2.25,0v3.286L21.29,7.127H18a1.125,1.125,0,0,1,0-2.251h6a1.13,1.13,0,0,1,.435.09,1.174,1.174,0,0,1,.615.615,1.3,1.3,0,0,1,.075.42Z" transform="translate(3.271 3.271)" fill="#fff"/>
      <path id="Vector-2" data-name="Vector" d="M0,0H36.55V36.55H0Z" transform="translate(36.55 36.55) rotate(180)" fill="none" opacity="0"/>
    </g>
  </g>
</svg>
