<svg width="32" height="33" viewBox="0 0 32 33" fill="none" xmlns="http://www.w3.org/2000/svg">
<g clip-path="url(#clip0_7_2)">
<path d="M17.973 0C26.808 0 31.273 7.356 31.273 16.193C31.273 20.4365 29.5873 24.5061 26.5867 27.5067C23.5861 30.5073 19.5165 32.193 15.273 32.193C6.436 32.193 0 27.063 0 18.226C0 9.389 9.135 0 17.973 0Z" fill="url(#paint0_linear_7_2)"/>
<path d="M23.5531 10.4334V19.8487C23.5429 20.2322 23.3975 20.5998 23.1426 20.8866C22.8876 21.1733 22.5396 21.3608 22.1599 21.416L21.9146 21.4477C20.3342 21.7079 18.7903 22.1544 17.3151 22.7779C17.1949 22.8264 17.0647 22.8445 16.9359 22.8308C16.8071 22.817 16.6836 22.7718 16.5764 22.699C16.4692 22.6263 16.3816 22.5283 16.3212 22.4137C16.2608 22.2991 16.2295 22.1714 16.2302 22.0419V11.0297C16.2316 10.8847 16.2721 10.7428 16.3473 10.6189C16.4225 10.495 16.5296 10.3935 16.6575 10.3253C18.2584 9.48875 19.9957 8.94445 21.7877 8.71795H21.835C22.0605 8.7176 22.2839 8.76172 22.4923 8.84778C22.7007 8.93384 22.8902 9.06014 23.0497 9.21947C23.2093 9.3788 23.3359 9.56803 23.4223 9.77633C23.5086 9.98462 23.5531 10.2079 23.5531 10.4334Z" fill="white"/>
<path d="M14.6156 10.3253C13.0146 9.48875 11.2773 8.94445 9.48529 8.71794H9.42759C8.97262 8.71794 8.53629 8.89868 8.21458 9.22039C7.89287 9.5421 7.71213 9.97843 7.71213 10.4334V19.8487C7.72237 20.2322 7.86777 20.5998 8.12267 20.8866C8.37757 21.1733 8.72559 21.3608 9.10529 21.416L9.35065 21.4477C10.931 21.7079 12.4749 22.1544 13.9502 22.7779C14.0703 22.8263 14.2004 22.8443 14.3292 22.8305C14.4579 22.8167 14.5813 22.7714 14.6884 22.6987C14.7955 22.626 14.8831 22.5281 14.9435 22.4135C15.0039 22.299 15.0351 22.1713 15.0345 22.0419V11.0297C15.0357 10.8852 14.9972 10.7432 14.9234 10.619C14.8495 10.4948 14.743 10.3932 14.6156 10.3253ZM10.093 12.7238H11.8765C12.034 12.7238 12.185 12.7863 12.2963 12.8977C12.4076 13.009 12.4702 13.16 12.4702 13.3175C12.4702 13.4749 12.4076 13.6259 12.2963 13.7372C12.185 13.8486 12.034 13.9111 11.8765 13.9111H10.0951C9.93761 13.9111 9.78661 13.8486 9.67528 13.7372C9.56395 13.6259 9.50141 13.4749 9.50141 13.3175C9.50141 13.16 9.56395 13.009 9.67528 12.8977C9.78661 12.7863 9.93761 12.7238 10.0951 12.7238H10.093ZM12.4681 16.2862H10.0951C9.93761 16.2862 9.78661 16.2237 9.67528 16.1124C9.56395 16.001 9.50141 15.85 9.50141 15.6926C9.50141 15.5351 9.56395 15.3841 9.67528 15.2728C9.78661 15.1615 9.93761 15.0989 10.0951 15.0989H12.4702C12.6276 15.0989 12.7786 15.1615 12.89 15.2728C13.0013 15.3841 13.0638 15.5351 13.0638 15.6926C13.0638 15.85 13.0013 16.001 12.89 16.1124C12.7786 16.2237 12.6276 16.2862 12.4702 16.2862H12.4681Z" fill="white"/>
</g>
<defs>
<linearGradient id="paint0_linear_7_2" x1="9.94481" y1="4.70018" x2="21.9882" y2="30.9676" gradientUnits="userSpaceOnUse">
<stop stop-color="#2686FF"/>
<stop offset="1" stop-color="#6B96E9"/>
</linearGradient>
<clipPath id="clip0_7_2">
<rect width="31.273" height="32.193" fill="white"/>
</clipPath>
</defs>
</svg>
