<svg width="32" height="33" viewBox="0 0 32 33" fill="none" xmlns="http://www.w3.org/2000/svg">
<g clip-path="url(#clip0_7_16)">
<path d="M17.973 0C26.808 0 31.273 7.356 31.273 16.193C31.273 20.4365 29.5873 24.5061 26.5867 27.5067C23.5861 30.5073 19.5165 32.193 15.273 32.193C6.436 32.193 0 27.063 0 18.226C0 9.389 9.135 0 17.973 0Z" fill="url(#paint0_linear_7_16)"/>
<g clip-path="url(#clip1_7_16)">
<path d="M21.8548 19.3678C21.8548 19.3439 21.8704 19.32 21.8704 19.2883V11.7325C21.8805 11.1627 21.664 10.6122 21.2685 10.202C20.8729 9.79186 20.3306 9.55553 19.7609 9.54501H16.7427L17.8255 8.6145C17.9435 8.51036 18.0173 8.36514 18.0319 8.20847C18.0464 8.0518 18.0007 7.89546 17.904 7.77133C17.8566 7.71131 17.7975 7.66149 17.7303 7.62484C17.6632 7.5882 17.5893 7.56548 17.5131 7.55806C17.437 7.55063 17.3601 7.55865 17.2871 7.58163C17.2142 7.60461 17.1466 7.64208 17.0884 7.69179L14.785 9.68017C14.719 9.73734 14.6662 9.80819 14.6303 9.88781C14.5944 9.96744 14.5762 10.0539 14.5771 10.1413C14.577 10.2285 14.5955 10.3147 14.6314 10.3942C14.6672 10.4737 14.7196 10.5447 14.785 10.6024L17.0884 12.5912C17.1902 12.6805 17.3216 12.7287 17.457 12.7264C17.5428 12.7263 17.6275 12.7069 17.7049 12.6698C17.7822 12.6326 17.8503 12.5786 17.904 12.5117C18.0028 12.3885 18.0499 12.2318 18.0356 12.0746C18.0212 11.9174 17.9465 11.7718 17.8271 11.6685L16.7427 10.738H19.7609C20.02 10.7427 20.2668 10.85 20.4468 11.0365C20.6268 11.223 20.7255 11.4733 20.721 11.7325V19.2883C20.721 19.32 20.7366 19.3439 20.7366 19.3678C20.2324 19.5065 19.788 19.8078 19.4727 20.225C19.1574 20.6422 18.9888 21.1519 18.9931 21.6749C18.9874 21.9829 19.0425 22.289 19.1552 22.5757C19.268 22.8624 19.4361 23.1241 19.6501 23.3457C19.8641 23.5674 20.1198 23.7446 20.4023 23.8673C20.6849 23.9901 20.989 24.0558 21.297 24.0609C21.605 24.0558 21.9091 23.9901 22.1916 23.8673C22.4742 23.7446 22.7298 23.5674 22.9438 23.3457C23.1578 23.1241 23.326 22.8624 23.4388 22.5757C23.5515 22.289 23.6066 21.9829 23.6009 21.6749C23.605 21.1516 23.436 20.6416 23.1202 20.2244C22.8044 19.8071 22.3595 19.506 21.8548 19.3678Z" fill="white"/>
<path d="M16.4885 21.5906L14.1846 19.6023C14.1269 19.5519 14.0595 19.5138 13.9865 19.4905C13.9136 19.4671 13.8366 19.4589 13.7604 19.4663C13.6842 19.4738 13.6102 19.4967 13.5432 19.5338C13.4762 19.5708 13.4174 19.6212 13.3705 19.6818C13.2718 19.805 13.2247 19.9617 13.239 20.1189C13.2534 20.2761 13.3281 20.4217 13.4475 20.525L14.5303 21.4555H11.5126C11.2535 21.4508 11.0068 21.3435 10.8267 21.157C10.6467 20.9705 10.5481 20.7202 10.5525 20.461V12.9047C10.5525 12.873 10.5369 12.8491 10.5369 12.8252C11.0411 12.6866 11.4853 12.3853 11.8006 11.9682C12.1159 11.5511 12.2846 11.0415 12.2804 10.5187C12.2862 10.2106 12.2311 9.9045 12.1183 9.61778C12.0056 9.33107 11.8374 9.06941 11.6234 8.84778C11.4094 8.62615 11.1538 8.4489 10.8712 8.32619C10.5886 8.20347 10.2846 8.13769 9.97653 8.13262C9.66849 8.13769 9.36447 8.20347 9.08188 8.32619C8.79929 8.4489 8.54368 8.62615 8.32968 8.84778C8.11568 9.06941 7.94749 9.33107 7.83474 9.61778C7.722 9.9045 7.6669 10.2106 7.67262 10.5187C7.66843 11.0414 7.83703 11.551 8.15223 11.9681C8.46743 12.3852 8.91156 12.6865 9.41563 12.8252C9.41563 12.8491 9.40003 12.873 9.40003 12.9047V20.461C9.395 20.7434 9.44566 21.0239 9.54909 21.2867C9.65253 21.5494 9.80672 21.7892 10.0029 21.9924C10.199 22.1955 10.4332 22.358 10.6922 22.4706C10.9512 22.5832 11.2298 22.6436 11.5121 22.6485H14.5303L13.4475 23.579C13.3298 23.6834 13.2563 23.8287 13.242 23.9854C13.2277 24.142 13.2737 24.2983 13.3705 24.4222C13.4236 24.4895 13.4913 24.5438 13.5685 24.581C13.6457 24.6182 13.7303 24.6373 13.816 24.6369C13.9508 24.6354 14.0809 24.5877 14.1846 24.5017L16.4885 22.5134C16.5545 22.4562 16.6074 22.3853 16.6433 22.3057C16.6792 22.2261 16.6973 22.1396 16.6964 22.0523C16.6966 21.965 16.6781 21.8786 16.6422 21.799C16.6064 21.7194 16.554 21.6484 16.4885 21.5906Z" fill="white"/>
</g>
</g>
<defs>
<linearGradient id="paint0_linear_7_16" x1="9.94481" y1="4.70018" x2="21.9882" y2="30.9676" gradientUnits="userSpaceOnUse">
<stop stop-color="#2686FF"/>
<stop offset="1" stop-color="#6B96E9"/>
</linearGradient>
<clipPath id="clip0_7_16">
<rect width="31.273" height="32.193" fill="white"/>
</clipPath>
<clipPath id="clip1_7_16">
<rect width="19" height="19" fill="white" transform="translate(6.1365 6.5965)"/>
</clipPath>
</defs>
</svg>
