<svg xmlns="http://www.w3.org/2000/svg" width="36.55" height="36.55" viewBox="0 0 36.55 36.55">
  <g id="vuesax_bold_book" data-name="vuesax/bold/book" transform="translate(-556 -188)">
    <path id="Vector" d="M14.087,3.3V21.412a3.131,3.131,0,0,1-2.68,3.015l-.472.061a39,39,0,0,0-8.848,2.559A1.519,1.519,0,0,1,0,25.631V4.447A1.554,1.554,0,0,1,.822,3.092,29.223,29.223,0,0,1,10.691,0h.091A3.3,3.3,0,0,1,14.087,3.3Z" transform="translate(575.417 192.081)" fill="#fff"/>
    <path id="Vector-2" data-name="Vector" d="M13.28,3.092A29.223,29.223,0,0,0,3.411,0H3.3A3.3,3.3,0,0,0,0,3.3V21.412a3.131,3.131,0,0,0,2.68,3.015l.472.061A39,39,0,0,1,12,27.047a1.519,1.519,0,0,0,2.086-1.416V4.447A1.522,1.522,0,0,0,13.28,3.092Zm-8.7,4.614H8.011a1.142,1.142,0,0,1,0,2.284H4.584a1.142,1.142,0,0,1,0-2.284Zm4.569,6.853H4.584a1.142,1.142,0,1,1,0-2.284H9.153a1.142,1.142,0,0,1,0,2.284Z" transform="translate(559.031 192.081)" fill="#fff"/>
    <path id="Vector-3" data-name="Vector" d="M0,0H36.55V36.55H0Z" transform="translate(592.55 224.55) rotate(180)" fill="none" opacity="0"/>
  </g>
</svg>
