<svg xmlns="http://www.w3.org/2000/svg" width="36.55" height="36.55" viewBox="0 0 36.55 36.55">
  <g id="vuesax_bold_programming-arrows" data-name="vuesax/bold/programming-arrows" transform="translate(-236 -252)">
    <g id="programming-arrows" transform="translate(236 252)">
      <path id="Vector" d="M0,0H36.55V36.55H0Z" fill="none" opacity="0"/>
      <path id="Vector-2" data-name="Vector" d="M14,22.722c0-.046.03-.092.03-.153V8.034A4.135,4.135,0,0,0,9.972,3.826H4.166l2.083-1.79A1.189,1.189,0,0,0,6.4.414,1.094,1.094,0,0,0,4.831.261L.4,4.086a1.158,1.158,0,0,0-.4.887,1.182,1.182,0,0,0,.4.887L4.831,9.686a1.048,1.048,0,0,0,.709.26A1.105,1.105,0,0,0,6.4,9.533a1.174,1.174,0,0,0-.148-1.622L4.166,6.121H9.972a1.881,1.881,0,0,1,1.847,1.913V22.569c0,.061.03.107.03.153A4.564,4.564,0,0,0,8.495,27.16a4.507,4.507,0,0,0,4.432,4.59,4.507,4.507,0,0,0,4.432-4.59A4.564,4.564,0,0,0,14,22.722Z" transform="translate(16.237 1.846)" fill="#fff"/>
      <path id="Vector-3" data-name="Vector" d="M16.959,25.889l-4.432-3.825a1.081,1.081,0,0,0-1.566.153,1.174,1.174,0,0,0,.148,1.622l2.083,1.79H7.387A1.881,1.881,0,0,1,5.54,23.716V9.18c0-.061-.03-.107-.03-.153A4.564,4.564,0,0,0,8.864,4.59,4.507,4.507,0,0,0,4.432,0,4.507,4.507,0,0,0,0,4.59,4.564,4.564,0,0,0,3.353,9.027c0,.046-.03.092-.03.153V23.716a4.135,4.135,0,0,0,4.063,4.208h5.806l-2.083,1.79a1.189,1.189,0,0,0-.148,1.622,1.084,1.084,0,0,0,.857.413,1.13,1.13,0,0,0,.709-.26l4.432-3.825a1.158,1.158,0,0,0,.4-.887A1.182,1.182,0,0,0,16.959,25.889Z" transform="translate(2.955 2.955)" fill="#fff"/>
    </g>
  </g>
</svg>
