<svg id="wallet" xmlns="http://www.w3.org/2000/svg" width="32" height="32" viewBox="0 0 32 32">
  <rect id="_Transparent_Rectangle_" data-name="&lt;Transparent Rectangle&gt;" width="32" height="32" fill="none"/>
  <rect id="Rectangle_4166" data-name="Rectangle 4166" width="2" height="2" transform="translate(22 17)" fill="#7c8da6"/>
  <path id="Path_11971" data-name="Path 11971" d="M28,8H4V5H26V3H4A2,2,0,0,0,2,5V26a2,2,0,0,0,2,2H28a2,2,0,0,0,2-2V10A2,2,0,0,0,28,8ZM4,26V10H28v3H20a2,2,0,0,0-2,2v6a2,2,0,0,0,2,2h8v3ZM28,15v6H20V15Z" fill="#7c8da6"/>
</svg>
