<svg id="money" xmlns="http://www.w3.org/2000/svg" width="18" height="18" viewBox="0 0 18 18">
  <rect id="Rectangle_4066" data-name="Rectangle 4066" width="15.75" height="1.125" transform="translate(1.125 12.375)" fill="#7c8da6"/>
  <rect id="Rectangle_4067" data-name="Rectangle 4067" width="15.75" height="1.125" transform="translate(1.125 14.625)" fill="#7c8da6"/>
  <path id="Path_11641" data-name="Path 11641" d="M23.125,10a1.125,1.125,0,1,0,1.125,1.125A1.125,1.125,0,0,0,23.125,10Z" transform="translate(-9.625 -4.375)" fill="#7c8da6"/>
  <path id="Path_11642" data-name="Path 11642" d="M14.25,12.5a2.25,2.25,0,1,1,2.25-2.25,2.25,2.25,0,0,1-2.25,2.25Zm0-3.375a1.125,1.125,0,1,0,1.125,1.125A1.125,1.125,0,0,0,14.25,9.125Z" transform="translate(-5.25 -3.5)" fill="#7c8da6"/>
  <path id="Path_11643" data-name="Path 11643" d="M7.125,10A1.125,1.125,0,1,0,8.25,11.125,1.125,1.125,0,0,0,7.125,10Z" transform="translate(-2.625 -4.375)" fill="#7c8da6"/>
  <path id="Path_11644" data-name="Path 11644" d="M16.625,13H3.125A1.128,1.128,0,0,1,2,11.875V5.125A1.128,1.128,0,0,1,3.125,4h13.5A1.128,1.128,0,0,1,17.75,5.125v6.75A1.127,1.127,0,0,1,16.625,13Zm0-7.875H3.125v6.75h13.5Z" transform="translate(-0.875 -1.75)" fill="#7c8da6"/>
  <rect id="_Transparent_Rectangle_" data-name="&lt;Transparent Rectangle&gt;" width="18" height="18" fill="none"/>
</svg>
