<svg xmlns="http://www.w3.org/2000/svg" width="18" height="18.913" viewBox="0 0 18 18.913">
  <path id="Path_12052" data-name="Path 12052" d="M62.221,376.051a2.527,2.527,0,0,0,3.241-1.88,2.092,2.092,0,0,1,.554-1.19,1.806,1.806,0,0,1,1.2-.277,1.423,1.423,0,0,1,1.037.321,2.14,2.14,0,0,1,.53,1.212h0v0a2.372,2.372,0,0,0,1.267,1.641,2.641,2.641,0,0,0,2.085.164l.03-.011a1.909,1.909,0,0,1,1.291-.192c.225.076.482.28.8.82a1.572,1.572,0,0,1,.331,1.046c-.039.208-.2.517-.786,1l-.011.009a2.479,2.479,0,0,0,0,3.781l.011.009c.582.482.747.791.786,1a1.572,1.572,0,0,1-.331,1.046,1.712,1.712,0,0,1-.816.836,2.013,2.013,0,0,1-1.309-.133,2.556,2.556,0,0,0-3.35,1.9,1.662,1.662,0,0,1-.483,1.1,1.9,1.9,0,0,1-1.172.249,1.809,1.809,0,0,1-1.161-.274,1.694,1.694,0,0,1-.495-1.082,2.557,2.557,0,0,0-3.35-1.9,2.013,2.013,0,0,1-1.309.133,1.712,1.712,0,0,1-.816-.836l-.013-.022a1.233,1.233,0,0,1-.249-.981,2.125,2.125,0,0,1,.8-1.039l.014-.013a2.387,2.387,0,0,0-.086-3.693,2.107,2.107,0,0,1-.718-1.065,1.64,1.64,0,0,1,.332-1.066,1.537,1.537,0,0,1,.822-.726A2.3,2.3,0,0,1,62.221,376.051Zm4.991-4.9a3.293,3.293,0,0,0-2.188.635,3.576,3.576,0,0,0-1.079,2.051l-.006.03a.974.974,0,0,1-1.22.713l-.033-.011a3.824,3.824,0,0,0-2.247-.107,3.077,3.077,0,0,0-1.682,1.389l-.013.022a3.139,3.139,0,0,0-.535,2.112,3.619,3.619,0,0,0,1.2,1.965.806.806,0,0,0,.073.062.835.835,0,0,1,.056,1.3,3.612,3.612,0,0,0-1.318,1.861,2.76,2.76,0,0,0,.439,2.176,3.2,3.2,0,0,0,1.621,1.5,3.491,3.491,0,0,0,2.341-.126h0l.007,0a1.006,1.006,0,0,1,1.308.7h0v.007a3.194,3.194,0,0,0,1.051,2.018,3.3,3.3,0,0,0,2.133.616,3.364,3.364,0,0,0,2.123-.575,3.149,3.149,0,0,0,1.063-2.067,1.006,1.006,0,0,1,1.308-.7h0l.007,0a3.491,3.491,0,0,0,2.341.126,3.208,3.208,0,0,0,1.627-1.508,3.049,3.049,0,0,0,.52-2.122,3.379,3.379,0,0,0-1.315-1.9.927.927,0,0,1,0-1.42,3.379,3.379,0,0,0,1.315-1.9,3.049,3.049,0,0,0-.52-2.122,3.135,3.135,0,0,0-1.642-1.5,3.381,3.381,0,0,0-2.345.214,1.09,1.09,0,0,1-.839-.079.829.829,0,0,1-.458-.549,3.642,3.642,0,0,0-.994-2.063A2.957,2.957,0,0,0,67.212,371.15Zm-2.027,9.457a1.964,1.964,0,1,1,1.964,1.964A1.965,1.965,0,0,1,65.185,380.607Zm1.964-3.518a3.518,3.518,0,1,0,3.518,3.518A3.518,3.518,0,0,0,67.15,377.089Z" transform="translate(-58.15 -371.15)" fill="#7c8db5" fill-rule="evenodd"/>
</svg>