<svg xmlns="http://www.w3.org/2000/svg" width="18" height="20.156" viewBox="0 0 18 20.156">
  <path id="Path_12046" data-name="Path 12046" d="M64.716,273.878a3.977,3.977,0,1,1,3.934,3.4A3.694,3.694,0,0,1,64.716,273.878Zm3.934-5.228c-3.08,0-5.766,2.242-5.766,5.228s2.686,5.228,5.766,5.228,5.766-2.242,5.766-5.228S71.73,268.65,68.65,268.65Zm-7.168,16.545c0-.614.527-1.333,1.968-1.944a13.933,13.933,0,0,1,5.2-.912,13.292,13.292,0,0,1,5.186,1,5.013,5.013,0,0,1,1.547,1,1.261,1.261,0,0,1,.435.86c0,.053-.018.192-.283.412a4.322,4.322,0,0,1-1.393.682,18.74,18.74,0,0,1-5.492.684,18.74,18.74,0,0,1-5.492-.684,4.322,4.322,0,0,1-1.393-.682C61.5,285.387,61.482,285.248,61.482,285.195Zm7.168-4.689a15.733,15.733,0,0,0-5.915,1.057c-1.59.674-3.085,1.841-3.085,3.631a2.373,2.373,0,0,0,.944,1.822,6.079,6.079,0,0,0,2,1.015,20.5,20.5,0,0,0,6.057.774,20.5,20.5,0,0,0,6.057-.774,6.079,6.079,0,0,0,2-1.015,2.373,2.373,0,0,0,.944-1.822,3.069,3.069,0,0,0-.954-2.137,6.793,6.793,0,0,0-2.116-1.395A15.132,15.132,0,0,0,68.65,280.506Z" transform="translate(-59.65 -268.65)" fill="#7c8db5" fill-rule="evenodd"/>
</svg>
