<svg xmlns="http://www.w3.org/2000/svg" width="18" height="19.017" viewBox="0 0 18 19.017">
  <path id="Path_12049" data-name="Path 12049" d="M61.758,322.879a.8.8,0,0,0-.593.279,1.162,1.162,0,0,0-.286.778v13.446a1.162,1.162,0,0,0,.286.778.8.8,0,0,0,.593.279h9.6v-14.5a1.162,1.162,0,0,0-.286-.778.8.8,0,0,0-.593-.279Zm0,17.288H74.252a2.9,2.9,0,0,0,2.9-2.9V330.15a.865.865,0,0,0-.864-.864h-3.2v-5.35A2.89,2.89,0,0,0,72.347,322a2.531,2.531,0,0,0-1.873-.846H61.758a2.531,2.531,0,0,0-1.873.846,2.89,2.89,0,0,0-.735,1.939v13.446a2.89,2.89,0,0,0,.735,1.939A2.531,2.531,0,0,0,61.758,340.167Zm11.324-1.729v-7.424h2.339v6.254a1.17,1.17,0,0,1-1.169,1.169Zm-9-12.2a.864.864,0,0,0,0,1.729H68.15a.864.864,0,0,0,0-1.729Zm-.864,3.915a.865.865,0,0,1,.864-.864H68.15a.864.864,0,0,1,0,1.729H64.082A.865.865,0,0,1,63.218,330.15Zm.864,3.2a.864.864,0,0,0,0,1.729h3.051a.864.864,0,0,0,0-1.729Z" transform="translate(-59.15 -321.15)" fill="#7c8db5" fill-rule="evenodd"/>
</svg>