<svg id="pedestrian-child" xmlns="http://www.w3.org/2000/svg" width="18" height="18" viewBox="0 0 18 18">
  <path id="Path_11647" data-name="Path 11647" d="M15.5,13.375H10.7L7.888,10h-4.2A1.689,1.689,0,0,0,2,11.688v3.375a1.126,1.126,0,0,0,1.125,1.125v3.938A1.126,1.126,0,0,0,4.25,21.25H6.5a1.126,1.126,0,0,0,1.125-1.125V16.188H6.5v3.938H4.25V15.063H3.125V11.688a.563.563,0,0,1,.563-.562H7.362L10.174,14.5H15.5a.563.563,0,0,1,.563.563V16.75H14.938v3.375H13.25V16.75H12.125v3.375A1.126,1.126,0,0,0,13.25,21.25h1.688a1.126,1.126,0,0,0,1.125-1.125v-2.25a1.126,1.126,0,0,0,1.125-1.125V15.063A1.689,1.689,0,0,0,15.5,13.375Z" transform="translate(-0.875 -4.375)" fill="#7c8da6"/>
  <path id="Path_11648" data-name="Path 11648" d="M21.969,11.938a1.969,1.969,0,1,1,1.969-1.969A1.969,1.969,0,0,1,21.969,11.938Zm0-2.812a.844.844,0,1,0,.844.844A.844.844,0,0,0,21.969,9.125Z" transform="translate(-8.75 -3.5)" fill="#7c8da6"/>
  <path id="Path_11649" data-name="Path 11649" d="M6.25,5.5A2.25,2.25,0,1,1,8.5,3.25,2.25,2.25,0,0,1,6.25,5.5Zm0-3.375A1.125,1.125,0,1,0,7.375,3.25,1.125,1.125,0,0,0,6.25,2.125Z" transform="translate(-1.75 -0.438)" fill="#7c8da6"/>
  <rect id="_Transparent_Rectangle_" data-name="&lt;Transparent Rectangle&gt;" width="18" height="18" fill="none"/>
</svg>
